<svg version="1.1" viewBox="0 0 593 593" xmlns="http://www.w3.org/2000/svg">
 <path d="m269 592c-26-3-34-4-45-7-12-3-36-10-40-12-1-0.7-7-3-12-5-8-3-22-10-32-16-8-4-36-24-37-26-0.2-0.5-0.7-0.8-1-0.8-0.5 0-3-2-6-5-3-3-7-7-9-8-4-3-18-19-22-23-5-6-18-24-21-28-5-8-13-22-13-22 0-0.5-0.3-1-0.8-1-0.4-0.2-2-3-3-5-1-3-3-6-3-7-2-4-5-10-6-12-0.4-1-2-4-3-8-1-3-3-7-3-8-3-7-8-23-9-29-0.6-4-2-8-2-9-0.5-1-2-11-3-22-3-23-3-49-1-66 0.8-6 2-14 2-18 2-19 12-54 20-74 1-3 14-29 15-31 3-5 11-18 12-18 0.3-0.3 3-3 5-7s5-7 6-8c1-1 5-5 8-10 12-14 28-29 45-42 10-8 21-16 23-16 0.3 0 2-1 4-3 2-2 7-4 10-6 4-2 7-4 7-4 0.3-0.3 2-1 4-2 2-1 6-3 8-4 2-1 6-3 7-3 1-0.4 4-2 6-2 5-2 14-6 19-7 2-0.7 6-2 8-3 2-0.7 6-2 8-2 2-0.5 6-1 8-2 14-4 46-7 67-7 28-0.07 79 8 97 16 1 0.5 3 1 5 2 14 5 33 13 33 14 0.2 0.4 0.9 0.8 2 0.8 4 0 43 26 56 37 16 14 35 34 44 47 4 5 14 20 15 21 0.6 0.9 3 5 5 8 5 9 18 35 20 41 0.7 2 1 3 4 10 1 4 6 18 7 22 2 10 3 14 5 27 3 15 4 41 4 59-0.4 12-5 45-7 55-3 14-4 17-9 33-3 11-5 15-7 20-3 7-15 31-17 34-3 4-14 22-15 23-0.3 0.3-3 4-6 8-3 4-7 9-8 10-1 1-5 5-7 8s-5 6-5 7c0 0.6-0.4 1-0.9 1-0.5 0-3 2-5 4-11 10-33 29-35 29-0.4 0-2 1-4 3-4 3-5 4-12 9-12 8-31 18-46 23-2 1-6 2-8 3-2 0.8-8 3-14 4-6 2-11 3-12 4-1 0.5-6 2-10 2-4 0.8-9 2-10 2-0.8 0.3-8 1-16 3-19 3-51 3-66 1zm61-3c11-1 25-4 28-5 1-0.5 4-1 6-2s5-1 6-1c0.6-0.4 3-1 6-2 7-2 22-7 23-8 0.5-0.5 2-0.9 2-0.9 5 0 33-15 50-26 5-4 11-7 12-8s4-3 5-4c2-1 4-3 6-4s4-3 6-5c2-2 5-4 7-6 2-2 6-5 9-8 3-3 6-5 6-5 0.5 0 1-1 2-2s1-2 2-2 1-0.9 2-2 1-2 2-1c0.5 0.3 0.9 0.2 0.9-0.2 6e-3 -0.4 2-3 5-6 3-3 7-8 10-12 3-4 6-8 6-8 0.7-0.6 10-15 11-17 0.4-0.8 2-4 4-6 3-5 12-22 16-32 3-6 8-20 10-28 0.8-3 2-6 2-8 3-7 6-26 9-44 2-17 2-22 2-41-0.4-22-1-31-3-40-3-20-4-25-5-26-0.5-1-1-4-2-6-2-8-6-21-8-26-0.7-2-2-5-3-8-2-6-17-36-18-37-0.4-0.3-2-3-3-5-2-4-9-14-14-21-1-2-3-4-3-4s-0.4-1-0.8-1c-0.7-0.3-8-10-14-17-5-7-30-30-39-36-26-18-38-26-61-36-8-3-27-11-37-13-13-4-16-4-36-7-32-5-49-6-76-3-13 1-45 7-52 9-1 0.5-6 2-10 3-4 1-8 3-8 3-0.5 0.5-2 0.9-2 0.9s-3 0.7-5 2-5 2-6 2c-8 3-22 10-30 15-10 6-31 19-34 22-0.8 0.7-3 3-6 4-11 8-36 32-44 42-2 2-6 7-9 11-3 3-5 7-5 7 0 0.6-0.3 1-0.8 1-0.4 8e-3 -2 3-4 6s-4 6-4 6c-0.4 8e-3 -0.8 0.5-0.8 1s-1 3-2 4c-3 4-4 7-5 9-0.3 0.8-1 2-2 3-2 3-10 20-13 27-5 11-6 14-8 22-0.8 3-2 6-2 7-0.5 1-1 4-2 7-0.5 3-1 6-1 6-1 2-5 21-7 38-4 31-3 70 3 95 1 4 2 10 2 12 0.4 2 1 5 2 6s2 5 3 8c2 5 7 21 9 26 3 8 10 21 11 24 1 2 6 10 11 20 0.6 1 2 3 3 4 0.8 1 2 2 2 3 0.7 2 12 18 20 27 10 12 31 33 41 41 3 3 6 5 7 5 3 3 11 8 12 8 0.3 0 4 2 7 4s7 4 7 4c0.3 0 2 0.8 3 2 8 5 34 17 53 24 10 4 11 4 36 9 12 3 24 4 26 3 0.6-0.3 2-0.1 3 0.5 5 3 41 3 67 0.2zm-49-3c-0.3-0.3-4-0.6-9-0.7-8-0.2-24-2-39-6-13-3-47-13-49-15-0.9-0.7-2-1-3-1-3 0-39-19-41-21-0.3-0.3-2-1-4-2-2-1-4-2-4-3-0.6-0.5-5-4-9-7-4-3-9-7-10-8-1-1-2-2-3-2-0.4 0-2-1-4-3-2-2-5-4-7-7-8-6-15-14-21-21-8-9-20-25-23-29-1-2-4-6-7-10s-7-12-10-17-5-10-6-11c-2-3-7-15-7-16 0-0.5-0.4-2-1-3-2-4-8-19-11-32-2-8-7-33-8-44-2-17-2-49 0.1-65 2-20 7-41 9-47 0.5-1 1-5 2-8 0.6-3 2-6 2-6 0.5 0 0.9-0.9 0.9-2s0.7-4 2-6 2-5 3-7c0.8-2 2-5 3-6 4-9 14-29 19-36 1-2 3-4 3-5 0-0.9 16-23 17-23 0.5-0.2 0.9-0.7 0.9-1 0-0.5 0.8-2 2-3s3-4 5-6c10-12 36-36 47-44 2-1 5-3 6-4 30-20 49-29 88-42 7-2 28-6 40-8 11-2 42-2 60-1 8 0.3 22 3 36 6 4 0.8 8 2 9 2 1 0 4 0.6 6 1 2 0.8 7 3 12 4 5 1 11 3 13 4 35 14 61 29 84 49 9 8 27 25 33 33 12 14 32 42 32 44 0 0.4 0.8 2 2 3 4 5 13 25 18 37 2 4 3 7 4 8s0.9 2 0.9 3 0.4 3 0.9 4c1 3 7 24 10 38 5 26 6 63 3 89-3 23-5 31-7 38-0.6 2-3 9-5 16-4 12-5 16-8 23-0.7 2-2 4-2 6s-1 3-1 3-2 4-4 8-4 8-5 9-2 3-3 6c-1 2-2 4-3 4-0.4 0-0.8 0.6-0.8 1 0 0.8-0.3 2-0.8 2-1 0.5-5 7-5 8 0 0.9-2 4-6 8-0.7 0.7-0.9 2-0.6 2 0.3 0.3 0.1 0.6-0.5 0.6-0.6 0-1 0.8-2 2-0.3 1-2 3-3 5s-6 6-9 10c-15 19-46 46-63 55-3 2-6 4-8 5-6 4-22 13-38 19-3 1-6 3-7 3-3 1-19 7-23 8-3 0.9-3 0.9-6 2-2 0.8-17 4-24 6-15 3-62 6-64 5zm27-3c6-0.2 16-0.9 21-2 9-1 14-2 33-6 3-0.6 5-1 6-2 0.5-0.4 2-0.8 3-0.8 2 0 11-3 16-5 1-0.4 5-2 10-4 11-4 16-6 35-16 2-1 7-4 12-7s9-6 11-7c3-2 11-8 17-12 14-11 32-29 41-40 3-4 7-8 7-8 0.6-0.6 3-3 5-6s5-7 6-9c1-2 2-3 2-4s2-3 4-7c2-3 5-8 6-10s2-4 3-5c2-3 12-26 15-32 2-5 6-18 10-32 2-6 6-30 7-41 0.3-3 0.9-14 1-25 0.9-29-3-57-11-85-0.9-3-2-7-3-10-1-5-2-6-5-13-1-3-2-5-2-6 0-0.6-1-4-3-7-2-3-5-9-6-13s-4-8-5-10-3-6-4-8c-1-3-15-23-17-25-0.3-0.3-3-4-6-8-10-13-26-30-37-38-1-1-5-4-8-7-3-3-7-6-9-7s-4-3-4-3c-4e-3 -0.4-0.6-0.8-1-0.8-0.7 0-2-0.9-3-2s-2-2-3-2c-0.9 0-7-4-8-5-0.3-0.4-2-1-4-2-2-0.9-5-3-7-4-9-5-16-9-17-9-0.7 0-1-0.3-2-0.8-0.7-2-28-12-40-15-2-0.7-5-2-6-2-0.9-0.5-4-1-8-2-3-0.5-11-2-18-3-33-7-79-5-116 4-6 1-12 3-14 3-10 2-41 15-50 20-1 0.6-3 2-5 3-15 8-22 12-29 18-3 2-6 4-7 4-0.6 0-1 0.4-1 0.8 0 0.4-3 4-8 7-16 13-27 23-40 40-2 3-5 6-6 7-1 1-3 3-4 5-1 2-2 3-2 3-1 1-14 21-18 28-5 8-9 18-12 25-1 3-3 6-3 7-4 8-5 12-5 13 0 0.9-0.4 2-0.9 3s-2 4-2 7c-3 11-5 19-6 23-5 19-8 58-6 82 2 19 2 18 4 31 5 26 12 48 25 75 16 33 42 67 69 89 4 4 10 8 12 10 2 2 7 5 10 7 3 2 7 5 7 5 0.6 0.5 3 2 4 3s4 3 6 4c3 2 22 13 35 18 2 1 6 3 7 3s3 1 4 1 3 0.6 4 1c4 2 11 4 16 5 2 0.4 5 1 6 2 1 0.7 5 2 8 2s8 2 12 3 9 2 14 2c5 0.6 9 1 9 2s8 0.7 16 1c8 0.3 15 0.7 16 0.9 0.2 0.2 2 0.2 3-0.08 1-0.2 8-0.6 14-0.9zm-19-31c-9-23-9-23-12-24-3-0.8-3-1-3-6-0.3-5-1-5 14-7 11-1 12-1 12 6 0.01 3-0.4 4-2 5-2 0.7-1 2 3 16 3 9 5 16 6 16 0.5 0 4-29 4-32-0.02-0.9-1-2-3-3-3-0.9-3-1-4-6-0.3-4-0.06-5 2-5 5-1 24-3 25-2 1 0.4 1 2 1 6 0 4-0.3 5-2 5-2 0-2 0.1-0.4 4 0.9 2 2 5 2 7 0.5 2 1 4 2 5 2 4 4 10 5 14 0.6 2 1 4 2 3 0.3-0.3 0.7-3 0.8-7s0.6-11 1-17l0.7-10-3-1c-3-1-3-1-3-6 0-6-0.3-5 14-7l9-0.7 0.7 5c0.7 5 0.2 7-2 7-2 0-3 3-4 12-0.3 4-2 14-3 24l-2 17-6 0.7c-11 1-10 1-13-5-5-12-10-27-10-28 0-0.9-0.4-2-0.8-2-0.4 0-2 8-3 18-1 10-3 19-3 19-0.3 0.5-4 1-8 2l-8 0.7zm23 19c0.3-0.4 2-9 3-20 2-16 3-19 4-20 1-0.7 2-0.5 3 1 0.6 1 1 3 1 3 0 0.8 0.9 3 2 6s4 9 6 15c2 6 4 11 4 11 0.2 0.2 3 0.1 6-0.2l6-0.7 2-14c1-8 2-17 2-20 0.7-10 2-17 5-17 3-0.9 2-8-1-7-1 0.2-5 0.7-9 1-7 0.6-7 0.7-7 3 0 2 0.7 3 3 4 4 2 4-0.02 2 22-0.8 15-2 20-4 20-0.7 0-2-2-3-5s-2-6-3-7c-3-6-9-24-9-26 0-1 0.7-2 2-2 2 0 3-3 0.8-5-1-1-2-1-6-0.8-3 0.5-7 0.9-10 0.9-3 0.04-6 0.4-6 0.8-2 1-0.4 6 2 6 0.9 0 3 0.6 3 1 2 1 2 2 0.2 13-0.9 7-2 15-2 18-1 14-3 14-8-2-9-27-9-28-6-29 2-0.4 2-1 1-4-0.3-2-0.6-3-0.7-3-0.06-0.08-3 0.2-6 0.7s-8 1-10 1c-4 0.6-5 0.8-4 3 0.2 2 1 3 3 4 4 1 4 1 8 11 2 4 3 9 4 10 1 2 5 13 8 21l2 6 6-0.6c3-0.3 6-0.9 6-1zm-104-13c-2-0.2-4-0.9-4-1-0.5-0.5-2-0.9-3-0.9-2 0-8-5-9-8-2-4-3-11-1-16 4-11 9-18 16-21 3-1 10-0.6 16 1 9 3 14 10 13 18-0.6 6-4 14-7 19-4 6-13 10-21 9zm13-4c6-3 11-12 13-23 0.9-6-2-12-8-15-6-3-13-4-17-3-13 3-21 30-11 38 6 5 17 6 24 3zm-16-7c-4-2-4-4-2-12 2-9 4-14 7-16 3-1 9-0.3 12 2 2 2 3 3 2 8-0.4 3-2 9-4 12-3 6-3 6-8 6-3 0.2-5-0.4-7-1zm13-6c1-3 3-8 4-11 1-6 0.6-8-5-9-6-2-9 1-12 14l-1 7 2 2c2 1 4 2 6 2 3 0 4-0.5 6-5zm168 15c-5-2-8-7-8-13 0-6 4-12 11-16 5-3 6-5 2-7-2-2-3-2-6-0.02-3 2-3 2-3 5 0.6 3 0.3 4-2 6-5 3-8 2-10-2-1-3-1-4 0.3-8 2-5 5-8 11-12 4-2 6-3 11-3 8 0.1 10 3 17 17 5 10 5 11 8 10 2-0.5 3-0.1 4 1 2 3 1 6-2 10-3 3-4 3-7 3-3 0-4-0.5-5-2-0.7-1-1-0.7-3 3-2 3-3 5-6 7-4 2-6 2-11 0.6zm11-4c0.9-0.7 3-3 4-6 3-5 4-6 6-3 2 4 9 2 12-4 1-3 0.5-5-2-4-3 1-5-0.7-14-20-3-6-6-8-11-8-9-0.2-20 8-20 16-0.7 5 0.6 7 5 5 3-1 3-2 3-5-0.2-3 0.2-4 3-6 4-3 9-3 12 0.1 4 4 3 6-4 10-4 2-10 10-10 14-0.03 4 2 8 5 10 3 2 10 2 12-0.6zm-8-7c-0.6-0.7-1-3-2-5-0.6-3-0.1-4 4-8 3-3 6-5 6-5s2 2 4 6c3 6 3 7-3 11-4 3-8 3-10 0.9zm8-3c4-3 5-4 3-8l-2-4-3 2c-2 1-4 3-4 5-1 2-1 3 0.2 5 2 3 2 3 6 0.1zm-243-10c-2-2-7-4-9-6-5-3-6-5-3-10 1-2 2-3 4-2 2 0.5 3-0.2 7-7 4-7 4-8 3-12-2-7-1-8 6-7 12 1 14 2 14 4 0 1-0.4 3-1 4-0.9 2-0.7 2 4 0.3 5-1 5-1 8 0.7 2 2 3 3 3 6 0 2-0.7 5-2 6-1 2-2 3-5 3-3 0-4-0.6-6-3-4-5-8-4-13 6-4 6-4 7-2 9 0.9 2 2 3 2 4 0 1-4 7-5 7-0.4-6e-3 -3-1-5-3zm7-3c0.9-2 0.8-3-0.8-4-1-0.9-2-2-2-3 0-2 7-14 10-16 4-3 8-3 11 1 3 4 7 4 9 0.05 2-4 2-5-0.1-7-2-3-7-2-12 0.7-5 3-6 2-4-3 1-2 1-4 0.7-5-1-1-14-3-15-3-0.4 0.4 0.1 2 1 5l2 4-5 9c-5 9-7 11-10 10-1-0.3-2 0.4-3 2-1 3-0.9 3 5 6 3 2 7 4 8 5 3 2 3 2 4-1zm272-2c-2-2-4-5-4-6 0.01-2 6-6 8-6 0.8 0 2 0.4 2 1 1 2 4 1 8-2 4-4 5-5 2-6-2-1-6 0.2-10 3-2 1-4 2-9 2-7-0.02-8-0.2-11-5-3-4-4-10-2-14 1-4 9-11 14-13 2-0.8 4-2 4-3 0.6-1 5-2 5-0.7 4e-4 0.4 2 3 4 5s3 5 3 6c0 4-8 7-11 5-1-1-2-0.8-5 1-4 3-5 5-2 6 2 1 7-0.3 11-3 7-5 17-3 20 5 4 8 2 14-5 21-3 3-14 9-17 9-0.9 4e-4 -3-2-6-4zm13-1c10-5 16-13 14-19-1-5-3-7-5-8-3-2-11-1-14 1-1 1-5 2-7 3-4 1-4 1-6-0.5-3-3-3-6 0.7-9 4-4 7-5 10-4 3 1 3 0.9 5-0.8 2-2 2-2-2-6-4-4-4-4-5-2-0.6 1-2 2-4 3s-5 2-8 5c-8 6-9 13-3 20 2 3 4 3 8 3 3 0 6-0.8 9-2 8-5 15-4 15 1 0 2-1 4-5 7-5 4-7 5-8 3-0.9-1-4-1-6 0.4-2 1-2 2 1 5 4 4 4 4 11 0.6zm-329-23c-5-2-10-8-12-13-3-7 2-19 11-27 10-9 20-9 30 1 5 5 7 9 6 15-0.6 4-2 5-6 10-3 3-6 5-7 5-1 0-5-3-10-7-4-4-8-7-9-7-1 0-3 3-3 6 0 4 9 10 16 12 2 0.3 3 1 3 2 0 5-12 7-20 4zm15-2c0.7-0.7 0.5-1-0.9-2-4-1-10-5-13-7-2-2-3-3-3-6 0-4 2-9 5-9 0.8 0 5 3 10 7l9 7 4-3c9-7 9-16 0.8-24-8-7-15-8-24-2-8 6-13 14-13 22 0 9 12 18 20 17 2-0.3 4-1 5-2zm-2-22c-3-2-6-5-6-6-0.4-2 4-6 8-6 4 0 9 4 9 8 0 3-3 8-4 9-0.6 0.2-4-2-7-4zm9-4c0.03-2-5-6-7-6-0.8 0.01-3 0.8-4 2l-2 2 4 3c2 2 5 4 5 4 0.5 1 4-3 4-5zm135 20c-5-0.5-12-2-16-2-3-0.9-9-2-13-3-4-0.8-8-2-8-2s-3-1-5-2c-2-0.4-4-1-5-1s-5-2-10-5c-10-4-28-13-32-17-10-8-14-11-15-11-1 0-22-21-28-28-7-8-15-20-20-30-2-4-5-8-5-10-0.9-2-3-6-5-10-2-4-3-7-4-8s-1-3-1-4-1-4-2-4-1-3-1-4c-0.4-2-1-4-2-6-0.8-2-2-8-5-22-2-8-2-35-1-48 2-20 7-42 16-63 6-15 13-25 24-40 22-29 47-49 85-66 5-2 19-7 21-7 1 0 2-0.4 3-0.9s5-1 9-2c4-0.7 8-2 9-2 2-1 27-2 43-2 15 0.3 22 1 31 4 3 0.8 7 2 10 3 6 1 18 5 20 6 0.6 0.4 2 1 4 1 1 0.4 6 2 9 4 4 2 7 3 8 3 0.6 0 1 0.3 1 0.8 6e-3 0.4 2 2 4 3 6 3 23 14 32 21 24 19 46 49 57 76 0.4 1 2 5 3 8 2 6 4 12 8 25 6 23 7 52 2 80-1 9-3 18-4 19-0.7 1-2 5-2 8s-1 6-2 6c-0.7 0.3-2 3-3 7-0.9 4-3 9-4 11-1 2-3 6-3 7-1 4-14 25-20 32-18 23-38 40-63 54-36 20-76 28-119 24zm38-2c12-0.9 33-5 38-6 1-0.4 4-2 8-3 6-2 11-4 19-7 3-1 6-2 6-2 0.4 0 5-2 9-5s9-5 9-5c0.3 0 3-2 5-4 3-2 5-4 5-4 1 0 14-11 22-18 8-7 15-16 20-22 1-2 4-5 5-6 1-2 2-3 2-3s1-2 2-4 2-4 2-4c0-0.3 2-4 5-8 3-4 5-8 5-9s1-3 2-5c1-2 3-7 4-11s2-7 3-7c0.7-0.3 2-3 2-5 0.4-3 1-6 2-8 0.8-2 3-11 4-20 2-14 2-18 2-36-0.4-18-0.9-22-4-34-3-14-8-29-9-31-0.5-0.5-0.9-2-0.9-3 0-4-16-34-24-45-11-14-28-32-37-38-0.8-0.6-5-3-9-6-8-6-10-7-19-12-3-2-5-3-6-3-0.2-0.4-0.8-0.8-1-0.8-0.6 0-3-0.9-5-2-14-6-28-11-38-13-2-0.4-4-1-5-1-6-3-38-5-61-3-12 1-37 6-39 8-0.5 0.5-2 0.9-3 0.9-3 0-24 9-39 18-9 5-28 19-36 27-11 11-22 24-26 30-1 2-3 5-5 8s-3 5-3 6c0 0.8-0.4 2-0.9 2-1 0.7-11 21-11 22 0 0.6-0.6 2-1 4-2 4-6 19-9 32-6 29-5 64 3 94 2 6 5 16 7 19 4 9 7 15 7 15 0 0.2 2 3 4 7 2 3 4 7 5 8 0.4 1 2 3 3 4s2 2 2 3c0 3 20 27 32 37 2 2 5 5 6 5 0.7 0.7 2 2 4 2 1 0.6 4 3 6 4 2 2 4 3 5 3 0.4 0 2 1 5 3s7 5 12 7 8 4 8 5c0.2 0.4 0.9 0.8 2 0.8 0.7 0 3 0.6 4 1s5 2 7 3 6 2 8 3c2 0.8 4 2 6 2 2 0.3 4 1 6 2 2 0.7 6 2 10 2 4 0.6 8 2 10 2 3 0.9 8 2 22 3 8 0.7 18 0.6 30-0.3zm-29-4c-0.2-0.2-5-0.8-10-1-9-1-13-2-29-6-9-2-29-10-37-15-2-1-5-3-7-4s-4-2-4-2-3-2-5-4c-2-2-5-3-5-4-0.4-0.7-1-1-2-1-0.9 0-3-2-13-10-6-5-28-28-28-29-0.02-0.4-1-2-3-4-2-2-3-4-3-4 0-0.5-0.9-2-2-3-2-2-4-6-10-18-9-18-14-33-20-58-1-6-3-29-3-34 1-23 2-28 3-34 1-4 2-8 3-10 0.4-2 1-5 2-6s2-4 2-6c0.4-2 2-7 4-10 9-20 13-27 17-32 1-2 2-3 2-4 0-2 21-27 29-35 8-7 16-14 24-19 4-3 9-6 10-6 2-2 20-10 24-12 1-0.4 3-1 4-2 10-4 26-8 42-11 15-2 47-2 60 3e-3 20 4 36 9 55 19 4 2 9 5 12 6s5 3 5 4c0 0.5 0.7 0.8 2 0.8s2 0.4 2 0.8c0 0.4 1 2 3 3s3 2 4 3 1 1 3 2c13 9 36 34 45 49 5 8 13 24 16 32 2 4 3 8 4 9 0.5 0.8 1 4 2 7 0.7 3 2 6 2 6 0.4 0.6 1 4 2 8s2 8 2 10c0.8 2 3 30 3 34-1 27-4 41-11 62-4 10-3 9-11 24-3 6-7 13-8 14-1 1-2 2-2 3 0 0.8-8 13-10 15-0.8 0.8-2 2-2 2 0 2-21 23-29 29-5 4-16 11-20 14-1 0.7-5 3-8 4-6 3-19 10-20 10-0.4 3e-3 -2 0.6-3 1s-4 2-6 2c-2 0.4-4 1-4 1-1 1-20 6-22 6-1 0-2 0.3-2 0.8 0.3 0.4-1 0.6-3 0.4-2-0.2-4 0.02-4 0.5s-2 0.9-4 1c-2 0.06-6 0.4-9 0.7-5 0.7-28 1-29 1zm35-4c13-2 31-6 36-8 1-0.5 4-2 7-3 18-6 42-20 57-33 7-6 22-21 25-26 0.8-1 2-3 3-4 4-4 14-21 19-30 9-19 12-26 17-44 4-16 5-37 2-61-1-10-3-19-3-22-0.8-2-2-6-2-8-2-10-8-25-16-40-7-13-11-20-20-31-11-14-19-21-35-33-6-4-9-7-10-7-0.4 0-2-1-4-2-5-3-15-9-26-14-2-0.8-5-2-6-3-7-4-26-9-38-11-13-2-42-2-58 0.01-7 1-13 2-14 3-0.8 0.4-4 1-7 2-3 0.6-10 2-14 4-9 3-32 14-39 19-2 2-6 4-9 6-8 5-25 21-33 31-2 3-5 7-7 8-2 3-11 15-12 17-0.4 0.8-2 4-4 6-2 2-4 6-5 8-0.9 2-3 6-4 8-5 11-7 17-8 18-0.02 0.9-0.7 3-2 6-3 7-6 22-7 31-2 16-0.1 52 3 59 0.5 1 1 4 1 6 3 17 16 48 29 67 10 14 13 18 26 30 10 9 24 20 37 28 5 3 21 10 27 13 13 5 34 10 41 10 3 0.07 7 0.5 8 0.9 4 1 30 0.2 40-1zm-22-54c-3-0.5-7-1-8-1-4-0.6-13-9-16-15-7-16-6-39 0.8-58 2-6 7-16 11-21 4-6 11-9 14-6 1 1 2 12 0.2 15-2 4-5 12-5 15 0 4 3 9 5 11 8 5 14 2 17-8 4-12 15-19 25-14 6 3 12 3 16-1 9-9-2-20-19-20-4-0.02-11-3-14-6-2-2-2-6-0.5-7 2-0.9 22-0.8 32 0.2 5 0.6 12 2 16 3s8 2 10 3c10 2 27 16 31 25 1 3 2 6 2 10 0 6-2 16-4 20-0.6 1-1 7-2 14-0.4 10-0.9 13-3 17-4 9-19 21-26 21-1 0-3 0.4-3 0.9-0.3 0.5-3 1-6 2-5 0.6-14-2-19-4-5-3-13-5-16-5-3 0.04-6 1-9 3-10 6-18 8-29 6zm16-3c4-1 10-4 15-7 3-2 5-2 9-2 5 0.5 8 2 24 8 3 1 9 2 10 0.7 0.3-0.3 2-0.8 5-1 10-0.9 23-11 28-21 2-4 2-7 3-15 0.3-6 1-12 2-16 3-10 4-17 3-23-1-6-2-7-9-13-4-4-10-9-14-10-14-7-43-12-58-11-5 0.6-5 0.9-5 2 1 2 8 5 12 5 1 3e-3 6 0.7 10 1 6 1 8 2 11 5 7 6 6 16-1 20-3 2-11 2-16-0.6-9-4-19 1-22 12-3 13-14 16-23 7l-4-4 0.5-7c0.3-5 1-9 3-13 3-7 3-15 0.01-15-4-0.5-10 6-15 17-6 13-9 25-10 39-0.2 8 0.07 10 1 9 1-0.6 1-0.5 0.03 0.8-0.9 1-1 2-0.4 4 0.5 1 2 5 3 8 1 3 3 7 4 8 1 0.9 2 3 3 4 1 4 6 6 13 7 4 0.4 7 0.8 7 1 0.8 0.8 9 0.4 12-0.7zm-93-12c-6-0.8-15-2-21-2-13-0.5-18-2-22-8-6-7-7-10-6-20 0.7-5 2-10 2-12 3-6 5-10 5-13 0-3-4-9-6-10-1-0.5-3-3-4-5-2-3-2-5-2-10 0.6-7 3-13 8-18 4-4 13-9 17-9 1-0.07 4-0.5 6-0.9s-2-0.5-7-0.2c-11 0.6-20-0.7-27-4-6-3-10-9-9-14 0.6-5 2-6 8-11 2-1 3-3 3-4s1-3 3-5c2-2 3-5 4-7 1-3 0.9-4-0.9-7-1-2-4-6-6-8-4-4-7-9-8-14-0.7-4 1-13 3-15 1-2 12-2 16-0.3 2 0.9 10-1 19-5 1-0.5 5-2 8-2 12-3 20-0.02 32 12 6 6 8 8 7 10-0.7 4 2 0.6 4-4 1-4 4-5 9-4 2 0.9 4 0.9 7-0.03 3-1 4-0.9 7 0.5 3 2 5 6 2 7-4 3-5 3-4 6 0.8 3 9 10 10 9 0.3-0.3 0.6-2 0.6-3 0.04-2 0.6-3 3-3 2-0.4 3-0.7 1-2-4-2-15-22-19-34-4-11-3-31 1-37 3-4 3-4 15-5 11-1 15-3 18-10 3-5 10-10 16-10 10 0 19 3 24 7 0.9 0.8 2 2 3 3 4 4 9 11 9 15 0 1 0.4 3 1 3s1 2 1 4c0 4 2 8 5 11 3 2 4 3 10 7 2 0.9 5 4 7 6 3 4 4 4 3 11-0.8 9-3 15-7 19-3 3-3 6-0.6 3 0.8-0.6 6-2 12-4 10-3 11-3 20-1 9 1 10 1 14 5 4 4 5 4 5 11 0.5 6 0.8 7 3 8 2 0.8 5 0.9 10 0.5 9-0.8 13 0.1 20 5 6 4 10 9 11 14 1 8-4 21-13 30-2 2-3 4-3 6 0 15-9 26-23 27-7 0.5-18-1-20-3-0.7-0.7-2-1-3-1-0.9 0-3-0.6-4-1-1-0.7-4-2-6-3-2-0.9-4-2-5-2s-2-0.4-3-0.8c-1-1-9-4-20-8-7-2-10-3-22-3-15-0.3-18-1-18-5 0-2 1-3 5-5 8-4 17-5 37-5 19 0.07 19 0.04 21-2 2-2 2-3 1-6-2-7-6-9-17-7-3 0.6-4 0.3-6-2-2-2-2-3-2-8 0.4-5 0.2-6-1-7-3-2-12 0.9-20 6-9 5-14 10-18 15-3 4-6 5-7 3-0.8-1 1-8 3-8 0.5 0 0.9-0.6 0.9-1 0-2 14-20 21-28 8-8 7-9-3-2-6 4-10 8-14 16-4 6-6 7-8 5-2-2-1-9 0.7-14 2-4 3-11 6-25 1-5-1-11-6-15-5-5-9-5-12-0.9-2 2-3 5-5 14l-2 11 2 7c3 8 3 14 1 15-0.8 0.3-2 1-2 2s-0.7 3-2 4c-1 2-1 3-0.4 5 0.7 2 2 3 2 3 0.4 0 2 2 3 4 5 7 7 20 5 24-0.7 1-2 2-5 2-4 0-5-0.3-6-10-0.6-6-2-11-7-21-3-5-3-5-8-3-3 2-4 2-6 0.9-4-3-0.9-8 5-8 3 0 3-0.05 0.9-2-3-3-5-3-8-2-3 2-8 2-9-0.02-2-5 0.6-7 6-6 4 1 3-1-3-5-3-2-6-3-7-3-0.8-5e-3 -3 2-4 3-3 4-5 4-9 2-2-1-2-0.9 0.2 1 1 1 4 2 5 2 2 0 3 0.7 5 4 2 4 5 18 5 22 0 1-0.5 3-1 3-1 0.8-6-3-6-5 0-0.7-0.7-2-1-2-0.8-0.7-3-4-4-6-4-7-9-11-12-12-4-1-8 3-8 9 0 9 3 12 17 20 2 1 4 2 4 3s1 2 3 4c3 4 3 10 0.2 13-1 1-4 2-6 3-7 1-16 5-20 8-5 4-5 8 2 16l3 4-1 21 4 2c4 2 6 2 11-3 3-3 11-14 14-21 2-5 9-11 12-11 3 0 4 4 2 8-0.9 1-2 4-3 6-0.9 2-2 4-2 4-0.4 0-0.8 0.5-0.8 1s-1 3-2 6c-3 7-4 8-5 16-1 7-4 15-7 24-4 12-12 22-18 24-4 2-5 2-19-0.1zm18-2c2-1 6-4 7-6 4-4 9-13 9-16 0-0.8 0.6-3 1-5 2-6 6-16 7-22 0.6-3 1-7 2-8 3-7 6-14 9-19 4-7 4-9-0.2-7-3 2-8 9-8 12 0 0.8-0.4 2-0.9 2-0.5 0.3-2 3-3 5-3 6-12 15-16 16-2 0.4-4-0.06-7-2l-4-2 1-22-4-4c-4-4-6-8-6-12 0-5 9-11 24-15 7-2 9-3 8-7-6e-3 -4-5-9-13-14-10-6-13-10-13-19 0-6 1-9 4-11 6-3 14 2 20 12 1 2 3 5 4 6 1 0.9 2 2 2 3 0 0.7 0.7 2 2 2 2 2 2 0.9-0.08-9-2-11-4-15-8-15-4-0.9-5-2-11-10-5-7-5-10-3-15 0.5-1-1-3-5-7-3-3-6-6-7-7-2-3-9-6-14-7-5-1-9-0.1-22 4-14 5-14 5-18 4-2-0.6-6-1-8-1h-4l-2 6c-2 5-2 6-0.2 11 1 3 3 7 6 10 6 6 9 11 9 14 0 3-3 10-5 13-1 1-3 4-4 6-0.9 2-3 4-4 4-2 0.7-4 3-5 5l-2 4 2 4c2 3 3 5 6 6 15 6 35 5 60-3 14-5 17-5 19 1 1 4-4 6-27 8-6 0.6-13 1-16 2-3 0.5-7 1-8 1-4 0-13 5-16 9-5 5-6 9-7 15-0.8 6 2 13 6 15 3 1 7 7 7 12 0 2-1 7-3 11-2 4-3 11-4 15-1 7-1 8 1 12 5 9 9 12 25 13 10 0.6 34 3 35 4 0.03 0.07 2-0.8 4-2zm197-86c8-4 12-11 12-20 0-4 2-9 3-9 1 0 9-12 11-16 2-4 3-13 1-15-0.5-0.4-1-2-2-3-3-6-19-13-24-11-3 2-16-0.3-17-3-0.06-0.3-0.2-3-0.3-6-0.2-5-0.7-6-3-9-4-4-6-5-15-6-7-1-9-0.9-14 0.2-17 4-27 10-39 21-5 5-17 19-17 20 0 0.4-1 2-2 4s-2 4-2 4-0.9 2-2 3c-1 1-2 3-2 4 0.3 2 0.7 1 2-1 2-4 7-9 16-15 12-8 19-10 26-8 3 1 3 1 2 7-0.5 5-0.3 6 1 8 2 2 2 2 5 1 4-2 12-1 14 0.7 2 2 6 9 6 12 0.01 1-1 3-3 5l-3 3-22 0.05c-21 0.04-23 0.2-29 2-9 3-10 4-8 6 0.9 0.9 6 1 16 2 11 0.3 16 0.9 18 2 2 0.8 6 2 9 3 3 0.9 9 3 11 4 3 1 6 3 6 3 0.7 0 3 0.7 4 1 4 2 7 3 8 3 0.4-0.09 0.8 0.3 0.8 0.8s0.8 1 2 1 2 0.5 3 1c4 4 21 5 28 1zm-212-21c5-0.5 10-1 13-2 4-1 4-2 4-3-0.5-3-4-3-14 0.4-5 2-13 4-17 5l-8 2 6-0.5c4-0.3 10-0.9 15-1zm87-5c1-6-3-19-9-24-3-3-3-4-3-7 0.3-3 0.1-3-2-3-5 0.9-7-5-4-11 2-4 4-4 7-0.5 5 5 6 2 2-9-3-8-3-10-0.2-25 2-10 7-15 15-14 2 0.3 8 5 10 9 4 6 4 8-0.4 26-0.9 4-3 10-4 13-2 5-2 9-0.4 10 0.6 0.2 3-2 4-5 6-10 10-14 29-25 5-3 11-7 13-9 4-4 7-13 7-19 0-4-0.5-6-4-9-2-2-5-4-6-5-1-0.4-5-2-7-5-6-5-9-10-10-18-0.9-7-6-14-13-20-5-4-6-4-14-5-9-1-9-1-14 1-4 2-6 4-7 7-4 8-7 9-19 11-6 0.7-11 2-12 3-3 3-5 8-5 17 0 12 2 22 7 33 5 10 11 20 13 20 0.5 0 1 1 2 2 0.5 1 2 4 3 5 2 3 2 4 2 8-0.6 5-1 6-3 6-3 0.4-7-4-7-7 0-2-0.4-2-2-2-2 0.4-2 0.8-0.8 2 0.6 1 0.8 3 0.4 4-0.5 1-1 2-5 1-3-0.5-4-0.3-4 0.9 0 2 3 3 6 1 4-2 6-2 10 1 4 4 4 6-2 7-2 0.4-4 1-4 2 0 2 1 3 5 0.5 2-1 4-2 5-2 2 0.6 8 9 8 11 0 0.5 0.9 3 2 5 1 2 2 7 3 11 0.4 4 0.9 8 1 8 0.2 0.4 2 0.8 3 0.8 2 0 3-0.7 3-3zm-12-39c0.3-2 3e-4 -4-0.6-5-1-2-4 3-3 6 0.9 4 3 3 4-1zm4 0c-0.01-2-0.2-2-1-1-1 2-1 4 0 4 0.6 0 1-1 1-3zm-13-7c-0.3-1-0.2-3 0.4-4 0.8-1 0.5-2-1-4l-2-3-1 4c-2 5 0.2 10 3 10 1 0 1-0.7 0.8-2zm-29-6c3-4 6-4 10-2 2 1 2 0.7-0.6-2-2-2-3-5-3-7-0.5-3-0.3-4 3-6l3-2-2-2c-2-1-3-2-4-1-2 0.9-8 0.8-12-0.2-2-0.6-3-0.4-3 2-0.7 3-2 6-4 9-0.9 1-1 2-0.2 4 0.6 1 2 3 2 4 2 4 5 7 7 7 0.9 0.01 3-2 4-3zm-9 2c0-0.2-0.8-1-2-2-2-1-2-1-0.4 0.4 1 2 2 2 2 1zm33-6c8e-3 -0.7-0.7-1-1-1-2 0-2 0.9-0.9 4 0.5 1 0.8 1 1 0.3 0.5-0.7 0.9-2 0.9-3zm-40-6c-0.3-2-0.7-3-0.9-1-0.4 2 0.3 5 1 5 0.2 0 0.1-1-0.2-3zm235 252c-2-2-7-6-10-9-4-4-6-6-8-6-4 2-5 2-7-0.4-2-2-2-4-2-12-0.2-10-0.2-10 2-11 3-1 3-1 6 1l3 3 4-4c2-2 5-4 6-4 2 0 5 5 5 8 0 1-2 3-4 6l-4 4 7 7c4 4 8 7 9 7 3 0 6-3 7-6 0.7-3 2-3 5-1 1 0.8 2 2 2 6 0 14-10 20-21 14zm10-0.1c5 0 10-10 8-15-0.1-0.3-0.1-1-0.06-2 0.07-0.6-0.5-0.1-1 1-5 6-8 8-12 5-3-2-15-14-15-16-2e-3 -1 1-3 3-5 3-3 4-6 2-8-1-0.8-2-0.2-5 3-4 4-7 5-10 2-1-1-3-2-4-1-1 0.5-2 2-1 9 0.3 4 1 9 2 9 0.7 0.8 2 1 5 0.6 4-0.6 4-0.5 12 7 9 8 12 11 14 10 0.7-0.2 2-0.4 3-0.4zm-405-25c-9-11-16-20-16-21 0-0.3-2-3-4-5-2-3-4-6-4-6 0-0.9 2-3 4-4l4-3 48 1-3-4c-5-7-6-8-11-5-5 2-5 2-7-0.5-4-4-4-6-0.8-9 5-4 14-10 15-10 1 0 8 8 8 9 0 0.4 4 5 8 11 12 16 12 15 7 19l-4 3-20-0.6c-11-0.4-20-0.6-21-0.7-0.3-0.01-2 0.03-4 0.09l-4 0.1 4 5c5 6 6 7 10 5 5-2 9-2 11 1 3 4 2 6-4 10-3 2-6 4-6 4s-2 1-3 2c-3 2-4 2-7-2zm11-4c4-2 7-4 8-4 2 0 0.9-3-1-4-2-2-2-2-7 0.02-5 2-6 2-8-0.2-4-3-10-13-10-14 0.5-1 18-1 42-0.2 8 0.4 9 0.2 11-2 2-1 3-3 3-3 0-0.5-3-5-7-10-4-5-8-11-10-13-1-2-4-5-5-7l-2-3-3 2c-6 4-12 9-12 10 0 0.6 0.7 2 2 2 1 1 2 1 6-0.4 6-2 7-2 13 7 5 6 5 9 0.9 8-5-1-46-1-48 0.2-5 3-5 3-1 8 2 3 4 5 4 6 0 0.4 3 4 6 8 3 4 7 9 9 11 1 2 3 3 3 3 0.5 0 4-2 8-4zm412-3c-9-2-19-9-23-16-4-9-0.1-22 9-28 3-2 5-3 9-2 7 1 10 3 15 9 1 2 1 3-5 12-6 9-6 10-4 11 0.9 0.7 2 1 3 1 4 0.08 10-9 10-16 0-4 1-6 4-5 3 0.8 6 9 5 15-1 8-7 16-13 18-4 2-4 2-10 0.4zm15-8c6-7 7-12 5-19-2-5-4-5-3-1 0.3 3-4 12-7 15-3 2-9 2-12-0.04-2-2-2-2-0.5-5 1-2 4-6 6-10l4-7-2-3c-5-6-14-8-20-3-7 6-10 15-8 21 2 5 8 12 15 16 5 3 7 3 12 3 5-0.4 6-0.7 10-6zm-28-11c-1-1-3-4-3-5-0.5-3-0.02-4 3-7 3-4 4-4 11-2 3 0.6 2 4-1 10-4 7-5 8-9 4zm7-6c2-3 3-5 3-5s-1-0.7-3-1c-6-1-10 5-6 10 0.9 1 2 2 2 2 0.4 0 2-2 4-5zm52-129-4-1v-6c0-3-0.4-6-0.9-6-0.5-0.3-5-0.6-11-0.7-12-0.2-12-0.06-12 8-0.01 5-0.2 5-2 5-3 0-7-4-9-8-1-4-1-10 1-14 3-5 8-6 21-5l11 0.7 1-3c1-3 2-3 5-3 4 0 5 0.6 10 6 3 3 6 7 6 8 0 3-1 5-3 5-6 0.04-7 0.9-7 7 0 9-0.3 9-7 7zm5-5c0.3-2 0.6-5 0.6-7 0.01-3 0.2-3 4-3 2-0.07 4-0.07 4 0s0.8-0.7 0.8-2c0-3-11-13-13-13-1 0-2 1-3 3l-1 3-14-0.2c-12-0.2-14 0.02-16 2-5 4-5 13-0.5 18 1 1 3 3 3 3s0.9-3 1-6c0.4-8 2-9 17-8l11 0.9 0.3 6c0.3 6 0.7 7 5 7 0.6 0.06 1-2 2-4zm-486-2c-3-0.4-3-0.8-3-3 0-2-0.3-3-0.7-3-0.4-0.03-9-1-18-3l-18-3-2 2c-2 3-6 3-6 0.6 0.02-1 0.7-6 1-12 0.8-6 1-11 1-11 0.02-0.4 1-0.7 3-0.5 3 0.3 3 0.7 3 3 0 3 0.3 3 4 4 9 1 9 2 10-7 2-11 2-11-3-11-2-0.3-5-0.8-6-1-1-0.3-3 0.4-4 3-2 3-6 4-7 2-0.2-0.7 0.3-6 1-13l2-12h3c3 0 4 0.4 4 3 0.3 3 0.6 3 14 5 24 4 24 4 25 0.6 1-2 2-3 5-2 2 0.3 4 0.6 5 0.6 1 0.01 1 3-1 19l-1 7h-4c-6 0-7-0.8-7-4 0-3-0.4-3-5-3-3-0.4-6-0.9-6-1-1-0.3-2 0.2-2 2-0.7 3-3 17-2 17 0.1 0.1 3 0.5 7 0.9 6 0.7 7 0.6 8-2 1-2 2-3 5-3 7 0.03 7 0.2 5 14-2 14-2 13-10 12zm8-12c0.7-6 0.9-10 0.6-11-1-2-4-1-5 0.8-3 5-2 4-11 3l-8-1 0.08-4c0.04-2 0.6-7 1-12l1-8 8 0.3c9 0.3 10 1 11 5 0.3 2 0.9 3 3 3l3 0.3 1-9c0.7-5 1-10 2-11 0.5-2 0.07-2-3-3-3-0.4-3-0.06-4 2-0.5 1-1 3-2 3-1 0.6-39-5-41-6-0.5-0.3-0.9-2-0.9-3 0-3-2-3-2-0.2-1 6-3 19-2 19 0.3 0.3 1-0.9 2-3 1-2 2-3 3-3 3 0.02 14 2 15 2 0.9 0.9-3 23-4 23-0.6 0.2-5-0.03-9-0.6l-8-1v-3c0-7-2-3-3 6-2 12-2 12 0.7 10l2-2 18 3c20 3 23 4 23 6-0.3 3-0.04 3 3 3h3zm437-27c-5-2-9-8-10-14-1-7-1-17 0.2-19 2-2 12-4 13-3 0.5 0.5 1 3 2 5 1 4 5e-3 7-3 7-3 0-0.6 11 3 13 3 0.9 4-1 4-10 0.02-13 3-18 12-19 6-0.8 11 2 15 7 2 3 5 15 4 17-0.3 0.6 0.08 2 1 3 3 4 2 5-5 7-9 3-10 3-11-1-1-5-0.7-8 2-9 2-1 2-2 1-6-1-5-4-7-5-5-0.5 0.8-1 5-1 10-0.02 13-3 17-13 19-3 0.4-5-0.03-8-1zm12-2c5-2 6-5 6-16 0.2-5 0.6-10 0.9-11 0.8-1 7-1 8 0.4 2 2 3 11 3 12-0.4 0.7-2 2-2 2-1 1-2 2-1 4 0.3 2 0.7 3 0.8 3 0.2 0.2 5-1 10-3 1-0.4 1-0.8 0.2-2-0.6-0.6-1-4-1-7-8e-3 -8-2-12-5-17-3-3-4-4-8-4-9 0.04-12 5-12 18 0.2 8-0.01 8-2 10-3 3-5 2-8-2-3-5-3-13-0.2-14 2-0.9 2-2 1-4-0.3-2-0.8-3-1-3-0.2-0.2-3 0.4-5 1-6 2-6 2-4 14 1 8 4 13 8 15 3 2 9 2 13 0.6zm-442-29c-3-1-4-2-4-4 0-3-0.4-3-8-7-8-3-8-3-12-2-2 0.9-5 1-6 1-2-0.3-2-1-3-5-0.5-7 0.8-17 2-17 0.8 0 4 1 7 3 3 1 10 4 15 6 8 3 10 4 11 2 3-3 11-0.6 11 3 0 0.8-2 6-4 11-4 10-5 11-11 8zm7-7c1-3 2-6 3-6 0.4-0.6 1-2 2-4 0.9-2 0.8-3-2-4-2-0.8-3-0.6-4 0.5-2 2-5 2-9 0.1-2-0.8-5-2-8-4-3-1-5-2-5-2s-3-1-6-3c-3-1-6-2-6-2s-0.5 4-0.7 8c-0.4 9 0.4 10 5 7 4-2 6-2 15 2 9 4 10 5 9 7-0.3 0.8 0.3 2 1 3 3 2 5 2 7-4zm404-8c-5-3-7-9-4-13 2-2 2-3-2-4-5-2-8-7-8-13 0-4 0.5-5 4-9 4-4 4-4 11-4 7 0.4 7 0.4 12 6 3 3 6 7 7 8 1 2 1 2 3 0.3 2-2 2-6 0.5-9-1-2-2-2-5-2-4 0.4-4 0.2-6-3-4-7-2-10 6-10 10 9e-3 20 11 20 23 0 6-2 10-7 12-1 0.8-7 4-12 6-8 4-9 5-9 7 0.3 2-0.06 3-1 4-3 2-4 2-9-1zm8-4c-0.2-1-0.04-3 0.4-3 0.4-0.6 6-3 12-6 12-6 16-9 16-15-0.06-6-6-16-12-19-3-2-10-2-12-0.4-0.3 0.3 0.2 2 1 4 2 3 2 3 4 3 4-1 5-1 7 2 5 6 3 15-3 15-2 0-3-0.3-3-0.8 0-1-8-11-11-13-8-6-19-0.2-19 9 0 4 4 9 9 11 5 2 6 3 3 5-4 3-2 9 3 12 4 2 6 0.8 5-3zm-7-15c-7-6-5-15 3-15 3 0 13 9 12 11-0.7 2-8 6-10 6-1-0.01-3-0.8-4-2zm8-2 4-2-2-3c-1-2-4-4-5-5-2-1-3-1-5 0.4-1 1-2 3-2 3 0 1 5 8 6 8 0.3 0 2-0.9 5-2zm-468 11-3-1 0.6-6c0.3-3 0.8-7 1-8 1-3 12-0.05 14 4 2 5-2 13-7 13-1-0.02-4-0.7-6-1zm9-2c1-1 2-3 2-5 0-3-0.4-4-5-5-2-0.9-5-1-5-1s-0.7 3-0.7 6c-0.02 5 0.2 6 2 6 4 1 4 1 6-1zm58-12c-4-3-18-13-27-20-11-8-12-9-14-8-3 1-7 1-8-0.4-1-1-0.8-3 1-10 1-5 3-9 3-10 1-1 5 0.7 13 7 4 3 8 6 8 6 0.7 0.5 0.9-0.1 0.7-2-1-9 7-18 16-18 8 0 17 6 24 15 4 5 4 6 4 11 0 9-4 15-11 18-3 1-3 2-3 5 0.3 3-1 7-3 7-0.3-3e-3 -2-0.8-3-2zm4-6c-0.3-4-0.1-5 3-6 7-2 12-9 12-16 0-10-15-24-26-24-4-0.04-5 0.5-9 4-4 4-5 5-5 10-0.1 5-0.6 6-2 6-0.9 0.2-6-3-10-7-5-4-9-7-10-7-1-0.02-5 15-4 16 0.6 0.6 2 0.5 4-0.2 4-2 6-0.7 16 6 5 3 12 9 16 12 4 3 9 7 11 8 5 4 6 3 5-2zm-14-15c-10-7-11-9-7-15 4-6 6-7 12-5 5 2 13 9 15 11 2 4-4 15-9 15-0.9 0-6-3-11-7zm13 2c6-6 6-9 0.05-14-7-5-12-8-15-7-2 2-6 8-6 9 0.3 1 16 13 18 13 0.3 0.02 1-1 3-2zm359-10c-2-0.5-6-3-9-6-10-10-10-21 2-32 12-11 26-11 36-0.3 2 3 5 7 6 9 5 16-17 35-35 30zm18-4c7-3 15-12 15-17 0.4-2 0.2-5-0.3-7-2-5-7-12-11-13-9-4-16-3-25 3-13 10-14 21-3 31 7 7 14 7 24 3zm-20-8c-6-6-3-13 10-22 4-3 9-3 12 0.06 6 6 5 11-2 18-10 9-15 10-21 5zm10 0.2c3-2 12-10 14-13 1-2 1-3-2-6-2-2-4-4-5-4-3-0.6-13 7-17 13-2 3-1 5 3 9 3 2 4 2 7 0.9zm-339-3c-3-4-3-4-1-6 2-2 2-2-9-14-0.5-0.5-3-1-6-2-8-0.8-8-2-3-12 2-5 5-9 6-9 0.7 0 4 3 8 7 3 4 7 8 8 9s3 4 5 6c3 3 3 3 6 3 3-0.9 3-0.6 6 2 2 2 3 4 2 5-0.8 2-16 15-17 15-0.5 0-2-2-4-4zm9-2c2-2 6-5 7-6 3-3 3-3 2-6-1-2-2-2-4-2-1 0.5-3 1-3 1-0.5 0-6-6-12-12-6-7-11-12-11-12-1 0-8 14-7 15 0.3 0.5 2 0.8 4 0.5 4-0.6 7 1 11 6 2 2 4 5 6 7 3 3 3 3 1 5-2 2-2 2 0.1 4 1 1 2 3 2 3 0.3 0.01 2-1 4-3zm289-17c-1-1-4-3-6-3-5-1-15-8-19-12-6-8-6-16-0.9-26 4-9 11-17 18-21 5-3 6-4 13-4 9 0.05 15 3 22 10 3 3 6 5 8 5 5 1 6 3 2 8-2 2-4 6-6 9-4 5-5 6-10 2-2-2-3-3-2-5 0.4-1 0.9-4 1-5 1-5-9-13-15-11-4 0.9-9 6-14 14-6 10-7 13-5 16 2 3 5 6 11 8 4 1 4 1 7-2 2-2 4-3 5-3 2 0 8 4 8 6 6e-3 1-11 16-13 17-0.4 0.1-2-0.8-3-2zm5-4c1-1 3-4 5-6l3-4-2-2c-3-2-4-2-7 0.7-3 3-6 3-12 0.1-6-3-10-8-10-11 0.04-5 8-18 15-26 6-6 14-5 22 2 4 5 5 5 3 10-1 4-1 4 1 6 1 1 3 2 3 2 3-3 10-15 10-16-0.3-0.4-2-1-3-1-2-0.3-4-2-6-4-4-5-9-8-16-10-11-3-21 2-31 17-7 10-8 17-6 24 2 6 16 17 22 17 1 0 3 0.9 4 2 2 3 3 3 6-0.6zm-276-2c-2-2-6-9-6-10 0-0.5 2-2 4-3 4-2 5-2 6-0.7 3 2 4 2 8-0.8 4-3 5-6 2-7-0.9-0.4-4 0.3-8 2-8 3-16 3-19 0.03-4-3-5-8-4-14 0.9-7 6-12 14-15 3-1 6-3 7-4 0.6-0.8 2-1 3-1 2 0 5 3 5 5 0 0.5 1 2 2 3 3 3 3 5-2 8-4 3-4 3-7 1-3-2-3-2-7 0.3-4 2-6 4-3 6 1 1 3 0.9 7-0.5 13-4 15-4 19-1 6 4 9 12 6 19-2 5-8 10-19 14-7 3-8 3-10 0.3zm10-3c13-5 19-12 18-19-0.7-4-3-7-7-9-3-2-3-2-11 0.8-10 3-12 3-15 0.9-3-3-2-5 2-8 4-3 7-4 10-2 1 0.8 3 0.8 5-0.1 2-0.7 3-1 3-2 0-1-6-10-7-10-0.4 0-1 0.7-1 1-0.3 0.8-2 2-5 3-5 1-13 6-14 9-2 5-2 10-0.8 13 3 7 9 8 19 4 7-2 12-3 13-0.5 4 5-10 16-15 11-0.9-0.9-2-0.8-4 0.1-2 0.7-3 2-3 2 0 1 5 9 6 9 0.4 0 3-1 7-2zm-66-12c-1-0.5-3-3-4-4-3-4-2-6 2-11 4-4 8-4 12 0.9 4 5 5 9 0.3 13-3 3-6 3-9 1zm8-3c3-3 3-5-0.6-9-4-4-5-4-9-1-3 3-3 6 0.6 10 4 4 5 4 9 0.7zm98-7c-3-0.9-10-8-12-13-1-3-3-8-3-12-1-6-1-7 0.6-12 3-7 11-13 21-13 9-0.9 14 3 14 10 0 3-0.4 4-3 5-4 1-7 1-11-0.3-2-1-3-1-5-0.2-2 1-2 2-2 6 0.2 7 5 16 8 17 3 0.8 9-2 14-7 4-4 6-3 6 2 0 6-3 11-9 14-5 3-13 4-17 3zm16-5c5-3 7-6 8-11l0.6-4-6 4c-8 6-13 7-17 3-3-3-6-11-7-17-0.5-3-0.3-4 1-6 3-3 7-4 10-2 7 4 14-2 9-7-5-5-17-3-25 4l-4 4 0.06 9c0.05 7 0.6 10 2 14 3 6 8 12 12 13 4 0.7 10-0.4 15-3zm101-6c-3-0.7-7-2-10-4-5-2-5-2-4-6 0.3-2 0.6-5 0.6-6 0.01-3 2-4 8-3 4 0.6 4 0.9 4 4 0 2 0.5 3 4 4 6 2 10 1 10-2 0.3-2-0.6-3-6-5-9-4-10-5-14-8-3-3-3-3-3-9 0.3-3 1-7 2-8 3-5 16-7 24-4 2 0.9 6 2 8 2l4 0.5-0.7 7c-0.4 4-0.9 7-1 8-0.5 0.9-7 1-10 0.1-0.9-0.4-2-2-2-3 0-3-0.5-3-4-4-5-1-7-0.4-7 3 0 1 2 3 7 5 9 4 13 7 14 13 2 12-10 20-25 16zm17-3c4-2 6-6 6-11 0-6-3-9-13-13-8-3-10-5-8-9 1-3 4-4 9-3 5 1 7 2 7 5 0 3 2 4 6 4 2 0 2-0.4 2-4 0-2 0.3-5 0.6-6 0.4-1-0.01-2-2-2-1-3e-4 -5-0.9-8-2-6-2-12-3-17-0.6-5 2-6 4-7 10-0.7 5-0.6 5 3 9 2 2 6 4 8 5 7 2 10 5 10 8 0 4-2 5-7 5-6 0-11-2-11-5 0-2-0.7-2-3-3-4-0.8-5-0.2-5 5-0.3 4-0.2 4 4 7 2 1 6 2 7 2 1 0.04 3 0.5 5 1 2 1 9 0.2 13-2zm-83-0.9c-4-2-7-10-7-19-0.09-10-1-14-4-16-2-1-2-2-2-6v-4l4-0.8c2-0.4 7-0.7 9-0.5l4 0.3 1 16c1 17 2 19 8 19 6-0.06 7-2 6-13-0.7-10-0.7-11-4-12-3-0.9-3-1-3-6v-5l8-0.5c12-0.8 11-2 12 16l0.9 16 4 2c3 2 4 2 4 4-0.3 2-2 3-8 6-10 5-11 5-11 0.3 0-4-0.9-4-3-2-2 3-9 6-12 6-2-0.02-5-0.7-6-1zm12-2c2-0.9 5-3 6-4 3-5 5-4 6 3 0.2 1 1 1 8-2 4-2 7-4 7-5s-2-2-4-2c-4-1-4-1-5-19l-0.8-14-14-0.6v3c0 2 0.7 3 3 5 3 1 3 2 3 8 1 14 1 17-1 19-5 4-13 3-14-2-0.3-0.8-1-8-2-16-1-17-0.5-16-10-14-4 0.6-5 0.8-5 4 0 3 0.4 3 2 4 3 0.4 4 3 4 14 0.4 11 3 19 7 21 4 1 6 1 10-0.5z" style="fill:#018e74;stroke-width:.1"/>
</svg>
