<svg xmlns="http://www.w3.org/2000/svg" width="593.432" height="593.369"><path d="M268.538 592.284c-26.048-3.193-34.181-4.448-45.067-6.955-12.125-2.792-35.746-9.892-39.933-12.004-1.375-.693-6.55-2.936-11.5-4.984-7.6-3.144-21.684-10.11-31.5-15.58-7.829-4.362-36.18-24.405-36.833-26.04-.184-.459-.726-.834-1.205-.834-.48 0-3.307-2.363-6.283-5.25-2.976-2.888-6.934-6.637-8.795-8.332-3.84-3.497-18.11-18.618-21.884-23.19-5.298-6.416-18.498-23.878-21-27.78-4.917-7.67-13-21.57-13-22.356 0-.509-.337-1.075-.75-1.259-.412-.183-1.83-2.583-3.148-5.333-1.32-2.75-2.86-5.9-3.425-7-2.308-4.498-5.01-10.12-5.765-12-.443-1.1-1.77-4.475-2.952-7.5-1.18-3.025-2.58-6.592-3.112-7.926-2.975-7.476-7.75-23.481-8.754-29.346-.638-3.725-1.603-7.938-2.145-9.363-.542-1.425-2.102-11.373-3.467-22.107-2.907-22.862-3.315-48.556-1.055-66.457.785-6.215 1.736-14.226 2.114-17.801 2.04-19.333 11.63-54.317 20.42-74.5 1.45-3.33 14.073-28.854 15.349-31.036 2.875-4.917 11.122-18.01 11.63-18.464.308-.275 2.553-3.425 4.988-7 2.435-3.575 5.215-7.4 6.177-8.5.963-1.1 4.584-5.375 8.048-9.5 11.762-14.005 27.817-29.18 44.833-42.37 9.971-7.732 21.42-15.63 22.654-15.63.315 0 2.212-1.259 4.216-2.797 2.004-1.539 6.57-4.314 10.144-6.167 3.575-1.853 6.725-3.655 7-4.005.275-.35 2.3-1.433 4.5-2.407 2.2-.975 6.025-2.813 8.5-4.085 2.475-1.272 5.625-2.647 7-3.056 1.375-.41 4.3-1.518 6.5-2.463 5.469-2.35 14.176-5.6 19-7.09 2.2-.68 5.8-1.847 8-2.593 2.2-.747 6.025-1.774 8.5-2.283 2.475-.51 6.3-1.397 8.5-1.972C238.725 3.387 270.64.049 291.68 0c27.755-.065 79.011 8.303 97.358 15.895 1.1.455 3.35 1.282 5 1.839 13.872 4.678 32.61 12.775 33.333 14.403.184.412.941.75 1.684.75 4.115 0 43.004 25.852 55.92 37.173 15.508 13.594 34.724 34.114 44.174 47.173 3.64 5.03 13.794 19.669 14.89 21.467.55.903 2.829 4.577 5.065 8.164 5.467 8.772 18.322 35.298 19.88 41.023.662 2.434.96 3.233 3.54 9.5 1.477 3.585 5.875 17.58 7.072 22.5 2.368 9.74 3.16 13.635 5.483 27 2.689 15.462 4.317 41.015 3.76 59-.368 11.835-4.54 45.13-6.894 55-3.272 13.72-4.332 17.493-9.276 33-3.433 10.768-5.069 15.254-7.477 20.5-3.013 6.564-15.42 31.44-16.955 33.996-2.594 4.319-14.233 22.033-14.786 22.504-.323.275-3.145 3.977-6.272 8.227-3.127 4.25-6.688 8.793-7.913 10.096l-7.478 7.956c-2.887 3.072-5.25 6.066-5.25 6.653 0 .588-.409 1.068-.908 1.068-.5 0-2.895 1.912-5.323 4.25-10.733 10.333-33.023 28.75-34.795 28.75-.384 0-2.285 1.237-4.223 2.75-3.88 3.027-4.929 3.758-12.25 8.538-11.777 7.687-31.394 17.7-45.5 23.222-2.476.969-5.96 2.395-7.743 3.169-1.783.774-7.858 2.774-13.5 4.443-5.642 1.67-11.158 3.436-12.258 3.925-1.1.489-5.6 1.549-10 2.354-4.4.806-8.675 1.709-9.5 2.006-.825.298-7.8 1.44-15.5 2.54-18.64 2.661-50.88 3.364-66.5 1.45zm61-3.312c10.911-1.113 25.038-3.651 28.5-5.122 1.1-.467 4.025-1.151 6.5-1.52 2.475-.368 4.95-1.01 5.5-1.425.55-.416 3.475-1.327 6.5-2.026 6.846-1.58 22.173-6.864 23.45-8.085.523-.499 1.56-.907 2.305-.907 4.52 0 33.476-15.134 49.584-25.915 5.412-3.622 10.927-7.3 12.256-8.175 1.329-.874 3.705-2.738 5.28-4.141 1.575-1.404 4.16-3.373 5.745-4.377 1.584-1.005 4.23-3.19 5.88-4.86 1.651-1.667 4.659-4.27 6.684-5.782 2.026-1.513 5.993-5 8.816-7.75 2.824-2.75 5.565-5 6.092-5 .527 0 1.385-1.125 1.908-2.5.523-1.375 1.381-2.5 1.908-2.5.527 0 1.245-.907 1.597-2.015.351-1.108 1.057-1.756 1.567-1.44.51.315.933.209.939-.236.006-.445 2.091-3.059 4.634-5.809s7.112-8.375 10.153-12.5c3.04-4.125 5.81-7.725 6.156-8 .732-.584 10.187-14.795 11.31-17 .42-.825 2.094-3.75 3.72-6.5 2.999-5.07 11.77-22.46 16.394-32.5 2.739-5.948 7.857-20.458 10.053-28.5.75-2.75 1.85-6.35 2.442-8 2.657-7.402 6.227-25.572 8.547-43.5 2.2-17.002 2.471-22.254 2.112-41-.427-22.344-.95-30.697-2.504-40-3.41-20.41-4.229-24.72-5.037-26.5-.499-1.1-1.414-4.025-2.033-6.5-2.08-8.316-6.243-21.328-8.477-26.5-.713-1.65-2.078-5.025-3.033-7.5-2.39-6.192-17.402-36.352-18.411-36.986-.45-.283-1.856-2.539-3.125-5.014-2.243-4.375-9.124-14.28-14.339-20.637-1.415-1.726-2.573-3.6-2.573-4.167 0-.566-.356-1.18-.792-1.363-.67-.282-8.44-9.6-14.41-17.283-5.353-6.888-29.795-29.665-38.706-36.07-25.707-18.475-38.05-25.812-60.592-36.02-7.532-3.41-27.497-10.558-37-13.247-13.374-3.783-16.107-4.342-35.5-7.255-31.693-4.761-48.706-5.517-76-3.374-13.112 1.03-44.57 6.697-52 9.368-1.375.495-5.875 1.887-10 3.095-4.125 1.208-7.927 2.591-8.45 3.074-.522.484-1.58.879-2.349.879-.77 0-3.042.72-5.05 1.602-2.008.881-4.55 1.954-5.65 2.385-7.622 2.983-22.185 9.963-30.462 14.6-10.127 5.673-30.567 18.942-34.039 22.096-.825.75-3.3 2.717-5.5 4.373-10.696 8.048-35.812 32.121-43.76 41.944a6633.302 6633.302 0 01-8.691 10.706c-2.777 3.414-5.049 6.676-5.049 7.25 0 .574-.337 1.05-.75 1.059-.412.008-2.325 2.701-4.25 5.985-1.925 3.284-3.837 5.977-4.25 5.985-.412.008-.75.508-.75 1.11 0 .603-1.012 2.506-2.25 4.23-2.696 3.755-4.454 6.642-5.283 8.675-.336.825-1.023 2.175-1.525 3-1.64 2.692-9.614 19.64-12.584 26.75-4.613 11.04-5.633 13.824-7.972 21.75-.812 2.75-1.907 5.9-2.435 7-.527 1.1-1.402 4.397-1.943 7.327-.542 2.93-1.19 5.66-1.44 6.064-1.15 1.859-4.604 21.264-6.696 37.609-3.995 31.223-2.76 69.567 3.06 95 1.007 4.4 2.128 9.8 2.49 12 .363 2.2 1.055 5.125 1.539 6.5.483 1.375 1.668 5.2 2.632 8.5 1.593 5.453 7.18 21.07 9.3 26 3.386 7.866 9.786 21.341 11.4 24 1.003 1.65 5.865 10.08 11.296 19.581.599 1.048 1.768 2.696 2.598 3.662.83.966 1.766 2.432 2.08 3.257.72 1.888 12.417 17.544 19.893 26.625 10.195 12.383 31.008 32.903 41.34 40.758 3.3 2.509 6.45 4.918 7 5.354 3.45 2.735 11.359 8.263 11.82 8.263.305 0 3.512 2.025 7.127 4.5 3.615 2.475 6.836 4.5 7.159 4.5.322 0 1.78.844 3.24 1.876 7.662 5.415 33.646 17.11 53.154 23.924 10.149 3.545 11.137 3.793 36.5 9.172 11.876 2.519 24.434 4.187 25.687 3.413.552-.342 1.973-.133 3.159.462 5.482 2.757 40.713 2.882 66.654.238zm-49.027-3.443c-.29-.291-4.364-.614-9.055-.717-8.43-.186-24.37-2.444-38.918-5.514-13.328-2.812-46.645-13.057-49.079-15.091-.868-.726-2.302-1.32-3.186-1.32-2.642 0-38.91-18.775-40.735-21.087-.275-.349-2.033-1.42-3.906-2.38-1.873-.96-3.898-2.144-4.5-2.631-.602-.487-4.694-3.52-9.094-6.739-4.4-3.22-8.857-6.823-9.905-8.008-1.048-1.185-2.25-2.155-2.673-2.155-.422 0-2.043-1.238-3.601-2.75-1.559-1.513-4.856-4.48-7.327-6.596-7.525-6.44-15.208-14.01-21.058-20.746-7.636-8.793-20.181-24.729-22.513-28.597-1.058-1.753-4.155-6.478-6.883-10.5-2.728-4.02-7.13-11.503-9.782-16.626-2.652-5.123-5.237-10.073-5.746-11-1.852-3.378-7.012-15.35-7.012-16.268 0-.52-.428-1.726-.951-2.68-2.301-4.2-7.684-19.224-11.37-31.737-2.466-8.37-7.194-33.034-8.34-43.5-1.86-16.991-1.789-48.837.143-64.514 2.404-19.506 6.742-40.968 9.498-46.986.504-1.1 1.421-4.588 2.039-7.75.618-3.163 1.541-5.75 2.052-5.75.511 0 .93-.945.93-2.099 0-1.154.708-3.742 1.573-5.75.866-2.008 2.26-5.226 3.1-7.151.839-1.925 2.09-4.85 2.781-6.5 3.815-9.115 13.905-28.52 18.838-36.23 1.489-2.327 2.707-4.476 2.707-4.776 0-.908 16.205-22.969 17.136-23.327.475-.184.864-.746.864-1.25 0-.505.788-1.73 1.75-2.723.963-.993 3.325-3.717 5.25-6.054 9.93-12.053 36.094-36.332 47.41-43.993 2.15-1.456 4.9-3.322 6.11-4.147 29.773-20.287 48.588-29.133 88.48-41.6 7.42-2.318 27.738-6.448 40-8.13 11.036-1.515 41.928-2.238 60.5-1.416 7.868.348 22.222 2.584 36 5.61 3.85.844 8.057 1.536 9.349 1.536 1.292 0 3.767.641 5.5 1.425s7.201 2.602 12.151 4.039c4.95 1.437 10.8 3.331 13 4.21 34.636 13.834 61.259 29.23 84.433 48.826 8.874 7.504 27.05 25.288 33.246 32.531 12.03 14.06 31.821 41.68 31.821 44.406 0 .415.83 1.949 1.846 3.409 3.509 5.045 12.902 24.545 17.656 36.654 1.512 3.85 3.142 7.427 3.623 7.95.481.522.875 1.766.875 2.764 0 .997.428 2.594.95 3.55 1.43 2.613 6.857 24.428 9.513 38.236 5.079 26.403 6.158 63.399 2.596 89-3.163 22.726-4.701 31.103-6.888 37.5-.565 1.65-2.9 8.85-5.189 16-3.927 12.265-5.24 15.822-8.487 23-.747 1.65-1.674 4.125-2.061 5.5s-.98 2.725-1.319 3c-.338.275-2.175 3.875-4.08 8-1.907 4.125-3.982 8.175-4.612 9-.63.825-1.97 3.412-2.977 5.75-1.007 2.337-2.194 4.25-2.638 4.25-.444 0-.808.637-.808 1.417 0 .779-.337 1.566-.75 1.75-1.134.504-5.25 6.607-5.25 7.785 0 .93-2.475 4.212-5.702 7.562-.662.686-.924 1.526-.584 1.867.34.34.125.619-.48.619-.604 0-1.36.82-1.677 1.82-.318 1.002-1.832 3.14-3.365 4.75-1.532 1.612-5.519 6.305-8.859 10.43-15.207 18.781-45.508 45.53-62.833 55.465-2.75 1.577-6.35 3.861-8 5.076-6.082 4.478-22.067 12.655-38 19.44-2.75 1.17-5.9 2.52-7 2.998-2.55 1.11-19.048 6.543-23 7.575-3.39.885-3.444.902-5.5 1.705-1.988.777-17.076 4.336-24 5.661-14.948 2.862-62.395 6.36-64.027 4.722zm26.527-3.045c6.05-.232 15.5-.936 21-1.566 8.895-1.017 13.797-1.95 33-6.27 2.75-.62 5.428-1.494 5.95-1.944.523-.45 1.758-.817 2.746-.817 1.635 0 11.4-2.967 16.304-4.953 1.1-.446 5.375-2.051 9.5-3.567 10.78-3.964 15.64-6.19 35-16.033 1.925-.979 7.1-4.102 11.5-6.941 4.4-2.84 9.414-6.027 11.143-7.084 2.756-1.686 10.767-7.602 16.711-12.34 13.585-10.83 31.666-28.53 40.947-40.082 3.314-4.125 6.55-7.95 7.19-8.5.641-.55 2.89-3.475 5-6.5 2.108-3.025 4.885-6.893 6.171-8.594 1.286-1.702 2.338-3.361 2.338-3.687 0-.326 1.932-3.434 4.293-6.906 2.36-3.472 5.073-7.888 6.027-9.813.955-1.925 2.165-4.175 2.69-5 1.662-2.61 12.448-26.064 14.947-32.5 1.886-4.86 6-17.596 10.176-31.5 1.909-6.355 6.153-30.058 7.341-41 .329-3.025.854-14.275 1.168-25 .853-29.164-2.771-56.918-11.1-85-.896-3.025-2.099-7.3-2.671-9.5-1.226-4.708-1.876-6.44-4.735-12.61-1.175-2.535-2.136-5.09-2.136-5.677 0-.587-1.473-3.913-3.273-7.39-1.8-3.478-4.57-9.248-6.157-12.823-1.587-3.575-4.04-8.3-5.453-10.5-1.412-2.2-3.34-5.681-4.287-7.735-1.462-3.178-15.073-23.277-16.77-24.765-.314-.275-3.117-3.875-6.23-8-9.606-12.73-26.166-29.945-36.926-38.386-1.322-1.038-4.879-3.971-7.904-6.52-3.025-2.547-7.184-5.748-9.243-7.113-2.059-1.364-3.746-2.819-3.75-3.231-.004-.413-.612-.75-1.352-.75-.74 0-2.16-.9-3.155-2-.995-1.1-2.208-2-2.695-2-.926 0-6.913-3.98-7.84-5.211-.294-.391-2.094-1.433-4-2.316-1.906-.882-5.265-2.629-7.465-3.881-9.173-5.224-15.86-8.592-17.057-8.592-.702 0-1.426-.338-1.61-.75-.708-1.594-27.792-11.943-39.833-15.22-2.475-.674-5.258-1.617-6.184-2.095-.927-.479-4.302-1.307-7.5-1.841-3.199-.534-11.216-2.092-17.816-3.462-33.36-6.924-78.92-5.336-116 4.045-5.5 1.392-11.575 2.892-13.5 3.333-9.634 2.212-40.856 14.668-50.387 20.102-1.038.592-3.288 1.86-5 2.817-15.176 8.49-21.617 12.474-28.82 17.828-3.14 2.334-6.177 4.243-6.75 4.243-.574 0-1.043.352-1.043.781 0 .43-3.487 3.566-7.75 6.968-16.162 12.902-26.734 23.326-40.316 39.751-2.274 2.75-4.957 5.978-5.961 7.173-1.004 1.196-2.636 3.446-3.626 5-.99 1.555-2.082 3.052-2.426 3.327-1.23.983-14.027 21.168-17.606 27.772-4.538 8.372-9.396 18.18-12.247 24.728-1.197 2.75-2.573 5.9-3.058 7-3.528 8.012-5.01 11.983-5.01 13.427 0 .92-.42 2.1-.932 2.623-.512.522-1.595 3.65-2.405 6.95-2.641 10.752-4.714 18.922-5.836 23-5.267 19.14-8.065 58.338-5.844 81.85 1.755 18.567 1.733 18.398 3.912 30.65 4.661 26.21 11.889 47.99 24.888 75 15.899 33.034 41.867 66.79 68.717 89.328 4.4 3.693 9.65 8.09 11.665 9.77 2.015 1.682 6.515 5.031 10 7.444 3.484 2.413 6.785 4.763 7.335 5.222.55.46 2.551 1.713 4.447 2.786 1.896 1.072 4.37 2.716 5.5 3.652 2.96 2.454 22.322 12.558 34.553 18.032 2.475 1.108 5.695 2.633 7.154 3.39 1.46.757 3.416 1.376 4.346 1.376.93 0 2.886.633 4.346 1.406 3.742 1.982 10.947 4.363 15.654 5.173 2.2.379 5.125 1.228 6.5 1.888 1.375.66 5.2 1.775 8.5 2.48 3.3.704 8.486 1.868 11.524 2.588 3.038.72 9.325 1.828 13.972 2.464 4.646.637 8.762 1.352 9.147 1.59.385.237 7.597.692 16.028 1.01 8.431.319 15.495.743 15.697.942.203.199 1.553.163 3-.08 1.448-.244 7.582-.632 13.632-.864zm-19.306-30.874c-8.965-22.612-9.42-23.498-12.498-24.377-2.93-.835-3.22-1.293-3.496-5.508-.35-5.355-1.063-5.004 14.128-6.947 11.275-1.442 11.631-1.262 11.657 5.891.011 3.204-.439 4.463-1.788 5-1.665.663-1.416 1.93 3.24 16.468 2.773 8.662 5.284 15.75 5.579 15.75.5 0 4.066-28.557 4.01-32.105-.015-.944-1.365-1.988-3.276-2.533-3.004-.857-3.273-1.28-3.553-5.612-.272-4.198-.064-4.736 2-5.176 5.15-1.097 23.946-2.733 25.324-2.204 1.034.397 1.48 2.08 1.48 5.599 0 4.375-.263 5.031-2.014 5.031-1.947 0-1.96.124-.401 3.75.887 2.062 2.011 5.1 2.498 6.75.488 1.65 1.289 3.9 1.781 5 1.631 3.643 3.99 9.946 5.17 13.817.64 2.1 1.393 3.589 1.672 3.31.28-.28.656-3.347.838-6.818.182-3.47.627-10.93.99-16.577l.66-10.268-3.097-1.08c-2.886-1.006-3.098-1.41-3.098-5.902 0-5.597-.309-5.454 14.172-6.55l8.672-.656.681 4.541c.737 4.918.18 6.683-2.109 6.683-1.996 0-3.095 3.3-3.847 11.55-.348 3.822-1.606 14.466-2.796 23.652l-2.162 16.703-5.555.669c-10.608 1.277-10.06 1.476-12.577-4.574-5.15-12.38-10.479-26.795-10.479-28.346 0-.91-.354-1.654-.786-1.654-.432 0-1.85 8.297-3.152 18.437-1.301 10.14-2.635 18.868-2.964 19.394-.329.527-3.973 1.272-8.099 1.657l-7.501.7zm22.837 19.172c.292-.442 1.605-9.399 2.918-19.904 1.974-15.794 2.697-19.266 4.177-20.058 1.37-.733 2.035-.501 2.832.989.573 1.07 1.042 2.639 1.042 3.485 0 .847.882 3.464 1.96 5.816 1.079 2.352 3.763 9.174 5.967 15.16 2.203 5.986 4.199 11.076 4.434 11.312.236.235 3.07.13 6.297-.236l5.868-.664 1.827-14.147c1.005-7.782 2.005-16.848 2.223-20.148.673-10.18 2.376-16.675 4.52-17.235 3.475-.91 2.065-7.533-1.45-6.81-1.18.244-5.183.726-8.896 1.073-6.537.611-6.75.717-6.75 3.371 0 2.131.722 3.058 3.25 4.17 3.699 1.628 3.519-.019 2.4 21.931-.759 14.914-1.617 19.5-3.647 19.5-.745 0-2.221-2.25-3.28-5-1.06-2.75-2.33-5.9-2.82-7-2.525-5.655-8.903-24.027-8.903-25.641 0-1.192.717-1.859 2-1.859 2.298 0 2.69-2.73.75-5.225-1.026-1.319-2.146-1.453-6.25-.75-2.75.47-7.25.89-10 .93-2.75.042-5.521.407-6.158.813-1.744 1.11-.442 6.232 1.584 6.232.93 0 2.504.594 3.497 1.32 1.722 1.26 1.732 1.868.205 13.25-.88 6.561-1.85 14.855-2.154 18.43-1.194 14.02-3.34 13.512-8.46-2-9.012-27.31-9.136-27.894-6.06-28.698 1.594-.417 1.844-1.092 1.357-3.657-.33-1.73-.646-3.211-.704-3.293-.059-.08-2.582.217-5.607.662-3.025.445-7.664 1.106-10.31 1.468-4.456.61-4.786.85-4.5 3.261.224 1.878 1.146 2.875 3.31 3.58 3.653 1.19 3.686 1.239 7.54 11.177 1.705 4.4 3.487 8.9 3.959 10 1 2.331 4.936 12.543 7.97 20.673l2.117 5.674 5.707-.574c3.14-.316 5.946-.936 6.238-1.378zm-104.03-12.584c-1.926-.25-3.928-.872-4.45-1.382-.523-.511-1.726-.929-2.674-.929-2.25 0-7.587-4.524-9.283-7.87-2.207-4.351-2.725-11.21-1.218-16.13 3.522-11.499 8.635-18.13 16.23-21.054 3.078-1.184 10.487-.628 16.394 1.23 8.768 2.759 13.607 9.715 12.71 18.269-.582 5.537-3.594 14.262-6.64 19.226-3.738 6.094-12.619 9.736-21.07 8.64zm12.746-4.43c6.338-3.069 10.996-11.592 12.827-23.47.936-6.072-2.352-11.983-8.072-14.513-6.344-2.806-12.953-3.825-17.435-2.687-13.419 3.406-21.371 29.615-11.488 37.862 5.847 4.88 17.17 6.195 24.168 2.807zm-16.004-6.618c-3.739-2.353-4.051-3.93-2.359-11.91 1.975-9.309 4.207-14.21 7.067-15.513 3.197-1.456 8.922-.284 12.144 2.488 2.443 2.101 2.558 2.597 1.876 8.059-.41 3.28-2.09 8.502-3.849 11.967-3.077 6.058-3.186 6.15-7.622 6.395-2.912.161-5.473-.363-7.257-1.486zm12.658-5.513c1.401-2.888 3.05-7.63 3.665-10.538 1.297-6.144.62-7.5-4.597-9.222-6.225-2.055-9.22 1.39-11.805 13.581l-1.47 6.929 2.459 2.25c1.532 1.402 3.73 2.25 5.83 2.25 3.075 0 3.593-.459 5.918-5.25zm167.687 14.864c-4.817-1.741-8.088-6.901-8.088-12.758 0-5.77 4.14-11.801 11.225-16.356 5.37-3.452 5.786-4.792 2.213-7.133-2.39-1.566-2.795-1.567-6.044-.018-3.211 1.531-3.433 1.923-2.851 5.026.555 2.959.258 3.63-2.454 5.562-4.599 3.274-8.17 2.482-9.946-2.207-1.277-3.368-1.246-4.176.293-7.587 2.393-5.307 5.244-8.327 11.056-11.71 4.026-2.344 6.114-2.892 10.78-2.828 7.694.104 10.182 2.547 16.924 16.616 5.01 10.455 5.3 10.83 7.932 10.25 2.092-.459 2.984-.13 3.803 1.399 1.846 3.45 1.183 6.216-2.33 9.73-2.748 2.747-4.178 3.4-7.451 3.4-2.69 0-4.354-.543-4.955-1.616-.73-1.304-1.338-.72-3.155 3.033-1.587 3.278-3.388 5.23-6.105 6.616-4.379 2.234-6.03 2.322-10.847.581zm11.49-3.678c.868-.72 2.676-3.476 4.017-6.123 2.678-5.284 3.757-5.823 5.637-2.813 2.38 3.811 8.888 1.714 11.697-3.77 1.353-2.64.52-4.616-1.602-3.802-3.495 1.341-4.924-.693-13.743-19.557-2.668-5.705-5.633-7.925-10.725-8.027-9.195-.185-19.532 7.821-20.49 15.869-.65 5.467.621 6.948 4.566 5.314 2.76-1.143 3.087-1.7 2.842-4.84-.238-3.056.194-3.87 3.121-5.868 4.434-3.026 8.533-2.979 11.648.136 3.944 3.944 2.93 6.29-4.31 9.957-4.209 2.133-10.179 10.252-10.211 13.888-.031 3.54 2.299 8.098 5.22 10.208 2.6 1.878 9.78 1.545 12.333-.572zm-8.45-7.281c-.614-.74-1.401-2.772-1.75-4.515-.566-2.833-.103-3.7 4.351-8.155 2.742-2.742 5.505-4.985 6.14-4.985.634 0 2.374 2.49 3.866 5.533 3.068 6.253 2.771 7.473-2.727 11.217-3.704 2.523-8.195 2.934-9.88.905zm7.656-2.664c4.225-2.576 4.68-3.944 2.808-8.426l-1.533-3.668-3.127 2.301c-1.72 1.266-3.735 3.472-4.478 4.903-1.154 2.22-1.131 2.915.154 4.75 1.843 2.63 2.08 2.636 6.176.14zm-242.784-9.857a269.774 269.774 0 00-9.25-5.53c-5.282-2.99-5.867-4.895-3-9.771 1.398-2.377 2.26-2.875 4.287-2.472 2.288.454 2.954-.247 6.812-7.171 4.125-7.406 4.234-7.823 3.093-11.898-1.876-6.7-1.028-7.629 6.321-6.932 11.64 1.103 13.737 1.686 13.737 3.815 0 1.076-.43 2.761-.957 3.745-.909 1.698-.686 1.713 4.403.297 5.153-1.434 5.479-1.407 8.457.714 2.448 1.743 3.097 2.935 3.097 5.687 0 1.915-.686 4.809-1.526 6.432-1.292 2.499-2.12 2.95-5.41 2.95-3.09 0-4.403-.615-6.41-3-4.439-5.275-7.923-3.787-13.19 5.63-3.613 6.46-3.675 6.742-2.094 9.42.897 1.517 1.63 3.295 1.63 3.95 0 1.425-3.847 7.005-4.818 6.988-.375-.006-2.707-1.29-5.182-2.854zm6.633-2.593c.944-2.036.82-2.727-.75-4.147-1.036-.937-1.883-2.294-1.883-3.015 0-2.344 7.114-14.324 9.726-16.378 3.863-3.039 8.435-2.628 11.116.999 2.964 4.01 6.574 4.03 8.632.05 1.94-3.75 1.918-4.96-.129-7.221-2.286-2.526-6.575-2.288-12.14.675-5.325 2.835-6.193 2.098-3.705-3.146 1.085-2.286 1.347-3.911.73-4.529-1.26-1.259-13.963-3.429-14.855-2.537-.378.378.096 2.426 1.054 4.55l1.741 3.862-4.676 8.65c-4.824 8.922-6.536 10.71-9.509 9.932-1.219-.319-2.035.419-2.758 2.493-1.007 2.89-.911 3.007 5.123 6.226 3.383 1.804 7.038 3.891 8.123 4.638 2.62 1.803 2.84 1.744 4.16-1.102zm272.482-1.78c-2.263-2.333-4.11-4.92-4.102-5.75.013-1.662 6.102-6.011 8.414-6.011.8 0 1.733.45 2.073 1 1.166 1.886 4.003.987 7.75-2.454 4.162-3.822 4.545-5.002 2.076-6.384-1.946-1.089-6.475.204-10.48 2.99-1.91 1.33-4.435 1.844-9 1.833-7.078-.017-7.563-.225-10.558-4.519-2.836-4.065-3.751-9.532-2.322-13.862 1.313-3.979 8.792-10.77 14.477-13.145 2.004-.837 3.898-2.183 4.208-2.99.566-1.477 5.348-2.12 5.35-.719 0 .412 1.575 2.52 3.5 4.682 1.925 2.162 3.5 4.68 3.5 5.595 0 3.72-7.661 7.33-10.52 4.956-1.222-1.013-2.225-.756-5.488 1.403-4.229 2.799-5.026 4.936-2.39 6.411 1.846 1.034 6.522-.338 10.876-3.191 7.32-4.797 16.92-2.546 20.477 4.803 3.704 7.65 2.17 13.751-5.192 20.655-3.492 3.274-14.196 8.934-16.899 8.935-.899 0-3.486-1.907-5.75-4.239zm13.142-1.376c9.69-4.957 15.558-13.057 13.829-19.086-1.326-4.623-2.916-7.138-5.33-8.43-3.135-1.678-10.521-1.159-13.619.957-1.45.99-4.547 2.407-6.883 3.146-3.832 1.214-4.441 1.169-6.25-.468-2.775-2.512-2.504-5.663.746-8.695 4.465-4.164 6.555-4.898 10.119-3.553 2.735 1.033 3.381.933 5.06-.786 1.903-1.948 1.881-2.018-1.937-6.276-3.616-4.03-3.93-4.18-4.919-2.33-.58 1.085-2.39 2.267-4.022 2.625-1.631.358-5.221 2.447-7.978 4.642-7.716 6.144-8.828 13.406-3.026 19.759 2.41 2.64 3.555 3.11 7.559 3.11 3.157 0 6.072-.787 8.806-2.379 8.353-4.86 14.588-4.266 14.588 1.39 0 2.344-1.035 3.76-5.09 6.966-5.151 4.072-7.287 4.84-8.41 3.023-.877-1.42-3.792-1.238-5.994.372-1.798 1.314-1.74 1.544 1.358 5.456 3.516 4.44 3.78 4.452 11.393.557zm-328.757-23.188c-4.679-2.204-10.466-8.287-12.456-13.09-2.936-7.09 1.872-18.532 11.193-26.634 10.468-9.1 20.028-8.687 30.337 1.312 5.335 5.173 6.845 8.934 5.96 14.836-.577 3.852-1.566 5.481-5.771 9.513-2.866 2.748-6.014 4.866-7.232 4.866-1.28 0-5.244-2.846-9.753-7-4.178-3.85-8.072-7-8.652-7-1.354 0-3.126 3.298-3.126 5.818 0 3.825 8.551 9.939 16.25 11.62 1.513.33 2.75 1.197 2.75 1.926 0 4.788-12.33 7.212-19.5 3.833zM129.826 502c.729-.729.464-1.235-.87-1.667-3.784-1.226-9.968-4.777-12.668-7.275-2.083-1.927-2.75-3.478-2.75-6.392 0-4.257 2.421-8.778 4.7-8.778.81 0 5.311 3.366 10.004 7.48l8.533 7.48 3.808-2.73c9.138-6.55 9.442-15.74.79-23.86-7.93-7.444-15.164-8.004-23.749-1.836-8.427 6.054-13.086 13.798-13.086 21.752 0 8.63 11.548 18.47 20.371 17.359 2.13-.268 4.342-.958 4.917-1.533zm-2.288-21.863c-3.025-2.468-5.637-5.282-5.804-6.253-.42-2.434 4.413-5.996 8.134-5.996 3.79 0 8.67 4.381 8.67 7.783 0 2.616-2.752 7.91-4.447 8.554-.579.22-3.528-1.62-6.553-4.088zm8.978-3.959c.03-1.665-5.116-6.295-6.968-6.268-.83.012-2.57.837-3.864 1.833l-2.355 1.811 4.355 3.41c2.395 1.875 4.527 3.817 4.737 4.316.463 1.095 4.063-3.39 4.095-5.102zm135.022 19.633c-5.225-.453-12.2-1.522-15.5-2.375-3.3-.853-9.341-2.236-13.425-3.073-4.084-.837-7.91-1.902-8.5-2.368-.591-.465-2.875-1.17-5.075-1.566-2.2-.396-4.45-1.062-5-1.48-.55-.418-5.204-2.462-10.343-4.542-9.523-3.855-27.639-13.267-32.157-16.708-9.98-7.602-14.442-10.811-15.026-10.811-1.074 0-22.022-20.838-28.147-28-7.032-8.222-15.493-20.479-20.365-29.504a4778.38 4778.38 0 00-5.41-9.996c-.898-1.65-2.926-6.15-4.506-10-1.58-3.85-3.198-7.45-3.594-8-.397-.55-1.05-2.575-1.452-4.5-.402-1.925-1.077-3.95-1.5-4.5-.423-.55-1.072-2.575-1.443-4.5-.37-1.925-1.083-4.4-1.585-5.5-.808-1.774-2.08-7.54-4.965-22.5-1.563-8.11-2.232-35.232-1.196-48.5 1.598-20.455 7.212-42.362 16.144-63 6.356-14.685 12.574-25.22 23.611-40 21.962-29.413 46.786-48.536 85.434-65.817 5.198-2.324 18.779-6.683 20.821-6.683.979 0 2.207-.388 2.73-.861.522-.474 4.55-1.44 8.95-2.147 4.4-.707 8.45-1.611 9-2.01 1.615-1.171 26.766-2.435 43-2.16 15.174.256 21.923 1.034 31 3.577 2.75.77 7.474 1.933 10.5 2.582 6.445 1.383 18.062 4.966 19.5 6.014.55.401 2.209 1.018 3.687 1.37 1.478.353 5.6 1.99 9.161 3.638s6.964 2.997 7.563 2.997c.598 0 1.093.337 1.1.75.006.412 1.918 1.622 4.25 2.688 6.152 2.813 23.054 14.01 31.723 21.014 23.641 19.103 46.43 49.432 57.143 76.048.442 1.1 1.9 4.54 3.237 7.645 2.486 5.77 4.4 11.84 7.738 24.532 6 22.826 6.902 52.391 2.445 80.198-1.444 9.006-3.23 17.556-3.97 19-.739 1.444-1.668 5.02-2.064 7.946-.397 2.927-1.29 5.54-1.984 5.806-.695.267-2.038 3.497-2.984 7.179-.946 3.682-2.755 8.719-4.02 11.194-1.265 2.475-2.638 5.613-3.051 6.974-1.116 3.671-14.098 24.559-19.905 32.026-17.715 22.777-37.906 40.128-62.57 53.768-35.907 19.858-75.621 27.92-119 24.155zm37.5-2.405c12.018-.937 33.135-4.522 38-6.452 1.1-.436 4.475-1.565 7.5-2.509 6.047-1.886 10.772-3.706 18.78-7.232 2.904-1.279 5.644-2.325 6.09-2.325.446 0 4.555-2.25 9.13-5 4.576-2.75 8.531-5 8.79-5 .26 0 2.664-1.575 5.343-3.5 2.68-1.925 5.12-3.5 5.423-3.5 1.056 0 13.998-10.893 21.588-18.171 7.811-7.489 15.394-15.778 19.856-21.705a292.404 292.404 0 014.75-6.117c1.238-1.537 2.25-3.098 2.25-3.468 0-.37 1.125-2.147 2.5-3.95 1.375-1.803 2.5-3.558 2.5-3.9 0-.343 2.25-4.167 5-8.498 2.75-4.332 5-8.47 5-9.196 0-.725 1.06-3.159 2.354-5.407 1.295-2.248 3.174-7.17 4.176-10.937 1.001-3.766 2.395-7.069 3.097-7.338.703-.27 1.58-2.588 1.948-5.152.37-2.563 1.327-6.236 2.128-8.161.802-1.925 2.58-10.7 3.954-19.5 2.24-14.353 2.447-18.11 2.017-36.5-.42-17.957-.856-22.237-3.51-34.5-3.016-13.928-7.572-29.138-9.272-30.95-.49-.523-.892-1.669-.892-2.548 0-4.184-16.313-33.9-24.43-44.502-10.929-14.273-28.387-32.3-36.799-38-.812-.55-4.805-3.475-8.873-6.5-7.553-5.615-9.76-6.976-19.083-11.768-2.923-1.503-5.465-3.07-5.648-3.482-.183-.413-.81-.75-1.39-.75-.582 0-2.907-.859-5.167-1.909-13.93-6.47-27.825-11.206-38.146-13.006-2.22-.387-4.474-.973-5.009-1.304-5.576-3.446-38.146-4.992-61.455-2.916-12.245 1.09-37.447 6.355-39.45 8.24-.522.492-1.715.895-2.65.895-3.422 0-23.762 9.263-38.9 17.716-9.39 5.243-27.551 19.147-35.844 27.44-10.643 10.644-21.948 24.006-25.792 30.485-1.025 1.727-3.326 5.237-5.114 7.8-1.787 2.562-3.25 5.285-3.25 6.05 0 .765-.41 1.645-.913 1.955-1.08.667-11.087 20.723-11.087 22.219 0 .565-.648 2.334-1.44 3.931-2.134 4.305-6.467 19.41-9.152 31.904-6.231 29.002-4.946 63.684 3.466 93.5 1.798 6.374 5.123 16.188 6.56 19.367 4.231 9.357 6.566 14.742 6.566 15.145 0 .249 1.742 3.3 3.872 6.778 2.13 3.48 4.166 7.253 4.525 8.386.36 1.133 1.543 2.864 2.629 3.847 1.086.983 1.974 2.147 1.974 2.588 0 3.13 20.17 26.682 31.981 37.344a770.792 770.792 0 015.828 5.302c.741.69 2.325 1.773 3.52 2.405 1.194.632 4.018 2.654 6.274 4.493 2.257 1.84 4.435 3.345 4.841 3.345.406 0 2.462 1.462 4.568 3.25 2.107 1.787 7.353 5.05 11.66 7.25 4.305 2.2 7.978 4.337 8.162 4.75.183.412.934.75 1.668.75.735 0 2.61.64 4.167 1.42 1.557.782 4.856 2.173 7.331 3.093 2.475.919 5.85 2.29 7.5 3.045 1.65.755 4.35 1.656 6 2.001 1.65.346 4.35 1.225 6 1.954 1.65.728 5.925 1.833 9.5 2.454 3.575.622 7.85 1.55 9.5 2.062 2.952.917 7.667 1.51 22.5 2.827 8.231.73 18.196.62 30.5-.338zm-28.826-4.177c-.159-.16-4.763-.778-10.231-1.376-8.896-.972-13.032-1.83-29.443-6.115-9.125-2.382-28.864-10.375-37-14.983-1.925-1.09-5.075-2.682-7-3.537-1.925-.855-3.725-1.846-4-2.202-.275-.356-2.525-1.948-5-3.54-2.475-1.59-4.86-3.498-5.3-4.24-.44-.741-1.24-1.348-1.779-1.348-.866 0-2.961-1.545-12.9-9.513-6.284-5.037-27.978-27.62-28.061-29.21-.023-.428-1.373-2.335-3-4.24-1.628-1.903-2.96-3.9-2.96-4.435 0-.535-.88-1.91-1.955-3.054-1.876-1.997-3.924-5.563-10.079-17.548-9.046-17.616-14.34-33.279-19.554-57.847-1.275-6.006-3.136-28.564-2.828-34.277 1.257-23.33 1.728-28.061 3.378-33.876 1.015-3.575 2.146-8.253 2.514-10.396.368-2.143 1.261-4.843 1.985-6 .723-1.157 1.62-3.845 1.994-5.972.374-2.127 1.964-6.627 3.533-10 9.353-20.1 12.803-26.745 16.762-32.29 1.238-1.733 2.25-3.438 2.25-3.79 0-2.104 20.935-27.26 29.218-35.11 7.84-7.429 16.203-14.094 23.782-18.954 4.125-2.645 8.625-5.549 10-6.453 2.409-1.584 20.396-10.385 24.5-11.987 1.1-.43 3.125-1.244 4.5-1.811 10.315-4.252 26.312-8.452 41.525-10.901 14.957-2.409 47.215-2.407 59.975.003 20.373 3.848 36.357 9.364 55 18.983 3.85 1.986 9.363 4.824 12.25 6.307 2.888 1.482 5.25 3.072 5.25 3.533 0 .46.675.838 1.5.838s1.5.353 1.5.784c0 .432 1.463 1.635 3.25 2.675 1.788 1.04 3.475 2.175 3.75 2.523.275.349 1.448 1.283 2.607 2.076 13.235 9.058 36.054 33.554 45.404 48.741 4.917 7.988 12.923 23.972 16.04 32.025 1.633 4.222 3.345 8.35 3.805 9.176.46.825 1.414 3.975 2.12 7 .708 3.025 1.618 5.95 2.023 6.5.406.55 1.282 4.15 1.946 8 .665 3.85 1.606 8.125 2.092 9.5.82 2.323 3.347 30.02 3.148 34.5-1.214 27.246-3.701 41.042-11.086 61.5-3.614 10.008-3.282 9.254-10.69 24.275-3.194 6.476-6.618 12.645-7.608 13.708-.99 1.063-1.8 2.232-1.8 2.598 0 .83-8.462 12.737-10.5 14.774-.825.826-1.5 1.754-1.5 2.062 0 1.51-21.009 23.053-28.665 29.395-5.161 4.275-15.62 11.458-20.336 13.968-1.375.731-4.75 2.649-7.5 4.26-5.721 3.354-19.14 9.957-20.254 9.966-.41.003-1.953.636-3.428 1.406-1.476.77-4.176 1.719-6 2.109-1.825.39-3.768 1.058-4.318 1.485-1.394 1.08-19.792 5.994-22.444 5.994-1.196 0-1.96.346-1.699.768.261.423-1.287.6-3.44.395-2.155-.205-3.917.02-3.917.501s-1.687.92-3.75.975c-2.062.055-6 .384-8.75.73-5.368.677-28.346 1.451-28.826.972zm35.326-4.373c13.423-1.935 31.288-5.875 35.5-7.829 1.1-.51 4.25-1.685 7-2.61 17.968-6.05 41.796-19.666 57.097-32.627 7.414-6.28 21.826-21.223 25.368-26.301.806-1.156 2.308-3.001 3.338-4.101 3.539-3.778 14.469-21.008 19.032-30 9.42-18.567 12.185-25.706 17.042-44 4.297-16.185 5.15-37.263 2.48-61.313-1.058-9.521-2.542-19.196-3.299-21.5-.756-2.303-1.69-5.762-2.074-7.687-1.94-9.718-7.897-25.11-15.561-40.21-6.77-13.337-11.18-20.08-20.37-31.135-11.424-13.743-18.815-20.794-34.573-32.98-5.63-4.353-8.937-6.675-9.509-6.675-.364 0-2.072-1.013-3.796-2.25-4.643-3.334-15.385-8.988-25.675-13.514a274.394 274.394 0 01-6-2.73c-7.481-3.56-25.558-8.943-37.5-11.166-13.03-2.427-42.244-2.42-58 .013-6.6 1.02-12.677 2.214-13.505 2.654-.827.44-4.167 1.293-7.421 1.895-3.254.601-9.777 2.492-14.495 4.201-9.463 3.429-32.207 14.378-38.765 18.662a355.718 355.718 0 01-9 5.636c-7.828 4.718-25.323 20.773-33.334 30.59-2.464 3.019-5.45 6.619-6.634 8-2.436 2.838-10.593 14.727-11.67 17.009-.39.825-2.05 3.525-3.689 6-1.64 2.475-3.704 6.075-4.588 8-.883 1.925-2.652 5.75-3.93 8.5-4.949 10.645-7.47 16.814-7.513 18.374-.024.894-.726 3.426-1.56 5.626-2.633 6.945-6.177 21.952-7.234 30.633-1.906 15.662-.15 52.27 2.85 59.367.464 1.1 1.133 3.8 1.485 6 2.777 17.335 16.424 48.473 29.212 66.654 9.786 13.912 13.401 18.06 26.285 30.158 9.665 9.076 24.073 19.808 37.1 27.633 4.83 2.902 20.574 10.392 26.906 12.801 12.908 4.91 33.822 10.197 41 10.363 3.025.07 6.85.494 8.5.941 3.588.974 30.327.241 39.5-1.082zm-21.5-54.18c-2.75-.516-6.534-1.163-8.41-1.438-4.084-.6-13.274-9.462-15.61-15.053-6.528-15.624-6.205-38.576.816-57.85 2.192-6.017 7.43-16.085 10.759-20.681 4.36-6.019 10.718-8.593 13.745-5.566 1.448 1.448 1.6 12.128.208 14.564-2.186 3.824-5.008 12.486-5.008 15.372 0 4.011 2.595 9.368 5.44 11.233 7.616 4.99 14.209 1.782 17.226-8.381 3.667-12.353 15.278-18.86 24.9-13.954 5.886 3 11.926 2.628 15.511-.957 8.61-8.61-2.085-20-18.876-20.099-3.909-.023-11.463-3-14.433-5.688-2.044-1.85-2.354-5.851-.508-6.56 2.468-.947 22.392-.795 31.504.24 5.094.579 12.07 1.936 15.5 3.016 3.43 1.08 8.036 2.415 10.236 2.967 9.676 2.426 26.924 16.044 31.358 24.757 1.45 2.85 2.142 6.06 2.142 9.935 0 5.8-2.233 16.198-4.264 19.855-.611 1.1-1.31 7.363-1.553 13.918-.359 9.689-.88 12.91-2.79 17.23-4.103 9.277-18.759 21.352-25.916 21.352-1.297 0-2.6.39-2.895.868-.295.478-2.774 1.165-5.509 1.528-4.804.637-14.224-1.522-19.35-4.436-4.737-2.694-12.643-5.162-16.344-5.103-2.763.043-5.727 1.063-9 3.094-10.203 6.336-17.907 7.893-28.879 5.836zm15.6-2.888c4.08-1.32 10.118-4.173 14.895-7.038 2.82-1.69 4.558-1.993 9-1.567 4.811.462 8.449 1.744 23.656 8.339 3.288 1.425 8.557 1.825 9.65.731.35-.35 2.484-.801 4.742-1.005 10.12-.911 23.441-10.884 27.85-20.85 1.607-3.633 2.268-7.478 2.57-14.95.26-6.465 1.148-12.355 2.484-16.48 3.272-10.106 3.972-16.56 2.547-23.488-1.182-5.747-1.692-6.5-8.99-13.301-4.255-3.965-10.424-8.608-13.71-10.318-13.804-7.185-42.832-12.448-58.117-10.538-5.02.627-5.494.885-4.515 2.452 1.336 2.14 8.42 5.339 11.838 5.347 1.375.003 5.78.661 9.789 1.462 5.982 1.196 7.982 2.118 11.16 5.14 6.782 6.452 6.229 15.653-1.215 20.18-3.222 1.959-11.416 1.643-16.137-.623-8.927-4.283-18.958 1.49-21.7 12.49-3.163 12.68-14.225 16.024-23.228 7.021l-3.93-3.93.515-7.237c.342-4.809 1.409-9.213 3.18-13.127 3.33-7.36 3.335-14.929.01-15.404-3.568-.51-9.583 6.441-14.653 16.934-6.468 13.386-9.457 25.438-9.723 39.207-.153 7.895.069 9.69 1.12 9.058 1.072-.645 1.078-.5.033.791-.877 1.083-.996 2.324-.38 3.942.495 1.3 1.718 4.983 2.718 8.187 1 3.204 2.797 6.596 3.995 7.538 1.197.942 2.485 2.596 2.862 3.675 1.312 3.752 5.872 6.262 12.634 6.954 3.539.362 6.625.85 6.859 1.083.844.844 8.87.4 12.192-.675zm-93.1-11.588c-5.775-.79-15.217-1.613-20.984-1.828-12.545-.468-17.584-2.157-22.43-7.52-6.106-6.76-6.997-10.022-5.588-20.464.668-4.95 1.785-10.125 2.482-11.5 2.906-5.737 4.52-10.217 4.52-12.548 0-3.08-3.668-8.826-6.411-10.043-1.128-.5-3.095-2.709-4.372-4.909-1.964-3.385-2.243-4.954-1.81-10.209.604-7.345 3.032-12.534 8.268-17.667 4.218-4.136 12.87-8.558 17.105-8.742 1.496-.065 4.07-.456 5.72-.868 1.65-.413-1.576-.519-7.169-.236-10.952.554-19.554-.659-26.847-3.785-5.879-2.52-9.92-8.705-9.2-14.079.612-4.557 1.76-6.114 8.466-11.488 1.788-1.432 3.25-3.223 3.25-3.98 0-.757 1.279-2.855 2.842-4.661 1.563-1.807 3.367-4.827 4.01-6.71 1.002-2.944.88-3.976-.864-7.322-1.116-2.143-3.641-5.551-5.61-7.574-4.199-4.313-6.939-9.32-7.898-14.433-.688-3.669 1.033-13.091 2.83-15.496 1.127-1.507 12.383-1.698 16.13-.273 2.393.91 10.065-1.117 19.06-5.037 1.1-.48 4.85-1.584 8.333-2.454 12.156-3.04 20.237-.021 32.497 12.137 6.344 6.292 7.742 8.22 7.37 10.164-.727 3.807 1.929.555 3.502-4.287 1.457-4.484 3.985-5.494 8.78-3.508 2.123.88 3.741.872 6.763-.034 3.394-1.017 4.35-.942 6.575.516 3.435 2.25 4.509 5.617 2.229 6.99-4.301 2.589-4.544 2.983-3.72 6.036.8 2.956 8.826 10.178 10.004 9 .316-.316.596-1.79.621-3.273.038-2.195.605-2.8 3.046-3.245 2.462-.448 2.712-.72 1.394-1.514-4.143-2.497-14.838-22.065-18.84-34.468-3.68-11.411-3.125-31.28 1.032-36.902 2.788-3.77 3.057-3.866 14.747-5.212 11.262-1.297 14.715-3.259 18.271-10.38 2.66-5.325 9.812-9.506 16.26-9.506 10.017 0 18.812 2.587 23.798 7 .932.825 2.29 2.007 3.016 2.627 4.28 3.65 8.822 11.387 8.822 15.025 0 1.227.45 2.508 1 2.848.55.34 1 1.964 1 3.609 0 3.655 1.965 7.602 5.368 10.78 2.554 2.387 4.236 3.463 10.415 6.668 1.806.936 4.888 3.556 6.848 5.823 3.493 4.036 3.554 4.253 2.98 10.653-.769 8.593-2.976 14.827-6.69 18.892-2.937 3.216-3.36 5.514-.592 3.217.757-.628 6.055-2.324 11.774-3.768 9.992-2.524 10.779-2.578 20.18-1.383 9.342 1.187 9.987 1.428 14.345 5.376 4.373 3.96 4.586 4.412 5.1 10.816.493 6.156.756 6.775 3.333 7.842 1.837.761 5.332.921 10.178.467 8.779-.822 12.753.116 19.682 4.647 5.717 3.739 9.965 9.381 10.762 14.296 1.29 7.947-4.205 20.85-12.634 29.67-1.85 1.936-3.049 4.248-3.049 5.876 0 15.26-9.127 25.794-23.224 26.803-7.403.53-18.139-1.29-20.287-3.438-.74-.74-2.096-1.346-3.013-1.346-.917 0-2.862-.597-4.322-1.326-1.46-.73-4.153-2.08-5.985-3-1.832-.92-4.104-1.674-5.05-1.674-.945 0-2.146-.38-2.669-.844-1.14-1.012-8.977-3.973-20.102-7.594-6.853-2.23-10.28-2.7-21.505-2.941-14.667-.317-17.843-1.237-17.843-5.169 0-2.031.958-2.901 5.323-4.831 8.126-3.594 16.7-4.647 37.234-4.572 18.554.067 18.81.038 21.19-2.342 2.195-2.195 2.314-2.766 1.336-6.4-1.917-7.117-6.332-8.863-17.206-6.804-3.021.572-3.992.297-5.845-1.658-1.923-2.028-2.155-3.124-1.72-8.11.425-4.892.222-5.914-1.344-6.752-3.218-1.722-11.878.876-20.468 6.14-8.93 5.474-13.76 9.567-17.846 15.127-2.661 3.621-5.862 4.84-7.166 2.73-.803-1.3 1.364-7.98 2.59-7.98.507 0 .922-.564.922-1.254 0-2.456 13.555-20.38 21.461-28.378 8.056-8.15 7.41-8.57-2.556-1.668-5.667 3.925-9.513 8.243-14.413 16.182-3.738 6.057-5.882 7.328-8.292 4.918-1.792-1.792-1.449-9.053.66-13.974 1.616-3.768 3.325-10.747 6.121-24.991 1.012-5.154-1.122-10.607-5.901-15.085-5.006-4.69-8.57-4.935-12.48-.854-2.336 2.438-3.074 4.652-4.673 14.022l-1.898 11.126 2.486 7.404c2.85 8.489 3.217 14.057.985 14.914-.825.316-1.5 1.28-1.5 2.142 0 .861-.728 2.678-1.619 4.037-1.361 2.078-1.421 2.947-.378 5.465.682 1.647 1.575 2.994 1.986 2.994.41 0 1.893 1.735 3.296 3.855 4.756 7.186 7.153 19.59 4.68 24.21-.749 1.4-2.102 1.935-4.893 1.935-4.488 0-4.641-.264-5.555-9.576-.618-6.298-2.274-11.082-7.356-21.247-2.553-5.108-3.402-5.427-7.902-2.962-3.424 1.876-4.284 2.01-5.649.876-3.892-3.23-.901-8.091 4.98-8.091 2.645 0 2.67-.055.933-1.975-2.574-2.845-5.178-3.38-7.735-1.59-2.94 2.06-8.388 2.05-9.18-.017-1.808-4.71.617-7.153 5.807-5.85 4.37 1.097 2.953-1.317-2.665-4.538-2.887-1.656-5.925-3.015-6.75-3.02-.825-.006-2.757 1.565-4.292 3.49-2.888 3.62-5.263 4.263-9.024 2.444-2.054-.994-2.044-.935.177 1 1.298 1.13 3.62 2.056 5.16 2.056 2.31 0 3.155.744 4.825 4.25 2.058 4.318 5.154 17.626 5.154 22.149 0 1.366-.483 2.782-1.074 3.147-1.228.759-5.926-3.282-5.926-5.098 0-.662-.653-1.745-1.45-2.407-.798-.662-2.777-3.53-4.397-6.372-3.875-6.797-8.515-11.37-12.401-12.224-4.459-.979-7.752 2.905-7.752 9.143 0 8.89 2.851 12.243 17 19.994 1.925 1.055 3.656 2.272 3.846 2.705.19.433 1.427 2.073 2.75 3.644 3.224 3.832 3.297 9.906.154 12.771-1.237 1.128-4.05 2.358-6.25 2.734-7.298 1.245-16.234 4.72-19.891 7.735-5.395 4.447-4.872 8.358 2.168 16.229l3.489 3.9-.674 10.645-.673 10.646 3.523 1.68c4.015 1.914 5.578 1.541 10.737-2.564 3.483-2.772 10.919-14.368 13.764-21.465 1.914-4.772 8.553-11.242 11.537-11.242 3.345 0 4.489 4.23 2.134 7.894-.92 1.433-2.442 4.293-3.38 6.356-.938 2.062-2.05 3.75-2.47 3.75-.42 0-.764.513-.764 1.14 0 .628-.961 3.215-2.136 5.75-3.316 7.157-3.646 8.144-5.219 15.61-1.37 6.506-3.83 15.128-6.702 23.5-4.004 11.67-11.518 21.695-18.315 24.438-4.45 1.795-4.61 1.794-18.628-.126zm17.714-2.288c2.248-1.086 5.596-3.738 7.437-5.892 3.772-4.411 8.85-13.357 8.85-15.59 0-.811.637-2.952 1.416-4.758 2.405-5.577 5.536-16.148 6.623-22.36.57-3.258 1.433-6.824 1.918-7.924 3.13-7.105 6.423-13.795 9.35-19 3.966-7.05 3.894-9.323-.218-6.894-2.826 1.67-8.09 9.397-8.09 11.876 0 .77-.41 1.654-.913 1.964-.503.311-1.94 2.7-3.196 5.31-2.775 5.77-11.966 14.882-15.877 15.74-1.94.427-4.197-.059-7.056-1.518l-4.204-2.144.701-10.828.702-10.827-3.537-3.914c-3.96-4.383-5.62-8.01-5.62-12.274 0-5.348 8.62-10.703 23.5-14.599 7.405-1.939 8.501-2.812 8.495-6.764-.006-4.197-4.807-9.307-13.101-13.945-10.264-5.74-12.894-9.55-12.894-18.683 0-6.273 1.163-9.214 4.309-10.898 5.915-3.165 14.463 2.233 19.72 12.456 1.244 2.417 3.096 5.15 4.116 6.073 1.02.924 1.855 2.23 1.855 2.902 0 .672.675 1.782 1.5 2.467 1.925 1.598 1.92.946-.078-8.725-2.256-10.92-4.186-14.551-8.166-15.36-4.314-.878-5.406-1.9-10.83-10.133-4.625-7.02-5.216-9.905-3.043-14.845.48-1.093-1.015-3.199-4.972-7-3.113-2.99-6.391-6.261-7.285-7.268-2.39-2.693-8.53-5.618-13.906-6.625-5.174-.969-9.305-.142-22.22 4.448-14.022 4.983-13.695 4.916-17.85 3.67-2.135-.639-5.885-1.162-8.333-1.162h-4.452l-1.744 5.533c-1.6 5.077-1.618 5.967-.212 10.801.994 3.42 2.984 6.83 5.67 9.717 6.009 6.459 8.921 11.049 8.921 14.059 0 3.327-2.572 9.564-5.364 13.005-1.175 1.448-2.875 3.992-3.778 5.653-.904 1.66-2.89 3.63-4.416 4.376-1.525.746-3.666 3.089-4.758 5.207l-1.984 3.85 2.155 4.438c1.661 3.419 3.13 4.848 6.4 6.231 14.86 6.282 34.842 5.134 60.333-3.466 14.09-4.754 17.237-4.522 18.683 1.379 1.057 4.314-4.104 5.867-27.27 8.207-5.776.583-13.003 1.5-16.061 2.035-3.058.536-6.532.975-7.72.975-3.719 0-12.562 4.691-16.36 8.679-4.585 4.814-6.41 8.526-7.216 14.685-.79 6.032 1.98 13.162 5.656 14.56 3.148 1.197 6.7 7.309 6.7 11.53 0 1.836-1.33 6.607-2.956 10.602-1.625 3.995-3.45 10.53-4.056 14.525-1.042 6.872-.969 7.522 1.357 12.09 4.814 9.46 8.945 11.554 24.655 12.5 10.085.608 34.303 3.206 34.562 3.708.035.067 1.903-.768 4.152-1.855zm197.486-85.855c7.82-4.393 11.8-11.052 11.8-19.748 0-4.38 1.664-9.421 3.11-9.421 1.087 0 9.166-11.656 11.278-16.272 1.878-4.102 2.532-13.491 1.014-14.562-.518-.367-1.453-1.832-2.078-3.256-2.555-5.828-19.254-13.473-23.52-10.768-3.225 2.046-16.445-.304-16.914-3.006-.06-.35-.202-3.224-.315-6.388-.172-4.843-.667-6.238-3.14-8.836-4.164-4.375-5.922-5.14-14.935-6.492-6.552-.983-9.086-.947-14 .2-16.574 3.87-27.435 9.616-39.371 20.832-5.332 5.01-17.129 18.918-17.129 20.194 0 .366-1.125 2.14-2.5 3.943s-2.5 3.616-2.5 4.03c0 .414-.94 1.753-2.09 2.977s-1.915 3.053-1.7 4.065c.32 1.504.687 1.281 2.018-1.222 2.393-4.499 7.267-8.947 16.272-14.849 12.45-8.16 19.287-10.142 26.075-7.562 2.632 1.001 2.687 1.189 2.079 7.014-.537 5.13-.345 6.267 1.342 7.954 1.589 1.589 2.466 1.779 4.551.986 4.023-1.53 11.725-1.18 14.339.65 2.43 1.703 6.054 8.604 6.092 11.602.012.954-1.292 3.204-2.897 5l-2.92 3.266-22.33.048c-20.557.044-22.887.231-29.33 2.355-8.561 2.82-10.13 3.9-8.301 5.717.903.898 5.908 1.427 16.4 1.733 10.676.312 15.951.878 18 1.93 1.596.82 5.676 2.197 9.07 3.062 3.392.865 8.539 2.716 11.436 4.114 2.898 1.397 5.823 2.541 6.5 2.541.678 0 2.506.652 4.063 1.449 3.571 1.828 6.613 2.915 7.581 2.71.413-.088.75.291.75.841s.81 1 1.8 1 2.282.482 2.87 1.07c4.009 4.009 21.133 4.692 27.53 1.099zm-212.2-21.106c4.675-.459 10.44-1.36 12.812-2.004 3.596-.975 4.26-1.534 4-3.364-.466-3.28-3.53-3.2-13.986.366-5.13 1.75-12.7 4.022-16.826 5.05l-7.5 1.871 6.5-.542c3.575-.298 10.325-.917 15-1.377zm86.623-4.694c1.405-5.6-3.213-18.55-8.64-24.23-2.516-2.633-3.101-4-2.803-6.552.338-2.898.145-3.18-1.908-2.788-4.914.94-6.887-4.774-3.746-10.849 1.865-3.606 3.786-3.729 7.065-.45 5.131 5.131 5.69 2.356 1.835-9.125-2.726-8.122-2.737-9.73-.166-24.59 1.76-10.174 6.796-14.929 14.642-13.825 2.267.32 8.01 5.285 10.024 8.667 3.58 6.013 3.549 8.092-.393 26.373-.89 4.125-2.535 9.823-3.656 12.663-2.058 5.212-2.216 9.416-.377 9.995.55.173 2.575-2.205 4.5-5.285 6.494-10.389 10.37-13.708 29-24.833 5.225-3.12 11-7.228 12.833-9.128 4.059-4.206 7.167-12.614 7.167-19.384 0-4.356-.475-5.548-3.578-8.982-1.967-2.179-4.545-4.268-5.728-4.643-1.182-.375-4.5-2.457-7.373-4.626-6.007-4.535-8.895-9.717-9.91-17.777-.887-7.036-5.654-14.434-12.759-19.797-4.673-3.529-6.304-4.13-14.239-5.253-8.758-1.24-9.075-1.213-13.937 1.187-3.774 1.862-5.58 3.573-7.476 7.082-4.207 7.786-6.967 9.345-19 10.732-6.455.744-11.147 1.792-12.179 2.72-3.438 3.093-4.82 7.903-4.82 16.772 0 11.804 2.393 22.432 7.332 32.552 4.778 9.79 11.275 20.005 12.724 20.005.546 0 1.387 1.038 1.87 2.306.482 1.269 2.008 3.651 3.39 5.295 2.255 2.678 2.446 3.552 1.849 8.443-.566 4.636-1 5.504-2.895 5.773-2.88.41-7.27-3.925-7.27-7.178 0-1.936-.41-2.345-1.946-1.943-1.58.413-1.738.838-.842 2.274.607.97.8 2.556.428 3.523-.55 1.432-1.411 1.64-4.657 1.12-3.2-.511-3.984-.333-3.984.907 0 2.42 3.057 2.984 6.25 1.152 4.038-2.318 5.803-2.109 9.711 1.155 4.234 3.534 3.624 5.664-1.875 6.543-2.39.382-4.086 1.202-4.086 1.975 0 2.488 1.298 2.616 5.066.498 2.074-1.166 4.427-1.868 5.228-1.56 1.563.6 7.706 9.186 7.706 10.77 0 .525.866 2.569 1.923 4.543 1.11 2.07 2.22 6.828 2.622 11.246.384 4.212.895 7.995 1.136 8.408.24.412 1.527.75 2.86.75 1.78 0 2.596-.696 3.082-2.631zm-12.371-39.119c.258-2.063 0-4.346-.574-5.074-1.477-1.87-4.046 3.22-3.242 6.423.94 3.75 3.28 2.923 3.816-1.349zm3.733 0c-.012-2.143-.23-2.419-.985-1.25-1.264 1.957-1.264 4 0 4 .55 0 .993-1.238.985-2.75zm-12.55-6.657c-.333-1.324-.159-3.24.386-4.259.76-1.42.475-2.45-1.223-4.426l-2.215-2.574-1.18 3.78c-1.54 4.938.18 9.886 3.439 9.886.976 0 1.214-.725.792-2.407zm-29.003-6.093c2.844-3.728 5.86-4.451 9.884-2.37 1.847.955 1.754.67-.603-1.844-1.534-1.636-3.05-4.593-3.372-6.57-.527-3.25-.274-3.786 2.617-5.544l3.2-1.947-2.273-2.118c-1.6-1.49-2.883-1.898-4.33-1.376-2.456.887-8.015.782-11.759-.221-2.403-.645-2.772-.407-3.319 2.132-.707 3.286-1.924 6.106-3.712 8.605-.92 1.285-.964 2.209-.164 3.5.598.964 1.72 2.822 2.493 4.129 2.469 4.17 5.357 7.087 7.037 7.106.898.01 2.833-1.557 4.301-3.482zm-9.432 2.122c0-.207-.787-.995-1.75-1.75-1.586-1.243-1.621-1.208-.377.378 1.306 1.666 2.127 2.195 2.127 1.372zm32.985-6.372c.008-.688-.66-1.25-1.485-1.25-1.629 0-1.853.915-.86 3.502.51 1.329.81 1.396 1.484.332.465-.734.852-1.897.86-2.584zm-39.85-5.5c-.325-2.03-.668-2.57-.912-1.442-.373 1.72.307 4.692 1.073 4.692.197 0 .124-1.463-.162-3.25zm234.811 252.381c-2.445-1.577-7.104-5.648-10.352-9.047-4.147-4.337-6.381-5.981-7.5-5.518-4.025 1.668-5.297 1.593-7.174-.422-1.642-1.762-2.01-3.74-2.196-11.82-.221-9.6-.195-9.72 2.481-11.244 2.574-1.465 2.844-1.408 5.548 1.184l2.843 2.723 4.41-4.493c2.426-2.472 4.961-4.494 5.634-4.494 1.615 0 5.36 5.32 5.36 7.612 0 .992-1.654 3.497-3.675 5.568l-3.676 3.764 7.183 7.028c3.95 3.865 7.87 7.028 8.71 7.028 2.56 0 6.232-2.963 6.882-5.553.672-2.677 1.696-2.988 4.642-1.412 1.472.788 1.934 2.11 1.934 5.532 0 13.85-10.314 20.494-21.054 13.564zm9.983-.131c4.863 0 10.078-9.744 8.03-15-.108-.275-.136-.95-.063-1.5.073-.55-.528-.1-1.336 1-4.534 6.174-7.621 7.608-11.692 5.43-3.451-1.848-14.86-14.341-14.864-16.279-.002-1.017 1.346-3.11 2.996-4.651 3.185-2.976 3.848-6.052 1.689-7.844-1-.829-2.25-.152-5.25 2.845-4.445 4.439-6.838 4.912-9.969 1.97-1.25-1.173-2.833-1.769-3.759-1.414-1.352.52-1.512 1.876-1.033 8.779.311 4.49 1.013 8.723 1.56 9.407.663.828 2.322 1.031 4.964.609 3.876-.62 4.15-.46 11.634 6.83 8.633 8.41 12.058 10.921 13.996 10.267.732-.247 2.126-.449 3.097-.449zm-404.856-24.75c-8.904-10.983-16.073-20.215-16.073-20.698 0-.301-1.575-2.74-3.5-5.42-1.925-2.679-3.5-5.588-3.5-6.465 0-.877 1.688-2.75 3.75-4.161l3.75-2.567 23.907.688 23.907.689-3.073-4.466c-4.981-7.24-5.613-7.542-11.438-5.473-4.98 1.768-5.022 1.766-7.389-.458-3.83-3.598-4.032-5.834-.771-8.57 4.57-3.837 14.157-10.349 15.235-10.349 1.056 0 8.122 8.211 8.122 9.438 0 .402 3.713 5.452 8.25 11.221 12.374 15.734 12.024 14.821 7.283 18.963l-3.968 3.466-20.032-.638c-11.018-.35-20.258-.648-20.533-.662-.275-.014-2.187.028-4.248.094l-3.749.118 3.596 5.005c4.604 6.408 5.9 7.103 10.032 5.376 5.137-2.147 8.885-1.769 10.754 1.084 2.71 4.134 2.012 5.98-3.635 9.621-2.887 1.862-5.7 3.572-6.25 3.8-.55.227-2.073 1.245-3.385 2.263-3.22 2.5-3.548 2.411-7.042-1.899zm11.481-3.75c3.691-2.475 7.101-4.5 7.579-4.5 1.545 0 .919-2.643-1.048-4.423-1.816-1.644-2.2-1.643-7.477.02-5.397 1.702-5.627 1.697-7.719-.172-3.734-3.334-10.072-12.504-9.562-13.833.483-1.26 18.133-1.347 41.689-.205 7.815.379 8.74.22 11.25-1.94 1.504-1.293 2.734-2.766 2.734-3.274 0-.507-3.214-4.917-7.143-9.798-3.93-4.881-8.317-10.675-9.75-12.875-1.434-2.2-3.69-5.443-5.013-7.207l-2.406-3.207-3.094 2.162c-5.977 4.177-11.594 9.187-11.594 10.341 0 .641.704 1.75 1.563 2.463 1.292 1.072 2.405.995 6.407-.444 5.964-2.145 6.933-1.648 12.85 6.582 4.564 6.35 4.901 9.45.92 8.472-4.525-1.112-46.3-.97-48.295.165-4.82 2.74-4.809 2.662-1.039 7.91 1.977 2.75 3.594 5.301 3.594 5.667 0 .366 2.842 4.137 6.315 8.38 3.473 4.244 7.329 9.178 8.568 10.966 1.24 1.787 2.637 3.25 3.107 3.25.47 0 3.873-2.025 7.564-4.5zm412.367-2.51c-8.972-1.519-19.198-8.693-22.993-16.132-4.459-8.739-.112-22.161 9.164-28.3 3.483-2.305 4.655-2.571 8.716-1.98 7.41 1.077 10.482 2.972 14.82 9.14 1.482 2.106 1.258 2.7-4.505 11.91-5.565 8.896-5.923 9.802-4.344 11.001.947.72 2.424 1.322 3.283 1.34 4.019.081 9.938-9.37 9.938-15.87 0-4.43 1.037-5.558 4.347-4.727 3.118.783 6.127 9.266 5.244 14.786-1.249 7.808-7.019 15.703-13.463 18.42-3.667 1.546-3.535 1.541-10.207.412zm15.243-7.972c5.964-6.658 7.438-12.135 5.022-18.654-1.74-4.697-3.87-5.348-3.403-1.04.34 3.144-4.134 12.493-7.133 14.904-2.825 2.27-8.837 2.25-11.663-.038-2.185-1.769-2.196-1.884-.505-5.154.95-1.84 3.72-6.45 6.153-10.247l4.424-6.901-2.28-2.836c-5.178-6.444-14.386-8.002-19.5-3.302-6.903 6.344-10.252 14.77-8.265 20.79 1.794 5.437 8.344 12.055 15.397 15.557 5.096 2.53 6.98 2.956 11.556 2.613 5.14-.386 5.75-.727 10.197-5.692zm-27.505-11.268c-1.35-1.238-2.713-3.71-3.03-5.495-.475-2.672-.02-3.88 2.577-6.837 3.23-3.678 3.622-3.753 10.794-2.08 2.629.614 2.31 3.858-1.02 10.348-3.584 6.989-5.312 7.742-9.321 4.064zm7.192-5.816c1.732-2.787 3.15-5.226 3.15-5.421 0-.195-1.388-.659-3.083-1.031-5.776-1.269-10.11 5.437-6.263 9.69.91 1.005 1.968 1.828 2.35 1.828.383 0 2.113-2.28 3.846-5.066zm51.9-129.237l-3.75-1.05v-5.764c0-3.17-.39-6.005-.865-6.3-.476-.293-5.47-.611-11.1-.706-11.79-.198-11.997-.062-12.02 7.873-.015 4.848-.197 5.25-2.38 5.25-2.631 0-7.396-4.254-8.753-7.815-1.499-3.93-.99-10.497 1.075-13.884 2.777-4.553 7.828-5.695 21.346-4.823l10.804.698 1.165-3.088c1.039-2.752 1.607-3.088 5.225-3.088 3.655 0 4.681.627 10.281 6.277 3.422 3.452 6.221 7.015 6.221 7.918 0 3.07-1.209 4.805-3.357 4.819-5.76.036-6.643.903-6.643 6.52 0 8.76-.34 9.098-7.25 7.163zm4.607-5.447c.341-2.063.625-5.213.631-7 .01-3.066.224-3.257 3.761-3.368 2.063-.066 4.088-.066 4.5 0 .413.065.75-.684.75-1.664 0-2.53-10.877-13.218-13.454-13.218-1.43 0-2.477.978-3.257 3.045l-1.15 3.045-13.647-.182c-12.23-.163-13.925.025-16.312 1.807-5.142 3.839-5.405 12.787-.52 17.673 1.437 1.437 2.98 2.612 3.427 2.612.447 0 .948-2.584 1.113-5.741.417-7.987 2.303-8.85 16.718-7.644l10.582.885.296 6.186c.296 6.188.686 6.77 4.823 7.198.616.064 1.398-1.572 1.74-3.634zm-486.108-1.953c-2.833-.37-3.25-.8-3.25-3.36 0-1.616-.337-2.965-.75-2.999-.412-.034-8.625-1.324-18.25-2.866l-17.5-2.803-2.037 2.365c-2.43 2.822-6.478 3.21-6.431.616.017-.963.678-6.475 1.468-12.25.79-5.775 1.451-10.866 1.468-11.313.018-.448 1.495-.673 3.282-.5 2.875.277 3.25.66 3.25 3.311 0 2.787.318 3.047 4.5 3.676 9.08 1.367 8.568 1.753 9.85-7.424 1.543-11.046 1.651-10.579-2.6-11.262-2.062-.332-4.673-.789-5.802-1.015-1.46-.293-2.56.446-3.807 2.558-1.825 3.09-6.01 4.137-6.873 1.719-.246-.688.277-6.425 1.16-12.75l1.607-11.5h3.483c3.016 0 3.523.352 3.787 2.629.298 2.575.587 2.673 14 4.769 24.34 3.803 23.923 3.793 25.36.639 1.107-2.43 1.637-2.667 4.79-2.146 1.95.323 4.17.592 4.933.598 1.479.012 1.327 2.762-1.028 18.596l-1.103 7.415h-4.297c-6.053 0-7.46-.763-7.46-4.046 0-2.62-.353-2.88-4.75-3.477-2.612-.355-5.522-.858-6.467-1.118-1.187-.327-1.863.238-2.191 1.834-.713 3.462-2.522 17.212-2.292 17.425.11.101 3.146.497 6.747.878 6.368.674 6.578.623 7.728-1.901.97-2.13 1.857-2.592 4.954-2.58 6.556.027 6.607.187 4.54 14.08-2.047 13.752-1.668 13.29-10.019 12.202zm7.653-12.3c.667-5.5.935-10.45.596-11-.995-1.61-4.344-1.145-5.43.753-2.607 4.554-2.318 4.47-10.925 3.21l-8.144-1.19.075-3.635c.042-2 .617-7.235 1.278-11.635l1.203-8 7.926.297c8.715.326 10.249 1.046 10.709 5.026.25 2.172.887 2.733 3.372 2.976l3.064.3 1.193-8.8c.656-4.84 1.452-9.755 1.77-10.923.485-1.785.07-2.199-2.592-2.59-2.593-.38-3.325-.057-4.022 1.777-.469 1.234-1.307 2.524-1.863 2.867-1.04.643-39.495-4.93-41.173-5.967-.517-.32-.94-1.68-.94-3.022 0-3.066-1.803-3.208-2.426-.191-1.17 5.672-2.657 19-2.174 19.483.296.296 1.34-.87 2.319-2.591.98-1.721 2.456-3.123 3.281-3.116 2.711.025 14.201 1.842 14.68 2.321.913.912-3.074 22.59-4.236 23.036-.65.25-4.614-.029-8.812-.618l-7.632-1.07v-3.348c0-6.554-1.59-3.2-2.798 5.903-1.599 12.042-1.572 12.429.67 9.66l1.872-2.312 18.378 2.769c20.351 3.066 23.084 3.83 22.825 6.39-.304 2.99-.038 3.243 3.398 3.243h3.346zm437.217-26.652c-4.54-2.311-8.74-8.35-10.048-14.445-1.478-6.89-1.377-17.411.178-18.654 2.075-1.658 12.168-4.228 13.069-3.328.462.462 1.267 2.745 1.79 5.072 1.001 4.454.005 7.01-2.731 7.01-3.21 0-.627 11.469 2.83 12.566 2.992.95 3.76-1.053 3.777-9.848.025-12.65 3.408-18.002 12.152-19.226 5.731-.802 11.306 1.762 14.543 6.69 2.274 3.46 4.881 15.101 3.781 16.88-.348.565.08 2.115.953 3.447 2.668 4.072 1.982 5.174-4.608 7.4-8.716 2.943-10.417 2.786-11.18-1.034-1.079-5.39-.696-7.712 1.527-9.27 1.91-1.337 2.05-1.98 1.25-5.702-1.028-4.777-3.861-7.342-5.416-4.903-.526.825-.963 5.257-.972 9.849-.024 13.061-3.154 17.48-13.248 18.7-2.918.353-5.335-.028-7.647-1.204zm12.32-2.5c4.515-2.057 5.762-5.299 6.202-16.123.222-5.494.646-10.378.94-10.855.819-1.324 7.044-1.032 8.151.383 1.511 1.93 3.409 10.707 2.606 12.051-.394.66-1.517 1.777-2.496 2.483-1.34.967-1.628 2.08-1.167 4.5.336 1.769.702 3.333.812 3.477.169.22 4.59-1.184 10.43-3.31 1.08-.394 1.139-.794.25-1.684-.643-.642-1.17-3.665-1.173-6.717-.008-7.76-1.53-12.415-5.402-16.52-2.936-3.113-3.905-3.527-8.21-3.508-8.91.04-12.396 5.206-12.124 17.963.161 7.585-.015 8.4-2.204 10.172-3.138 2.54-5.002 2.046-7.77-2.062-3.124-4.637-3.224-12.522-.178-14.152 1.695-.908 1.986-1.73 1.49-4.212-.34-1.697-.769-3.236-.953-3.42-.185-.185-2.655.413-5.49 1.328-5.883 1.9-6.025 2.399-4.09 14.325 1.219 7.512 3.993 12.985 7.768 15.327 3.122 1.937 9.006 2.196 12.607.555zm-442.44-29.251c-2.994-1.105-3.5-1.75-3.5-4.467 0-3.011-.414-3.356-8-6.673-7.844-3.43-8.07-3.466-11.608-1.888-1.985.886-4.685 1.458-6 1.272-2.057-.29-2.438-.967-2.722-4.838-.545-7.445.792-17 2.38-17 .765 0 3.992 1.196 7.17 2.658 3.18 1.461 10.038 4.37 15.242 6.463 8.383 3.373 9.645 3.64 11.078 2.343 3.126-2.83 10.96-.605 10.96 3.111 0 .805-1.777 5.617-3.949 10.694-4.28 10.005-5.008 10.554-11.05 8.325zm7.45-6.844c1.016-2.888 2.204-5.715 2.64-6.283.437-.568 1.264-2.269 1.839-3.78.943-2.48.79-2.843-1.582-3.745-2.014-.766-3.02-.642-4.315.53-2.108 1.906-5.008 1.94-9.248.11a1825.7 1825.7 0 01-8.023-3.5c-2.606-1.145-4.997-2.082-5.313-2.082-.316 0-3.022-1.199-6.014-2.664-2.992-1.465-5.621-2.477-5.843-2.25-.222.228-.55 3.98-.73 8.337-.358 8.729.42 9.933 4.636 7.171 3.546-2.324 5.83-2.008 14.877 2.057 8.638 3.88 9.775 4.797 8.871 7.153-.315.822.258 2.09 1.284 2.84 3.418 2.5 4.984 1.618 6.922-3.894zm404.32-8.261c-4.83-3.281-6.797-8.991-4.374-12.69 1.61-2.457 1.583-2.505-2.4-4.301-5.224-2.356-7.996-6.856-7.996-12.984 0-4.207.456-5.206 4-8.748 3.986-3.987 4.018-3.998 10.607-3.578 6.596.42 6.62.432 12.251 6.388 3.103 3.282 6.16 6.857 6.794 7.946 1.076 1.846 1.268 1.867 2.875.317 2.014-1.941 2.235-6.046.5-9.287-1.042-1.95-1.83-2.22-5.374-1.843-3.818.406-4.294.187-5.903-2.715-3.711-6.694-1.584-9.997 6.434-9.99 10.012.009 19.816 11.436 19.816 23.096 0 6.216-1.929 9.685-6.774 12.183-1.5.773-6.824 3.509-11.834 6.08-8.481 4.352-9.073 4.855-8.603 7.311.349 1.826-.062 3.052-1.333 3.982-2.637 1.928-4.5 1.678-8.687-1.167zm7.567-3.745c-.211-1.234-.036-2.694.39-3.244.425-.55 5.661-3.475 11.636-6.5 12.356-6.256 15.653-9.39 15.603-14.827-.06-6.44-5.749-15.667-11.898-19.296-3.36-1.982-10.058-2.22-11.857-.422-.343.343.232 2.21 1.276 4.15 1.506 2.796 2.326 3.397 3.956 2.897 3.9-1.194 4.782-.994 6.693 1.521 4.724 6.22 2.877 14.977-3.159 14.977-1.637 0-2.977-.346-2.977-.768 0-1.334-8.011-10.527-11.267-12.93-7.6-5.607-18.733-.19-18.733 9.115 0 3.838 4.127 8.717 8.954 10.584 5.25 2.03 5.798 3.008 3.07 5.477-3.602 3.26-1.91 9.25 3.325 11.77 3.655 1.758 5.554.805 4.988-2.504zm-6.97-14.516c-6.959-5.637-5.294-15.228 2.643-15.228 3.25 0 12.56 9.073 11.675 11.378-.69 1.798-7.807 5.632-10.395 5.6-.984-.012-2.75-.8-3.923-1.75zm7.754-2.29l4.04-2.061-2.442-3.189c-1.343-1.753-3.599-3.848-5.012-4.655-2.325-1.327-2.767-1.288-4.638.405-1.138 1.03-2.069 2.547-2.069 3.373 0 1.451 4.6 8.189 5.59 8.189.27 0 2.308-.928 4.53-2.062zM35.736 204.374l-3.303-1.435.631-6.276c.347-3.452.807-6.839 1.021-7.526.956-3.061 12.42-.048 14.484 3.807 2.42 4.521-2.07 12.974-6.853 12.904-1.473-.022-4.164-.685-5.98-1.474zm8.802-2.487c1.22-1.22 2-3.333 2-5.417 0-3.132-.378-3.562-4.522-5.145-2.487-.95-4.84-1.41-5.228-1.021-.388.388-.715 3.24-.728 6.337-.02 5.16.187 5.691 2.478 6.34 3.775 1.067 3.853 1.053 6-1.094zm57.826-11.755c-4.424-2.887-17.972-12.662-27.285-19.686-11.175-8.429-12.054-8.89-14.475-7.594-2.775 1.485-6.621 1.275-8.044-.439-.977-1.177-.768-3.243 1.036-10.25 1.243-4.827 2.627-9.191 3.074-9.699 1.21-1.372 5.05.694 13.18 7.094 3.953 3.112 7.671 6.023 8.261 6.47.721.544.939-.107.663-1.985-1.34-9.138 6.585-18.156 15.958-18.156 7.784 0 17.441 5.884 23.814 14.51 3.626 4.91 3.992 5.962 3.992 11.487 0 9.24-3.604 15.251-11.012 18.366-3.15 1.325-3.426 1.772-3.14 5.095.283 3.281-1.078 6.55-2.72 6.537-.345-.003-1.831-.79-3.302-1.75zm3.974-5.89c-.283-4.381-.13-4.7 2.7-5.625 6.612-2.16 11.5-9.153 11.5-16.453 0-9.936-15.117-24.131-25.808-24.235-3.73-.036-4.918.534-8.852 4.251-4.332 4.093-4.553 4.573-4.728 10.244-.138 4.512-.562 6.022-1.752 6.251-.863.167-5.572-2.86-10.464-6.727-4.893-3.867-9.376-7.037-9.963-7.046-1.494-.021-4.912 14.906-3.692 16.126.607.606 1.895.526 3.533-.22 3.771-1.718 6.394-.68 15.787 6.244a5431.783 5431.783 0 0015.94 11.7c4.124 3.013 8.85 6.505 10.5 7.76 4.633 3.524 5.646 3.09 5.3-2.27zm-13.554-14.894c-10.438-7.383-11.049-8.78-6.713-15.33 3.874-5.856 6.492-6.874 11.674-4.54 5.136 2.312 13.303 8.624 14.815 11.45 2.191 4.095-4.238 14.959-8.853 14.959-.922 0-5.838-2.943-10.923-6.54zm13.455 2.289c5.522-6.063 5.534-9.499.05-13.986-6.576-5.379-12.35-8.032-14.525-6.673-2.457 1.535-6.413 7.743-6.035 9.472.27 1.236 16.373 13.3 17.885 13.4.316.02 1.498-.976 2.625-2.213zm358.599-9.856c-1.76-.51-5.628-3.353-8.595-6.32-10.444-10.443-9.88-21.102 1.686-31.917 12.086-11.302 26.388-11.432 36.126-.33 2.496 2.845 5.033 6.816 5.639 8.823 4.882 16.183-17.046 34.895-34.856 29.744zm17.647-4.367c6.868-3.48 14.57-12.1 15.389-17.225.366-2.291.214-5.356-.339-6.81-1.936-5.093-7.135-11.522-10.8-13.354-8.756-4.38-15.83-3.384-24.542 3.453-13.315 10.45-14.392 20.594-3.323 31.306 6.825 6.604 14.16 7.421 23.615 2.63zm-19.547-7.927c-6.39-6.39-3.384-12.96 10.255-22.414 4.173-2.892 9.379-2.865 12.046.064 5.903 6.481 5.456 10.906-1.773 17.558-9.978 9.18-14.973 10.347-20.528 4.792zm9.916.246c3.451-1.823 12.05-9.81 13.522-12.56 1.22-2.278 1.077-2.824-1.608-6.143-1.62-2.004-3.732-3.798-4.694-3.987-2.927-.575-13.35 7.434-16.95 13.027-2.007 3.117-1.216 5.39 3.043 8.74 3.051 2.4 3.717 2.492 6.687.923zm-339.349-2.888c-3.061-3.865-3.125-4.125-1.469-5.956 1.827-2.019 1.95-1.816-8.725-14.477-.452-.536-3.127-1.21-5.944-1.5-7.774-.797-8.108-2.227-2.914-12.471 2.385-4.705 4.908-8.554 5.605-8.554.697 0 4.128 3.196 7.624 7.103 3.496 3.907 7.256 8.111 8.356 9.343 1.1 1.231 3.35 3.82 5 5.752 2.709 3.172 3.277 3.417 5.849 2.525 2.502-.867 3.214-.621 5.856 2.02 2.138 2.138 2.81 3.552 2.32 4.883-.756 2.058-15.808 15.374-17.379 15.374-.538 0-2.418-1.819-4.179-4.042zm8.533-2.223c2.2-1.785 5.533-4.678 7.406-6.429 3.323-3.106 3.365-3.244 1.744-5.718-1.424-2.174-2.025-2.396-4.22-1.561-1.408.535-2.931.973-3.384.973-.454 0-5.712-5.625-11.685-12.5-5.973-6.875-11.129-12.5-11.457-12.5-1.105 0-7.906 14.187-7.283 15.195.339.548 2.025.784 3.748.523 4.02-.61 7.376 1.143 11.131 5.815 1.65 2.052 4.296 5.26 5.88 7.128 2.745 3.24 2.799 3.484 1.153 5.303-1.635 1.806-1.628 2.037.121 4.44 1.016 1.393 2.071 2.543 2.346 2.555.275.012 2.3-1.439 4.5-3.224zm288.61-17.118c-1.25-1.331-4.164-2.897-6.475-3.479-5.49-1.382-15.448-7.872-18.733-12.208-5.894-7.78-6.152-15.614-.869-26.345 4.337-8.809 11.104-16.992 17.644-21.334 5.224-3.468 6.184-3.748 12.736-3.709 8.787.052 14.986 2.8 21.928 9.72 2.662 2.653 6.14 5.084 7.728 5.402 5.005 1 5.562 2.81 2.31 7.5a798.866 798.866 0 00-6.12 8.993c-3.641 5.441-5.401 5.881-9.645 2.41-2.31-1.888-2.76-2.88-2.25-4.963l1.266-5.173c1.229-5.013-9.086-12.537-15.113-11.025-3.501.88-8.642 6.169-13.698 14.094-6.082 9.535-7.178 12.904-5.35 16.441 1.67 3.229 5.048 5.625 10.784 7.648 4.058 1.432 4.151 1.412 7.227-1.57 1.713-1.66 3.741-3.019 4.506-3.019 2.304 0 8 4.382 8.007 6.16.006 1.496-11.24 15.96-12.914 16.61-.382.147-1.718-.821-2.969-2.153zm5.403-4.277c1.093-1.463 3.431-4.275 5.196-6.25l3.208-3.59-2.208-1.728c-2.941-2.3-3.751-2.215-6.925.728-3.345 3.101-5.891 3.129-12.325.133-5.96-2.775-10.468-7.725-10.437-11.46.042-5.133 7.755-18.34 15.41-26.386 6.005-6.313 14.006-5.417 21.528 2.41 4.484 4.667 4.506 4.752 2.609 10.069-1.283 3.595-1.229 3.856 1.196 5.764 1.397 1.099 2.64 1.88 2.76 1.734 2.766-3.311 10.268-15.29 9.925-15.846-.26-.42-1.735-1.041-3.278-1.38-1.543-.34-4.315-2.217-6.16-4.173-4.301-4.56-9.21-7.624-15.595-9.735-10.585-3.499-21.083 2.374-30.656 17.148-6.684 10.316-8.316 17.11-5.869 24.44 2.108 6.312 15.648 16.782 21.703 16.782 1.323 0 3.193.862 4.155 1.917 2.398 2.626 3.448 2.52 5.763-.577zm-275.693-2.09c-2.075-2.437-5.82-8.8-5.82-9.889 0-.497 2.002-1.996 4.45-3.333 4.206-2.298 4.55-2.338 6.328-.73 2.542 2.302 4.1 2.149 8.49-.834 3.974-2.7 4.936-6.065 2.052-7.172-.925-.354-4.412.335-7.75 1.532-8.13 2.915-16.384 2.93-19.491.034-3.709-3.454-5.23-8.242-4.46-14.04.87-6.566 5.976-11.834 14.47-14.93 3.233-1.18 6.391-2.762 7.017-3.516.627-.755 1.914-1.372 2.862-1.372 1.82 0 5.032 2.97 5.032 4.654 0 .549 1.125 2.054 2.5 3.346 3.453 3.244 3.158 4.56-1.712 7.634-4.047 2.554-4.324 2.595-7.062 1.024-2.675-1.536-3.083-1.517-6.664.31-4.386 2.238-5.585 4.353-3.464 6.113 1.178.978 2.637.878 7.19-.494 13.253-3.993 14.836-4.101 19.056-1.309 6.467 4.28 8.732 11.715 5.743 18.85-2.283 5.45-8.245 9.873-18.587 13.789-6.7 2.536-8.26 2.588-10.18.333zm9.953-2.661c12.816-5.023 18.873-11.702 17.634-19.448-.655-4.093-2.57-6.78-6.755-9.479-2.798-1.805-2.992-1.792-11.146.75-9.7 3.025-12.19 3.183-14.677.933-2.867-2.595-2.175-5.082 2.321-8.339 4.429-3.208 6.766-3.657 10.007-1.922 1.48.792 2.808.759 4.934-.122 1.6-.662 2.91-1.425 2.91-1.694 0-1.01-6.368-10.268-7.062-10.268-.399 0-.975.651-1.28 1.448-.306.796-2.492 1.959-4.857 2.584-5.125 1.354-13.335 6.373-14.338 8.765-1.969 4.693-2.264 9.785-.753 12.988 3.103 6.577 8.75 7.828 19.03 4.215 6.755-2.375 11.55-2.56 13.248-.513 4.271 5.146-9.969 16.133-14.733 11.369-.86-.86-1.906-.83-4.2.12-1.68.697-3.056 1.672-3.056 2.167 0 1.243 5.109 8.857 5.943 8.857.373 0 3.446-1.085 6.83-2.411zm-66.273-11.701c-1.1-.537-3.034-2.559-4.298-4.492-2.653-4.058-2.287-6.497 1.598-10.646 3.74-3.994 7.572-3.688 11.815.945 4.496 4.908 4.598 9.107.308 12.716-3.203 2.696-6.023 3.137-9.423 1.477zm8.046-3.343c3.207-3.207 3.096-4.744-.65-9.01-3.594-4.095-5.371-4.376-8.581-1.36-3.1 2.912-2.916 5.97.586 9.72 3.5 3.746 5.405 3.89 8.645.65zm97.954-7.196c-3.333-.89-10.257-8.357-12.429-13.405-1.124-2.615-2.575-7.848-3.224-11.63-1.036-6.043-.962-7.447.615-11.574 2.745-7.19 10.904-12.515 20.602-13.449 9.034-.869 13.936 2.664 13.936 10.045 0 2.991-.433 3.62-3.15 4.566-4.244 1.48-7.4 1.381-10.719-.334-2.249-1.163-3.227-1.2-5.2-.198-2.115 1.075-2.415 1.884-2.309 6.224.168 6.879 4.597 16.172 8.13 17.058 3.11.781 9.498-2.312 14.135-6.846 4.053-3.962 6.113-3.195 6.113 2.276 0 5.944-3.195 10.96-9.093 14.275-4.913 2.762-13.035 4.158-17.407 2.992zm16.108-4.925c4.806-2.74 7.317-6.186 8.123-11.15l.578-3.565-5.8 4.285c-7.69 5.68-13.218 6.502-16.914 2.514-2.783-3.003-5.981-10.753-7.023-17.019-.542-3.262-.28-4.425 1.408-6.237 3.023-3.245 6.554-3.818 10.482-1.703 7.072 3.809 13.688-1.791 8.586-7.268-4.802-5.154-16.849-3.25-24.548 3.88l-4 3.705.063 8.817c.05 6.863.562 9.949 2.312 13.924 2.588 5.88 8.484 12.034 12.125 12.66 4.352.747 10.36-.422 14.608-2.843zm100.712-5.857c-2.849-.727-7.285-2.34-9.858-3.585-4.534-2.196-4.66-2.375-4.08-5.873.328-1.985.601-4.86.607-6.39.014-3.414 1.692-4.144 7.523-3.27 4.13.62 4.488.905 4.488 3.572 0 2.486.537 3.06 3.768 4.028 5.619 1.683 9.661.95 10.055-1.822.272-1.921-.58-2.662-5.5-4.784-8.9-3.838-10.281-4.647-13.517-7.914-2.783-2.81-2.964-3.435-2.509-8.652.27-3.092 1.24-6.767 2.156-8.165 3.469-5.293 15.658-7.348 24.047-4.053 2.2.864 5.71 1.794 7.8 2.066l3.8.495-.68 7.14c-.373 3.927-.872 7.477-1.108 7.89-.515.898-7.494 1-9.73.143-.931-.357-1.582-1.781-1.582-3.461 0-2.51-.51-2.992-4.23-3.994-4.724-1.272-7.27-.356-7.27 2.616 0 1.324 2.026 2.71 7.278 4.98 9.406 4.065 12.946 7.445 13.806 13.18 1.846 12.31-10.002 19.744-25.264 15.853zm16.782-3.134c3.929-2.01 5.898-5.753 5.898-11.21 0-6.192-2.68-8.864-12.812-12.77-8.12-3.13-9.81-4.994-8.04-8.877 1.413-3.103 3.882-3.98 8.67-3.082 5.318.997 7.182 2.278 7.182 4.934 0 2.51 1.66 3.572 5.582 3.572 2.193 0 2.418-.412 2.418-4.418 0-2.43.273-5.13.607-6 .448-1.167-.012-1.582-1.75-1.583-1.296 0-4.724-.9-7.618-2-6.13-2.33-11.987-2.556-16.521-.637-4.603 1.948-6.44 4.465-7.249 9.929-.686 4.642-.586 4.908 3.23 8.537 2.166 2.06 5.707 4.285 7.87 4.944 6.819 2.076 10.431 4.852 10.431 8.013 0 3.992-1.7 5.215-7.25 5.215-6.248 0-10.75-2.261-10.75-5.4 0-1.842-.69-2.488-3.187-2.988-3.991-.798-4.58-.173-4.954 5.255-.292 4.249-.18 4.431 4.155 6.75 2.45 1.31 5.587 2.415 6.97 2.453 1.384.039 3.416.468 4.516.953 2.422 1.068 9.036.234 12.602-1.59zm-82.745-.879c-4.213-1.833-7.334-9.974-7.414-19.342-.089-10.308-1.05-14.09-3.943-15.528-2.105-1.047-2.5-1.945-2.5-5.686v-4.443l4.5-.795c2.475-.438 6.525-.675 9-.528l4.5.268 1.326 15.5c1.459 17.052 2.246 19.023 7.58 18.968 6.205-.064 6.883-1.551 6.08-13.344-.712-10.433-.738-10.516-3.601-11.514-2.653-.925-2.885-1.402-2.885-5.926V34.15l7.674-.492c11.846-.76 10.954-1.96 11.956 16.06l.87 15.663 3.813 1.79c3.194 1.5 3.762 2.222 3.5 4.448-.259 2.196-1.614 3.313-7.813 6.437-9.614 4.846-11 4.887-11 .331 0-3.936-.926-4.449-2.753-1.524-1.725 2.763-8.53 6.032-12.457 5.985-1.81-.022-4.704-.655-6.433-1.407zm11.636-2.168c2.218-.887 4.958-2.912 6.088-4.5 3.365-4.725 4.889-3.908 6.13 3.289.248 1.435 1.329 1.165 7.54-1.88 3.987-1.955 7.25-4.137 7.25-4.847 0-.711-1.576-1.813-3.501-2.448-4.214-1.391-4.243-1.496-5.235-19l-.765-13.5-7.25-.294-7.25-.294v3.018c0 2.315.672 3.366 2.88 4.508 2.58 1.334 2.943 2.142 3.495 7.775 1.388 14.16 1.186 16.855-1.409 18.813-4.75 3.582-12.766 2.542-14.462-1.878-.308-.801-1.093-8.137-1.745-16.302-1.335-16.72-.489-15.53-10.12-14.21-4.451.61-4.639.77-4.639 3.93 0 2.623.446 3.36 2.183 3.614 2.748.403 3.56 3.316 3.92 14.07.367 10.934 3.088 19.283 6.719 20.612 3.873 1.417 5.646 1.335 10.17-.476z" fill="#018e74"/></svg>