<svg xmlns="http://www.w3.org/2000/svg" width="221.437" height="372.574" viewBox="0 0 58.589 98.577"><g stroke="#570000" paint-order="fill markers stroke"><path d="M16.824 55.997c-.91-.086-1.603-.275-2.17-.592-1.13-.634-2.618-2.082-3.278-3.194-.46-.775-.634-1.54-.684-3.013-.058-1.744.14-3.126.58-4.055.688-1.449 5.903-7.053 6.563-7.052.269 0 .707.361 1.905 1.568a54.74 54.74 0 002.567 2.388c1.75 1.508 2.3 2.152 2.839 3.327.418.91.553 1.649.55 3.011-.005 1.754-.305 2.959-1.049 4.204-.827 1.384-2.294 2.601-3.641 3.02-1.106.343-2.898.51-4.182.388zm1.814-3.949c1.28-.208 2.277-1.045 2.75-2.31.216-.576.338-1.725.235-2.208-.162-.757-1.63-2.005-2.762-2.35-1.105-.335-2.135-.037-3.057.886-1.154 1.153-1.442 2.68-.765 4.05.556 1.124 1.655 1.858 3.008 2.007.043.004.31-.03.591-.075zM5.728 39.079c-2.677-.486-4.674-2.444-5.473-5.366-.259-.95-.301-2.662-.09-3.684.377-1.825 1.55-3.722 2.896-4.682.986-.703 2.061-1.064 3.638-1.22 1.656-.163 2.9.024 4.17.629 1.683.801 3.27 2.182 7.556 6.577l2.335 2.395-1.554 1.464-1.554 1.464-.698-.743c-.821-.874-1.272-1.175-1.654-1.103-.302.056-.751.495-1.217 1.19-.623.929-1.999 2.095-2.986 2.532-.518.23-1.447.475-2.2.582-.76.108-2.486.089-3.169-.035zm2.464-3.993c1.74-.32 2.962-1.892 2.859-3.677-.062-1.065-.63-1.996-1.616-2.645-.758-.5-1.234-.64-2.027-.596-.501.027-.745.085-1.113.266-.679.331-1.306 1-1.717 1.828-.331.669-.336.689-.336 1.512 0 .744.024.885.215 1.294.424.905 1.605 1.826 2.586 2.018.5.097.62.097 1.149 0z" fill="#920000" stroke-width=".05949557999999999"/><path d="M20.646 39.818c-.363-.229-2.56-2.325-2.56-2.443 0-.03.73-.756 1.623-1.615l1.622-1.562 1.496 1.493 1.496 1.493-1.206 1.193c-1.02 1.009-1.836 1.686-2.033 1.686-.027 0-.224-.11-.438-.245zM24.476 36.187c-.36-.22-1.708-1.581-2.034-2.054-.14-.203-.254-.43-.254-.504 0-.188.675-.996 1.838-2.204l.99-1.025.96.947c.53.52 1.172 1.206 1.428 1.524l.465.578-.252.35c-.509.71-2.552 2.558-2.825 2.556-.022 0-.164-.076-.316-.168zM27.642 31.896c-1.203-1.24-1.746-1.9-1.746-2.122 0-.075.628-.774 1.396-1.553l1.396-1.415.7.692a75.424 75.424 0 011.558 1.606l.857.912-1.52 1.518-1.52 1.519z" fill="maroon" stroke-width=".05949557999999999"/><path d="M24.419 28.479c-1.721-1.488-7.256-7.364-8.639-9.172-.82-1.072-1.162-2.639-.996-4.568.254-2.96 1.594-5.022 4.052-6.232 1.271-.627 1.793-.738 3.47-.738 1.213 0 1.51.025 2.034.17.757.21 1.765.677 2.433 1.126 1.014.681 2.246 2.14 2.604 3.08.246.648.328 1.748.283 3.806-.043 1.995-.096 2.353-.449 3.05-.563 1.112-1.967 2.588-2.93 3.079-.606.309-.888.653-.83 1.01.06.368.242.611 1.372 1.829.653.704.966 1.1.966 1.223 0 .224-.432.768-1.194 1.507-.648.626-1.455 1.292-1.568 1.292-.04 0-.314-.208-.608-.462zm-.952-9.95c1.033-.319 1.885-1.182 2.205-2.233.229-.755.18-1.64-.126-2.32-.523-1.16-2.097-2.104-3.516-2.108-.501-.002-.672.036-1.122.247-1.247.587-2.03 1.843-2.032 3.263-.001.57.163 1.226.413 1.651.377.64 1.115 1.25 1.82 1.504.573.206 1.684.204 2.358-.004z" fill="#920000" stroke-width=".05949557999999999"/><path d="M31.965 28.77c-.356-.213-1.787-1.66-2.11-2.131-.138-.203-.252-.446-.252-.54 0-.116.453-.629 1.4-1.586l1.4-1.416 1.5 1.506L35.4 26.11l-1.264 1.238c-.695.681-1.407 1.317-1.582 1.413l-.318.174zM34.516 24.183l-1.347-1.356.825-1.025c1.096-1.362 1.808-2.149 2.001-2.21.232-.074.617.197 1.269.892.62.662 1.268 1.593 1.412 2.032.101.305.125.253-.423.917-.256.312-1.82 1.704-2.257 2.012-.115.08-.318-.093-1.48-1.262z" fill="maroon" stroke-width=".05949557999999999"/><path d="M38.241 56.026c-1.88-.296-3.35-1.04-4.551-2.305-1.534-1.616-2.201-3.7-1.965-6.138.217-2.232.42-2.624 2.471-4.749.856-.887 1.65-1.748 1.765-1.914.195-.281.201-.315.089-.486-.254-.388-1.722-1.949-4.087-4.348l-2.457-2.491.14-.217c.622-.958 1.726-2.198 2.157-2.421.222-.115.242-.108.77.264 1.244.879 3.804 3.234 7.087 6.518 3.934 3.936 6.047 6.312 6.59 7.412 1.528 3.095.403 7.536-2.42 9.556-1.178.842-2.622 1.29-4.287 1.33-.586.015-1.172.01-1.302-.011zm1.66-4.095c.576-.15.984-.383 1.535-.878 2.054-1.846 1.502-5.01-1.022-5.861-.552-.186-1.588-.227-2.12-.084-1.015.273-2.275 1.769-2.53 3.002-.187.904.15 1.73 1.097 2.689.663.672 1.103.958 1.737 1.128.562.151.737.152 1.303.004zM49.403 36.865c-2.109-.482-2.737-.927-6.468-4.587-1.02-1-2.866-2.857-4.102-4.127l-2.248-2.31 1.41-1.369 1.41-1.37 1.116 1.087c1.196 1.166 2.2 1.912 2.572 1.912.335 0 .84-.429 1.42-1.203.635-.85 1.25-1.48 1.807-1.851 2.647-1.764 6.335-1.815 8.956-.123 3.224 2.081 4.227 6.465 2.32 10.132-1 1.922-2.676 3.21-4.908 3.773-1.193.302-2.081.311-3.285.036zm2.225-4.227c1.03-.218 1.956-.95 2.434-1.92.262-.532.271-.584.271-1.462s-.01-.93-.27-1.46a3.544 3.544 0 00-1.64-1.636c-.953-.446-2.317-.388-3.217.137-.462.27-1.018.86-1.288 1.37-.58 1.095-.64 2.118-.173 2.995.326.61 1.1 1.465 1.53 1.69.646.336 1.581.45 2.353.286zM38.093 20.414l-1.477-1.517 1.213-1.23c1.198-1.216 1.68-1.764 1.868-2.125.085-.164.07-.213-.128-.421-.123-.13-.616-.53-1.096-.89-.968-.725-1.418-1.194-2.043-2.132-1.177-1.768-1.611-3.205-1.458-4.826.222-2.35 1.438-4.512 3.28-5.833.676-.484 1.84-1.018 2.676-1.228.962-.242 2.623-.242 3.517 0 2.75.741 4.913 2.824 5.669 5.458.218.758.292 2.186.16 3.085a9.347 9.347 0 01-.72 2.397c-.512 1.085-2.612 3.425-6.993 7.796L39.57 21.93zm5.433-9.238c.916-.226 1.906-1.072 2.34-1.996.612-1.31.263-3.056-.801-4-1.303-1.156-3.187-1.218-4.526-.15-.423.337-1.037 1.12-1.324 1.69-.35.693-.304 1.135.229 2.203.566 1.133 1.03 1.689 1.69 2.02.76.383 1.5.455 2.392.233z" fill="#920000" stroke-width=".05949557999999999"/><path d="M20.527 39.647c-.244-.194-.883-.783-1.42-1.308l-.975-.956.64-.653c.353-.359 1.084-1.059 1.625-1.555l.984-.903 1.442 1.439 1.442 1.439-.696.712c-.889.908-2.311 2.137-2.474 2.137-.068 0-.324-.158-.568-.352zM27.77 31.942c-.553-.57-1.195-1.272-1.428-1.56l-.423-.527.226-.31c.124-.171.755-.837 1.403-1.48l1.178-1.167.513.498c.282.275.957.98 1.5 1.567l.99 1.067-1.477 1.474-1.476 1.473zM34.556 24.128c-.69-.691-1.253-1.292-1.253-1.334 0-.106 1.586-2.028 2.201-2.667.345-.358.562-.5.707-.462.548.144 2.442 2.521 2.445 3.07.002.298-2.435 2.65-2.746 2.65-.055 0-.665-.566-1.354-1.257z" stroke-width=".08457704999999999"/></g><path d="M3.308 98.275c-.143-.143-.26-1.758-.26-3.59 0-3.237.025-3.331.88-3.331.616 0 1.264.536 2.168 1.791l1.29 1.791.115-1.814c.104-1.624.203-1.802.943-1.697.768.11.834.349.935 3.371.092 2.764.013 3.29-.526 3.497-.774.297-1.68-.48-3.153-2.703l-1.103-1.666-.114 2.173c-.106 2.008-.54 2.813-1.175 2.178zm5.327-3.622c-.06-2.365-.088-2.466-.208-.754-.178 2.546-.777 2.568-2.623.094-1.518-2.032-2.001-2.308-2.001-1.143 0 .467.188.67.507.548.304-.117 1.137.64 2.086 1.897.869 1.15 1.743 2.092 1.944 2.092.208 0 .335-1.175.295-2.734zm2.753 3.352c-.292-.352-.414-1.601-.343-3.504l.11-2.958 2.766-.112c2.488-.1 2.752-.044 2.636.566-.098.517-.55.704-1.917.792-2.354.151-2.495 1.11-.188 1.277 1.167.085 1.633.295 1.725.776.104.55-.161.66-1.6.66-1.252 0-1.724.149-1.724.545 0 .382.533.579 1.79.66 1.502.096 1.792.237 1.792.869 0 .66-.288.768-2.297.865-1.653.08-2.424-.043-2.75-.436zm2.785-.583l-1.886-.223v-2.546c0-1.4-.127-2.545-.283-2.545-.35 0-.379 5.057-.031 5.405.138.138 1.114.225 2.168.192l1.917-.06zm5.732.858c-.146-.145-.265-1.424-.265-2.841 0-2.497-.029-2.577-.943-2.577-.697 0-.942-.2-.942-.77 0-.718.195-.762 2.922-.66 2.297.087 2.922.231 2.922.676 0 .335-.417.614-1.02.683-.993.115-1.024.195-1.132 2.825-.085 2.084-.244 2.731-.694 2.817-.321.061-.703-.008-.848-.153zm.946-4.192c.063-1.141-.05-1.98-.268-1.981-.232 0-.314 1.053-.214 2.734.169 2.834.296 2.636.482-.753zm5.765 4.053c-.393-.636-2.074-5.754-2.074-6.314 0-.328.315-.48.837-.405.647.093.972.57 1.435 2.113l.6 1.992.664-2.11c.557-1.765.794-2.09 1.456-1.992.575.086.963.633 1.42 2.003l.63 1.885.657-1.98c.489-1.472.843-1.979 1.381-1.979 1.005 0 .917 1.127-.338 4.336-1.305 3.34-2.144 3.543-3.104.754-.538-1.563-.698-1.756-.937-1.13-1.007 2.64-1.329 3.204-1.831 3.204-.31 0-.668-.17-.796-.377zm1.538-2.547c-.12-.12-.218-.02-.218.222s-.255.44-.566.44c-.31 0-.565-.198-.565-.44s-.092-.349-.203-.237c-.112.111.005.66.26 1.218l.462 1.015.524-1c.288-.55.426-1.098.306-1.218zm4.025 1.093c.144-.55.025-.67-.52-.528-.796.208-.79.195-.478 1.007.275.718.744.493.998-.48zm-6.507-4.093c-.411-.641-.422-.64-.216.016.12.38.23.89.247 1.132.022.317.082.313.215-.017.102-.252-.009-.76-.246-1.131zm4.526.841c0-.074-.103-.402-.229-.73-.304-.795-.772-.756-.991.081-.121.463.045.695.521.73.385.03.7-.007.7-.08zm6.452 4.578c-2.025-1.169-2.474-3.689-.974-5.471 2.568-3.051 7.173-.84 6.436 3.09-.131.701-.562 1.567-.957 1.924-.956.866-3.371 1.11-4.505.457zm3.935-1.174c.546-.546.926-1.363.926-1.99 0-1.159-.921-2.74-1.596-2.74-.232 0-.052.392.399.872.45.48.82 1.328.82 1.885 0 2.25-2.958 3.362-4.51 1.696-.424-.454-.77-.633-.77-.399 0 .68 1.579 1.601 2.741 1.601.627 0 1.445-.38 1.99-.925zm-.47-.996c1.111-1.778-1.22-3.802-2.767-2.401-.835.755-.921 1.392-.337 2.484.486.908 2.517.854 3.103-.083zm-4.388-1.567c-.104-.259-.19-.047-.19.472 0 .518.086.73.19.471.105-.26.105-.683 0-.943zm1.085-1.43c.573-.633.588-.729.087-.536-.335.128-.702.475-.815.77-.282.734-.094.674.728-.234zm2.334-.966c-.125-.125-.45-.138-.723-.03-.3.12-.211.21.228.228.398.017.62-.072.495-.198zm4.514 6.4c-.145-.145-.264-1.763-.264-3.595v-3.331h2.393c1.839 0 2.537.16 3.016.69.786.868.795 1.915.026 3.013-.547.781-.546.934.016 1.791 1.212 1.85-.323 2.308-1.81.54-1.182-1.405-1.671-1.43-1.825-.098-.114.988-.993 1.549-1.552.99zm1.915-2.778c.56 0 1.335.375 1.766.856.423.471.641.692.486.49-.46-.594-.325-1.596.282-2.1.746-.62.719-1.667-.06-2.31-.573-.475-.582-.447-.097.331.793 1.274.073 2.14-1.902 2.285l-1.607.118.147-1.532c.08-.842.014-1.532-.147-1.532s-.267 1.23-.236 2.734c.03 1.504.127 2.267.213 1.697.126-.83.356-1.037 1.155-1.037zm1.78-1.886c0-.336-.42-.613-1.037-.685-.844-.097-1.037.03-1.037.685s.193.783 1.037.685c.618-.07 1.037-.348 1.037-.685zm4.129 4.494c-.152-.246-.278-1.825-.279-3.508-.002-2.842.056-3.068.808-3.18.707-.105.81.06.81 1.311v1.432l1.159-1.405c.757-.919 1.475-1.406 2.074-1.406 1.19 0 1.159.647-.095 1.955l-1.01 1.054 1.222 1.7c1.885 2.624.683 3.524-1.455 1.09-1.244-1.418-1.74-1.366-1.957.205-.141 1.02-.853 1.439-1.277.752zm3.584-2.253l-1.212-1.53.897-1.033c.494-.568.344-.473-.333.21-1.569 1.585-2.26 1.59-2.456.018-.083-.674-.168-.122-.188 1.226-.026 1.756.058 2.217.295 1.627.183-.453.648-.993 1.034-1.2.575-.307.89-.14 1.734.918.568.712 1.125 1.294 1.237 1.294.112 0-.341-.689-1.008-1.53zM32.887 87.95c-1.616-.37-2.604-1.358-2.915-2.914-.215-1.074-.146-1.225.556-1.225.461 0 .802.24.802.566 0 1.087 1.436 2.074 3.016 2.074 1.446 0 3.017-.968 3.017-1.858 0-.773-1.235-1.504-2.927-1.734-3.545-.481-4.238-1.01-4.238-3.24 0-1.096.254-1.751.945-2.443.878-.878 1.162-.936 4.053-.83l3.11.112.112 2.362c.09 1.883-.01 2.408-.488 2.592-.519.199-.495.305.17.77.845.592 1.076 2.995.408 4.242-.643 1.203-3.566 1.996-5.621 1.526zm2.111-.596c-.125-.125-.45-.138-.723-.03-.3.121-.211.21.228.228.398.017.62-.072.495-.198zm1.688-7.03c-.093-.675-.43-1.523-.747-1.886-.778-.887-2.55-.835-3.487.103-1.172 1.172-.44 2.114 1.986 2.557 1.09.199 2.08.382 2.2.406.12.025.141-.507.048-1.18zM5.748 87.3c-.19-.363-.62-1.635-.956-2.828-1.859-6.585-1.69-6.21-2.917-6.456-.83-.166-1.11-.412-1.019-.893.107-.559.621-.68 3.262-.774 3.079-.108 3.133-.094 3.013.755-.089.624-.411.897-1.16.983-.57.066-1.034.15-1.031.189.003.038.393 1.476.865 3.195l.86 3.126 1.128-3.88c1.032-3.547 1.208-3.88 2.044-3.88.83 0 1.027.355 2.098 3.77l1.183 3.771.452-1.697c.248-.933.612-2.189.81-2.79.526-1.605.468-1.735-.773-1.735-.955 0-1.131-.146-1.131-.942 0-.927.051-.943 2.994-.943 1.647 0 3.09.154 3.206.343.395.638-.243 1.542-1.088 1.542-.71 0-.94.365-1.488 2.357-1.938 7.052-2.118 7.5-2.977 7.376-.684-.098-1.007-.753-1.993-4.041-.647-2.158-1.27-3.77-1.383-3.582-.114.188-.589 1.784-1.055 3.546-.466 1.763-1.014 3.418-1.218 3.677-.526.67-1.324.583-1.726-.189zm1.221-.785c.107-.173-.045-.314-.338-.314-.293 0-.445.141-.338.314.107.173.259.314.338.314.08 0 .231-.141.338-.314zm12.638.962c-1.643-1.262-1.905-3.5-.589-5.03.701-.815 1.423-1.118 3.457-1.45 3.09-.507 3.912-1.326 2.497-2.487-1.713-1.406-4.2-.715-4.2 1.168 0 .863-.171 1.118-.748 1.118-1.056 0-1.395-1.625-.594-2.848.765-1.168 2.013-1.677 4.11-1.677 3.09 0 4.013 1.623 4.017 7.06l.002 3.102 1.164-.233c1.064-.212 1.154-.154 1.037.67-.108.767-.366.919-1.733 1.018-1.173.085-1.666-.04-1.828-.462-.197-.514-.342-.516-1.298-.022-1.293.669-4.46.713-5.293.073zm5.09-2.185c.537-.638.976-1.58.976-2.091 0-.996-.008-.996-3.889-.27-1.489.278-2.127 1.744-1.203 2.765 1.07 1.183 2.935 1 4.116-.404zm17.343 1.876c-.593-.655-.74-1.505-.845-4.88-.12-3.857-.173-4.094-.943-4.204-.512-.073-.86-.431-.936-.965-.097-.686.06-.848.824-.848.749 0 .968-.214 1.063-1.037.085-.743.36-1.071.968-1.158.718-.102.848.054.848 1.015 0 1.039.12 1.144 1.414 1.251 1.124.093 1.414.272 1.414.872s-.29.778-1.427.872l-1.427.117.107 3.802c.09 3.19.217 3.868.79 4.218.545.334.79.271 1.225-.314.299-.403.543-1.14.543-1.638 0-.57.264-.975.71-1.092.526-.137.774-.667.956-2.04.467-3.52 3.558-5.72 6.784-4.83 1.87.517 3.124 1.79 3.445 3.5.451 2.405.295 2.495-4.341 2.495-4.578 0-4.718.089-3.59 2.27 1.384 2.678 4.907 2.547 6.066-.226.56-1.343 1.524-1.705 1.903-.717.357.93-.66 2.856-1.91 3.618-1.422.868-4.345.937-5.887.14-1.122-.581-2.214-2.228-2.295-3.464-.024-.373-.185.166-.358 1.198-.175 1.051-.602 2.088-.97 2.357-1.05.768-3.306.598-4.13-.312zm13.8-6.955c0-1.02-1.759-2.434-3.029-2.434-1.173 0-3.382 1.705-3.382 2.61 0 .259 1.167.407 3.205.407 2.64 0 3.206-.103 3.206-.583zm-13.695-5.144c-.12-.3-.21-.212-.228.228-.016.397.073.62.199.495.125-.126.138-.45.03-.723zm-21.374-2.464c-2.61-.98-4.13-3.587-4.13-7.08 0-3.543 1.616-6.331 4.25-7.329 2.77-1.05 6.565.215 7.854 2.618.88 1.643.94 4.348.103 4.67-.328.126-2.789.229-5.468.229-4.863 0-4.871.001-4.871.887 0 1.306 1.516 3.356 3.034 4.101 2.276 1.118 4.97-.152 5.981-2.82.556-1.466 1.92-1.439 1.92.038 0 1.433-1.39 3.398-3.01 4.26-1.27.674-4.38.908-5.663.426zm5.569-7.916c-.567-.086-1.585-.088-2.262-.004-.678.084-.215.154 1.03.156 1.244.003 1.799-.066 1.232-.152zm1.219-1.654c0-.435-.577-1.368-1.282-2.073-.99-.99-1.596-1.283-2.659-1.283-1.966 0-3.476.918-4.359 2.648l-.765 1.5h4.532c4.353 0 4.533-.031 4.533-.792zm-7.87-2.884c.468-.598.455-.612-.143-.143-.363.285-.66.582-.66.66 0 .31.31.11.802-.517zm28.42 12.192c-1.405-.628-3.028-2.33-3.558-3.732-.567-1.5-.498-5.33.123-6.816.7-1.674 2.375-3.18 4.042-3.632 1.81-.491 4.63-.07 6.112.914 2.807 1.864 3.815 7.043 2.029 10.422-1.53 2.892-5.644 4.23-8.748 2.844zm5-1.726c2.666-1.626 3.528-5.256 1.973-8.305-1.294-2.537-4.578-3.45-6.777-1.883-1.204.857-2.27 3.216-2.27 5.023 0 1.903 1.486 4.492 3.017 5.256 1.7.85 2.545.83 4.057-.091zm-5.565.232c0-.078-.297-.375-.66-.66-.598-.468-.611-.455-.142.143.492.628.802.828.802.517zm-2.374-6.362c-.09-.466-.163-.085-.163.849 0 .933.074 1.315.163.848.09-.467.09-1.23 0-1.697zm1.808-4.053c.376-.415.598-.755.494-.755-.104 0-.495.34-.87.755-.376.414-.599.754-.495.754.104 0 .496-.34.871-.754zM2.555 72.258c-.55-.55-.177-1.512 1.17-3.022.769-.862 2.986-3.28 4.927-5.373l3.53-3.806h-3.66c-3.341 0-3.676.065-3.856.754-.111.427-.514.754-.929.754-.628 0-.715-.228-.616-1.603l.116-1.602 5.94-.104 5.938-.104v.96c0 .71-1.26 2.297-4.873 6.134-2.68 2.846-4.842 5.206-4.804 5.244.038.038 1.743.114 3.789.168 3.131.084 3.794-.002 4.186-.538.81-1.107 1.38-.754 1.254.778l-.117 1.414-5.867.103c-3.227.057-5.984-.014-6.128-.157zm2.19-2.397c.376-.415.598-.755.495-.755-.104 0-.496.34-.871.755-.376.414-.598.754-.494.754.103 0 .495-.34.87-.754zM9.46 64.77c.704-.726 1.194-1.32 1.09-1.32-.103 0-.763.594-1.467 1.32-.704.726-1.194 1.32-1.09 1.32.103 0 .764-.594 1.467-1.32zm4.405-5.538c-.12-.301-.21-.212-.227.228-.017.397.072.62.198.494.125-.125.138-.45.03-.722zm16.711 12.554c0-.777.698-1.171 2.073-1.171.82 0 .898-.193 1.144-2.826.146-1.555.148-3.921.005-5.258l-.26-2.432-1.387-.116c-1.107-.092-1.41-.286-1.506-.963-.115-.805.004-.849 2.325-.849 1.62 0 2.5.16 2.604.472.122.364.399.343 1.22-.095 1.477-.787 4.157-.662 5.379.251 2.497 1.864 1.425 6.258-1.35 5.532-1.21-.317-1.035-2.452.226-2.751.809-.192.823-.251.261-1.052-.94-1.34-3.222-1.181-4.478.312-.924 1.098-.976 1.386-.976 5.427 0 4.587.061 4.725 2.104 4.725.661 0 .912.208.912.754 0 .708-.251.754-4.148.754-3.818 0-4.147-.057-4.147-.714zm4.658-.615c-.17-.444-.34-.476-.742-.143-.7.582-.659.718.22.718.51 0 .674-.18.522-.575zm6.843-8.098c.128-.207-.126-.377-.565-.377-.44 0-.694.17-.566.377.128.208.383.377.566.377.183 0 .437-.17.565-.377zm-6.886-1.308c.098-.512.033-.842-.144-.732-.313.193-.47 1.663-.178 1.663.08 0 .224-.419.322-.931z"/></svg>