<svg xmlns="http://www.w3.org/2000/svg" viewBox="0 0 210 297"><path d="M72.737 110.322c-1.261-.15-7.89-.224-14.729-.165-6.84.058-12.435-.03-12.435-.198 0-.167.24-.211.533-.099.294.113.73.056.97-.126.261-.197 5.844-.283 13.843-.212 17.158.152 19.599.161 24.518.092 2.231-.032 11.36-.052 20.284-.045 8.926.007 17.657-.047 19.403-.121 1.746-.074 4.842-.2 6.88-.281 4.636-.184 4.747-.195 4.497-.445-.113-.113.1-.512.475-.886.608-.609 1.02-.657 3.939-.463 1.793.12 6.91.264 11.373.322 10.476.135 15.605.456 15.434.968a2.473 2.473 0 00-.088.641c0 .207-.437.326-.97.265-.546-.063-.932-.305-.882-.553.104-.522.389-.48-3.809-.557-2.74-.049-3.221.016-2.581.347.802.416 3.547.38 4.979-.066.539-.168.794-.102.794.205 0 .25-.105.349-.233.221-.127-.128-.412-.083-.631.1-.22.182-1.346.347-2.502.366-3.78.064-17.202.046-20.27-.026-1.65-.039-3.396-.061-3.881-.05-2.911.07-11.542.445-13.935.607-1.552.105-9.172.176-16.933.16-7.761-.018-16.651-.013-19.756.01-8.51.066-8.61.066-9.084-.025-.242-.046-.996 0-1.676.1-.679.102-2.266.063-3.527-.086zm79.79-1.466c7.486-.142 5.694-.644-2.313-.648-3.516-.002-7.808-.04-9.537-.083-2.423-.061-3.182.033-3.309.41-.09.27-.025.406.146.301.17-.104 1.263-.08 2.427.055 1.164.134 3.228.205 4.586.157a682.8 682.8 0 018-.192zm14.49.19a1.36 1.36 0 00-.882 0c-.243.099-.044.179.44.179.486 0 .684-.08.442-.178zm-137.735.687c-.231-.278-.24-.774-.024-1.41.27-.801.522-.97 1.356-.912 3.568.247 20.993-.017 21.52-.326.175-.103 1.112-.113 2.082-.024.97.09 2.558.156 3.528.148l19.314-.161c9.653-.081 17.55-.012 17.55.152 0 .165.358.166.795.003.648-.242 4.44-.003 5.756.362.181.05.694-.032 1.14-.184.479-.163.999-.119 1.27.107.331.274.787.268 1.623-.024.882-.307 1.322-.305 1.828.01.486.304 1.032.318 2.027.05 1.137-.306 2.059-.31 3.2-.014.67.174 11.048-.24 12.828-.512.827-.126 1.56-.044 1.864.208.38.316.825.319 1.853.01 1.79-.536 2.153-.511 2.153.145 0 .303-.155.454-.345.337-.19-.118-.96-.03-1.712.195-1.054.316-1.55.311-2.17-.02-.44-.236-.9-.294-1.021-.128-.121.165-3.633.3-7.805.298-4.171-.002-8.358.134-9.304.303-1.268.226-1.79.191-1.99-.133-.21-.34-.532-.348-1.42-.039-.86.3-1.271.3-1.637-.005-.37-.307-.69-.298-1.315.037-.596.318-1.019.339-1.516.072-.755-.404-7.344-.882-10.158-.737-1.693.088-6.804.099-8.643.019-2.725-.118-21.69.28-23.56.495-1.83.21-2.333.15-2.876-.341-.467-.423-.73-.478-.908-.191-.141.229-.616.312-1.093.193-.464-.117-.844-.087-.844.066 0 .152-1.706.289-3.792.303-2.086.014-6.888.056-10.672.093-3.783.038-7.196.024-7.584-.031-.504-.072-.706.101-.706.605 0 .67.254.708 4.94.762 6.83.077 6.878.08 6.878.442 0 .512-11.98.297-12.41-.222zm12.763.33c0-.34 2.852-.87 3.139-.583.268.268-.1.419-1.64.673-.89.147-1.499.111-1.499-.09zm126.599-.713c.339-.237.362-.394.08-.53-.26-.124-.265-.167-.014-.122.542.1.486.715-.08.865-.368.098-.366.053.014-.213zm-35.692-1.511c-.351-.21-.867-.294-1.146-.187-.31.12-.508-.022-.508-.363 0-.44.242-.511 1.146-.336.631.123 1.901.212 2.823.2.949-.014 1.675.136 1.675.346 0 .204-.436.373-.97.375-.533.003-1.288.082-1.676.175-.388.094-.993 0-1.344-.21z"/></svg>