<svg xmlns="http://www.w3.org/2000/svg" width="233.208" height="105.745" viewBox="0 0 61.703 27.978"><g fill="none" stroke-width=".4" paint-order="fill markers stroke"><path d="M1.672 24.542c-.594-.695-.96-1.314-1.146-1.935-.371-1.243-.43-3.318-.131-4.576.208-.876.616-1.546 1.606-2.639 1.172-1.293 2.276-2.148 3.238-2.508 1.503-.562 9.148-.956 9.62-.496.194.188.257.752.278 2.452.012.956.093 2.532.18 3.501.208 2.3.154 3.146-.276 4.365-.333.944-.75 1.569-1.701 2.545-1.224 1.256-2.278 1.912-3.678 2.289-1.558.418-3.459.27-4.717-.367-1.033-.523-2.436-1.65-3.273-2.63zm4.05-1.573c1.065.742 2.363.834 3.584.255.555-.263 1.443-1.004 1.705-1.422.41-.656.225-2.573-.348-3.609-.56-1.01-1.507-1.513-2.812-1.492-1.63.025-2.9.92-3.368 2.376-.383 1.194-.104 2.486.764 3.534.027.034.242.195.476.358zM20.954 15.643c-.106-.408-.126-2.324-.03-2.89.04-.244.116-.486.168-.54.13-.134 1.177-.245 2.853-.302l1.424-.048.032 1.349c.017.742 0 1.681-.037 2.088l-.068.739-.425.076c-.859.155-3.613.06-3.807-.13a1.858 1.858 0 01-.11-.342zM31.494 15.53c-.107-.4-.128-2.436-.032-2.999.042-.242.13-.496.195-.563.08-.083.762-.136 2.11-.165l1.99-.041.028 2.124.028 2.124-1.77.01c-.972.005-1.926-.034-2.118-.087l-.35-.097zM41.71 13.795l-.005-2.118 1.726-.039c1.707-.038 2.436-.097 2.821-.225.176-.059.199-.104.202-.391.002-.18-.074-.81-.169-1.403-.19-1.194-.186-1.844.018-2.952.385-2.089 1.073-3.423 2.312-4.48C50.41.653 52.788-.053 55.03.282c.822.122 2.03.548 2.776.98.86.496 2.052 1.652 2.526 2.447 1.458 2.446 1.561 5.448.271 7.865-.371.696-1.312 1.773-2.032 2.327a9.347 9.347 0 01-2.185 1.22c-1.123.422-4.26.641-10.448.73l-4.224.061zm10.33-2.852c.816.475 2.115.557 3.07.194 1.352-.514 2.316-2.01 2.209-3.43-.131-1.735-1.44-3.092-3.146-3.257-.539-.052-1.524.084-2.127.292-.733.254-1.008.604-1.368 1.742-.383 1.207-.436 1.93-.193 2.626.28.805.76 1.37 1.555 1.833z" stroke="#570000"/><path d="M15.71 15.379c-.04-.31-.089-1.177-.108-1.928l-.036-1.365.915-.022a53.9 53.9 0 012.249.013l1.334.037.034 2.037.034 2.037-.995.026c-1.27.034-3.147-.073-3.264-.186-.049-.048-.122-.34-.163-.65zM26.274 14.888c0-.794.027-1.745.06-2.115l.063-.672.379-.066c.208-.037 1.124-.075 2.036-.085l1.66-.019.02.715c.012.393.006 1.37-.012 2.17l-.033 1.454-2.086.03-2.085.03zM36.585 14c-.014-.976-.001-1.8.029-1.83.073-.076 2.55-.352 3.436-.383.497-.017.752.032.83.16.293.485-.001 3.51-.38 3.906-.207.216-3.594.208-3.817-.008-.04-.039-.084-.87-.098-1.845z" stroke="#000"/></g></svg>