<svg xmlns="http://www.w3.org/2000/svg" width="105.744" height="157.206" viewBox="0 0 27.978 41.594"><g stroke-width=".4" paint-order="fill markers stroke"><path d="M3.436 1.671C4.131 1.077 4.75.711 5.371.525 6.614.155 8.69.095 9.947.395c.876.207 1.546.615 2.64 1.605 1.292 1.172 2.147 2.276 2.507 3.238.562 1.503.956 9.148.496 9.62-.188.194-.752.257-2.452.278-.956.012-2.532.093-3.5.18-2.3.208-3.147.154-4.366-.276-.944-.333-1.569-.75-2.545-1.7C1.471 12.114.815 11.06.438 9.66.02 8.103.168 6.202.805 4.944c.523-1.033 1.65-2.436 2.63-3.273zm1.573 4.05c-.742 1.065-.834 2.363-.255 3.584.263.555 1.004 1.443 1.422 1.705.656.41 2.573.225 3.61-.348 1.01-.56 1.512-1.507 1.491-2.812-.025-1.63-.92-2.9-2.376-3.368-1.194-.383-2.486-.104-3.534.764a5.03 5.03 0 00-.358.476zm9.174 15.88l2.118-.005.04 1.726c.037 1.707.096 2.436.224 2.821.06.176.104.199.391.202.18.002.81-.074 1.403-.169 1.194-.19 1.844-.186 2.952.018 2.09.385 3.423 1.073 4.48 2.312 1.534 1.795 2.24 4.173 1.905 6.415-.122.822-.548 2.03-.98 2.776-.496.86-1.652 2.052-2.447 2.526-2.446 1.458-5.448 1.561-7.865.271-.696-.371-1.773-1.312-2.327-2.032a9.347 9.347 0 01-1.22-2.185c-.422-1.123-.64-4.26-.73-10.448l-.15-4.165zm2.852 10.33c-.475.816-.557 2.115-.194 3.07.514 1.352 2.01 2.316 3.43 2.209 1.735-.131 3.092-1.44 3.257-3.146.052-.539-.084-1.524-.292-2.127-.254-.733-.604-1.008-1.742-1.368-1.207-.383-1.93-.436-2.626-.193-.805.28-1.37.76-1.833 1.555z" fill="#570000" stroke="#570000" stroke-linecap="round" stroke-linejoin="round"/><path d="M12.678 16.164c.31-.04 1.177-.09 1.928-.108l1.365-.036.022.915c.012.75.007 1.5-.013 2.249l-.037 1.334-2.037.034-2.037.034-.026-.995c-.034-1.27.073-3.147.186-3.264.048-.05.34-.122.65-.163z" stroke="#000" stroke-linejoin="round"/></g></svg>