<svg xmlns="http://www.w3.org/2000/svg" width="477.941" height="352.689" viewBox="0 0 126.455 93.316"><path d="M57.212 90.335c-1.635-1.64-2.972-3.169-2.972-3.399 0-.23.236-.631.525-.893.51-.462.56-.443 1.786.683a91.205 91.205 0 012.12 2.013l.86.855V70.819l-.992.43c-3.097 1.343-4.313 1.77-6.701 2.348-10.52 2.547-20.892.707-30.078-5.335C17.68 65.578 10.583 57.793 10.583 56c0-.582 1.628-1.326 1.796-.821.375 1.125 3.22 4.79 5.48 7.058 5.086 5.104 11.593 8.518 18.75 9.84 3.485.643 9.54.569 12.938-.159 2.746-.587 5.598-1.483 7.684-2.414l1.271-.568-1.933-1.349c-5.816-4.058-11.086-11.25-13.527-18.457-1.376-4.065-1.636-6.027-1.614-12.17.02-5.473.052-5.805.83-8.732 2.299-8.636 7.524-16.328 14.348-21.12l1.856-1.303-1.86-.832C53.867 3.75 50.614 2.879 46.992 2.4c-8.333-1.102-16.78.968-24.239 5.94-2.933 1.955-7.155 6.182-9.096 9.106-.845 1.274-1.63 2.315-1.747 2.315-.116 0-.488-.224-.826-.498-.556-.45-.583-.569-.278-1.237.748-1.641 3.594-5.188 6.074-7.568C21.878 5.662 27.618 2.526 34.246.972 42.266-.91 50.95-.027 58.27 3.412l2.309 1.086 2.32-1.073c16.466-7.607 36.166-2.19 46.35 12.748.887 1.3 1.612 2.458 1.612 2.573 0 .179-1.37 1.016-1.663 1.016-.056 0-.744-.983-1.528-2.183-.788-1.208-2.669-3.436-4.21-4.99-5.074-5.112-10.992-8.334-17.878-9.735-5.392-1.098-10.29-.984-15.58.361-2.524.642-6.665 2.147-6.885 2.503-.07.114.552.672 1.384 1.239 2.193 1.494 7.409 6.788 8.992 9.127 2.891 4.27 4.814 8.825 5.907 13.996.837 3.962.838 10.59 0 14.552-1.084 5.13-2.846 9.318-5.775 13.728-1.851 2.787-5.749 6.867-8.504 8.903-1.16.858-2.058 1.644-1.994 1.748.065.104 1.217.612 2.56 1.13 10.688 4.11 21.821 3.023 31.764-3.101 3.291-2.028 8.177-6.73 10.085-9.708 1.625-2.536 1.875-2.74 2.695-2.204.347.227.63.55.63.716 0 .166-.67 1.313-1.49 2.549-2.264 3.415-7.456 8.425-10.946 10.563-5.373 3.292-10.491 5.002-16.725 5.588-6.593.62-12.857-.532-19.72-3.625-.262-.118-.331 1.817-.331 9.198v9.348l1.792-1.779c1.028-1.02 2.022-1.779 2.329-1.779.64 0 1.17.476 1.17 1.05 0 .53-5.829 6.359-6.358 6.359-.218 0-1.734-1.342-3.37-2.981zm6.284-.587c1.85-1.856 2.676-2.862 2.499-3.04-.178-.177-.917.39-2.234 1.716-1.082 1.09-2.12 1.981-2.305 1.981-.264 0-.34-1.4-.35-6.416-.02-9.58.026-13.793.151-13.919.062-.062.86.216 1.773.617 2.455 1.078 5.73 2.156 8.204 2.7 1.718.378 3.324.48 7.48.474 4.836-.006 5.531-.067 8.081-.709 7.14-1.797 12.674-4.914 17.722-9.981 2.658-2.669 5.673-6.659 5.477-7.248-.22-.66-.658-.308-1.701 1.368-3.23 5.19-9.041 10.07-15.337 12.88-8.309 3.71-18.537 4.03-26.81.84-4.62-1.78-4.78-1.963-2.825-3.248 8.078-5.31 13.897-14.378 15.647-24.384.363-2.078.572-11.65.225-10.322-.067.254-.218.463-.337.463-.285 0-.209-.878.096-1.099.284-.206-.162-2.62-1.056-5.704-2.093-7.224-7.622-14.926-13.813-19.244-1.207-.842-2.15-1.666-2.094-1.831.141-.426 5.242-2.443 7.742-3.061 10.528-2.603 21.746-.362 30.296 6.053 2.973 2.23 7.245 6.886 9.152 9.975.222.359.385.413.607.202.508-.484-2.188-4.165-5.407-7.384-5.24-5.238-10.904-8.324-18.522-10.092-1.706-.396-3.168-.49-7.54-.482-5.018.009-5.633.063-8.202.725-2.989.77-6.039 1.874-8.186 2.962l-1.34.678-1.307-.662c-2.4-1.217-5.413-2.303-8.217-2.964C47.577.77 41.722.49 37.948.965c-9.412 1.185-18.464 6.37-24.094 13.8-2.686 3.545-2.857 3.837-2.354 4.03.29.111.762-.39 1.65-1.754 1.642-2.52 6.805-7.65 9.472-9.41 3.964-2.617 8.359-4.46 13.107-5.5 3.122-.682 10.803-.686 14.013-.006 3.985.843 9.525 2.98 9.525 3.672 0 .196-.387.581-.86.856-4.225 2.454-9.313 7.993-12.284 13.373-1.309 2.37-2.715 6.16-3.463 9.333-.622 2.636-.702 3.521-.712 7.865-.013 5.314.436 8.218 1.896 12.282 2.607 7.256 7.97 14.25 13.845 18.058.873.565 1.538 1.182 1.504 1.396-.082.522-4.242 2.281-7.231 3.058-3.7.96-6.688 1.276-10.555 1.113-7.086-.298-12.587-2.056-18.478-5.905-3.23-2.11-7.658-6.429-9.66-9.422-.93-1.387-1.49-1.994-1.75-1.894-.31.12-.252.356.305 1.248 1.263 2.022 3.99 5.357 5.55 6.788 6.95 6.375 14.689 9.635 23.682 9.978 6.21.236 10.97-.595 16.118-2.816 1.37-.591 2.579-1.075 2.688-1.075.11 0 .198 4.583.198 10.186 0 8.08-.07 10.186-.337 10.186-.185 0-1.223-.891-2.305-1.98-1.274-1.283-2.059-1.891-2.225-1.725-.166.167.437.977 1.71 2.298 2.184 2.266 3.484 3.504 3.691 3.516.076.004 1.381-1.24 2.902-2.766zM61.119 61.37v-6.546l4.556-4.561c3.303-3.307 4.476-4.642 4.266-4.852-.21-.21-1.368.807-4.207 3.7-3.466 3.529-4.613 4.47-4.616 3.79l-.044-4.915-.043-4.715 4.7-4.705c3.796-3.802 4.609-4.74 4.229-4.886-.363-.139-1.365.715-4.377 3.728-2.149 2.149-4.032 3.95-4.185 4-.185.062-.288-1.011-.305-3.17-.046-5.868-.56-4.755 4.6-9.938 3.028-3.042 4.45-4.647 4.273-4.824-.177-.177-1.582 1.054-4.222 3.699-2.176 2.18-4.107 3.964-4.291 3.964-.259 0-.337-1.329-.345-5.887-.018-9.715-.049-10.253-.585-10.253-.43 0-.463.554-.463 7.938 0 6.132-.074 7.937-.327 7.937-.18 0-2.083-1.752-4.228-3.894-3.057-3.052-3.97-3.825-4.222-3.574-.252.252.664 1.304 4.228 4.863l4.55 4.542V37c0 3.155-.082 4.192-.328 4.192-.18 0-2.083-1.753-4.228-3.895-2.6-2.594-3.99-3.806-4.166-3.63-.176.177 1.236 1.763 4.229 4.752l4.492 4.487v4.964c0 3.768-.078 4.963-.327 4.963-.18 0-2.083-1.752-4.228-3.894-3.041-3.036-3.972-3.824-4.22-3.576-.248.249.684 1.322 4.229 4.868l4.546 4.549v6.435c0 5.76-.045 6.435-.429 6.435-.63 0-3.622-2.211-5.885-4.35-3.727-3.525-7.346-9.116-9.13-14.109-1.356-3.796-1.843-6.92-1.843-11.836 0-3.621.113-5.025.578-7.205 1.52-7.123 4.759-13.05 9.942-18.196 2.381-2.365 5.844-5.05 7.092-5.501.696-.251 4.193 2.214 7.047 4.966 5.56 5.363 8.875 11.323 10.45 18.793.594 2.813.661 3.687.592 7.672-.09 5.226-.633 8.171-2.296 12.447-1.945 5-4.713 9.083-8.892 13.11-2.086 2.011-5.364 4.474-5.955 4.474-.117 0-.212-2.946-.212-6.546zm4.161 3.042c4.677-3.786 8.563-9.382 10.751-15.485 2.471-6.889 2.526-15.548.144-22.673A35.398 35.398 0 0065.55 10.507c-1.13-.962-2.705-2.143-3.501-2.626l-1.447-.877-2.282 1.519c-5.853 3.895-11.074 10.95-13.342 18.032-1.17 3.653-1.608 6.598-1.606 10.808.005 9.545 3.484 18.046 10.108 24.695 2.061 2.069 5.418 4.8 5.9 4.8.083 0 .151-2.649.151-5.885v-5.884L54.84 50.39l-4.692-4.697.725-.725.724-.724 3.968 3.96 3.967 3.961v-8.73l-4.498-4.492c-2.474-2.47-4.498-4.663-4.498-4.871 0-.464.769-1.349 1.166-1.342.16.003 1.986 1.713 4.06 3.8l3.77 3.797v-7.2l-4.692-4.697-4.692-4.697.725-.725.724-.725 3.968 3.961 3.967 3.96V14.47h2.117v15.72l3.96-3.93c3.852-3.82 3.978-3.917 4.564-3.528.332.22.643.598.691.84.057.284-1.573 2.08-4.564 5.028l-4.651 4.587v7.338l3.97-3.964c3.32-3.313 4.043-3.917 4.414-3.683 1.296.818 1.221.938-3.692 5.879l-4.692 4.718V52.166l3.906-3.899c2.148-2.145 4.014-3.9 4.146-3.9.378 0 1.208.84 1.208 1.222 0 .19-2.083 2.42-4.63 4.956l-4.63 4.61v12.003l.86-.599c.473-.33 1.72-1.296 2.772-2.147zm-9.568-1.072c.1-.26.247-.408.329-.326.081.081 0 .295-.181.474-.261.26-.292.23-.148-.148zM7.125 53.812c-2.847-.807-5.6-3.274-6.582-5.895C.033 46.55 0 45.9 0 36.923v-9.541l.9-.9c.636-.636 1.14-.9 1.72-.9.632 0 .82-.116.82-.509 0-.858 1.26-2.101 2.33-2.299.654-.12 1.251-.495 1.807-1.133.732-.842.975-.953 2.072-.953 1.069 0 1.35.12 2.014.864.472.527.772 1.158.772 1.62 0 .67.114.773 1.008.916.587.094 1.277.448 1.654.848.601.64.652.914.733 3.974l.088 3.287h.917c.626 0 1.127.21 1.582.666l.665.665-.082 6.81-.082 6.808-.731 1.488c-.895 1.823-2.905 3.752-4.823 4.63-1.746.8-4.5 1.041-6.239.548zm6.124-1.179c1.86-.914 3.235-2.24 4.232-4.078l.908-1.674.086-6.513.086-6.514-.717-.564c-.399-.313-1.1-.564-1.58-.564-.474 0-.91-.149-.97-.33-.06-.183-.084-1.437-.053-2.788.09-3.915-.358-4.82-2.391-4.82-.876 0-.944-.058-.944-.806 0-.978-.616-2.244-1.202-2.469-1.296-.497-2.54-.025-3.027 1.149-.276.665-.483.804-1.205.804-.48 0-1.065.074-1.3.164-.52.199-1.203 1.455-1.203 2.208 0 .432-.153.536-.728.497-1.142-.078-1.89.279-2.318 1.105-.326.63-.394 2.285-.392 9.572 0 4.914.115 9.222.26 9.74.708 2.553 3.225 5.296 5.691 6.205 1.627.6 5.241.427 6.767-.324zm-6.068-.367c-2.025-.582-4.853-3.16-5.2-4.738-.093-.425-.28-.84-.414-.924-.141-.087-.244-3.957-.244-9.204 0-9.79.061-10.23 1.417-10.23 1.143 0 1.229.372 1.229 5.344v4.71h-.662c-.407 0-.661.15-.661.392 0 .331.881.402 5.755.463l5.754.071.082 1.123c.07.967-.004 1.157-.53 1.36-2.915 1.132-3.88 1.873-4.83 3.71-.564 1.09-.66 3.067-.149 3.067.268 0 .451-.4.573-1.256.344-2.406 2.136-4.182 4.62-4.579l1.087-.174.137-3.59c.117-3.062.208-3.642.617-3.94.636-.466 1.042-.443 1.574.09.39.39.43 1.11.341 6.415-.092 5.584-.14 6.068-.72 7.37-.781 1.75-2.986 3.818-4.692 4.399-1.367.466-3.694.521-5.084.121zm5.675-1.152c1.705-.834 3.124-2.413 3.659-4.071.403-1.25.83-11.508.514-12.332-.084-.219-.378-.397-.653-.397-.467 0-.501.243-.501 3.54 0 2.514-.096 3.614-.33 3.8-.183.145-.976.414-1.764.6-2.025.474-3.617 2.072-3.859 3.872-.258 1.927-.3 1.989-1.255 1.897-.79-.076-.869-.168-.945-1.09-.125-1.521.615-3.388 1.832-4.617 1.05-1.061 3.005-2.182 3.805-2.182.244 0 .4-.244.4-.628 0-.865-.65-.96-6.63-.96-4.51 0-4.99.044-5.118.464-.276.898.09 6.834.49 7.968 1.5 4.254 6.243 6.148 10.355 4.136zM3.068 36.43c.324 0 .373-.68.312-4.277-.072-4.23-.183-4.71-.972-4.211-.288.182-.392 1.249-.465 4.778-.085 4.136-.056 4.507.324 4.127.229-.23.59-.417.801-.417zm1.96-5.37c0-6.473.056-6.8 1.19-6.8 1.133 0 1.19.327 1.19 6.8v6.164h-2.38zm1.851-.296c0-4.296-.08-5.695-.33-5.782-.932-.325-.993.031-.993 5.788v5.66H6.88zm1.588-.748c0-7.626.038-7.873 1.21-7.873 1.133 0 1.183.354 1.11 7.837l-.071 7.112-1.125.081-1.124.082zm1.852-.181c0-5.246-.078-6.881-.331-6.97-.946-.33-.992-.008-.992 6.921v6.793l.661.055.662.055zm1.562 3.105c-.044-7.258-.029-7.358 1.069-7.358 1.293 0 1.354.297 1.277 6.12l-.072 5.39-1.124.081-1.125.082-.025-4.315zm1.81-1.272c.036-2.692-.041-5.061-.171-5.264a.574.574 0 00-.661-.207c-.368.141-.424.833-.424 5.294v5.132l.596-.03c.592-.03.595-.055.66-4.925zm94.391 21.696c-6.373-.954-11.68-5.546-13.43-11.621-.732-2.545-.705-6.71.06-9.15 1.656-5.282 6.292-9.731 11.556-11.09 2.057-.53 5.86-.539 7.91-.018 5.785 1.47 10.422 6.107 11.892 11.892.52 2.043.512 5.853-.015 7.887-.75 2.897-2.095 5.157-4.445 7.47-2.655 2.612-5.084 3.894-8.512 4.492-2.473.431-2.967.445-5.016.138zm6.88-1.21c2.38-.765 4.462-2.06 6.375-3.96 7.562-7.517 5.39-20.223-4.27-24.978-7.606-3.745-17.069-.467-20.718 7.176-1.228 2.572-1.63 4.28-1.624 6.911.019 9.18 8.166 16.514 17.194 15.475.946-.108 2.315-.389 3.042-.623zm-6.603-1.635c-.76-1.148-1.704-3.748-1.537-4.233.072-.21.637-.33 1.547-.33h1.433v2.777c0 3.163-.292 3.525-1.443 1.786zm.914-1.918v-2.117h-.944c-.855 0-.927.056-.766.596.243.815 1.495 3.638 1.614 3.638.053 0 .096-.953.096-2.117zm1.443 2.578c-.078-.204-.107-1.433-.065-2.731l.077-2.36 1.558-.081 1.559-.08-.16 1.006c-.089.554-.553 1.779-1.031 2.723-.845 1.667-1.642 2.293-1.938 1.523zm1.881-2.943l.636-1.752h-1.843v2.038c0 2.397.255 2.337 1.207-.286zm-7.195 1.628c-1.264-1.165-2.744-3.127-2.744-3.639 0-.193.518-.268 1.484-.217l1.484.08.765 2.101c1.17 3.215.998 3.506-.99 1.675zm.315-1.654c-.524-1.648-.579-1.714-1.414-1.72-.747-.005-.835.06-.621.457.23.43 2.387 2.977 2.52 2.977.034 0-.185-.771-.485-1.714zm7.662 2.516c-.088-.142.01-.588.218-.993.207-.404.59-1.42.852-2.256l.477-1.522h1.407c1.102 0 1.407.09 1.407.416 0 .602-1.373 2.503-2.625 3.634-1.121 1.013-1.467 1.157-1.736.72zm2.911-2.927c.36-.488.656-.984.656-1.101 0-.359-1.587-.241-1.594.117-.004.182-.289 1.017-.634 1.856l-.627 1.526.772-.755a16.364 16.364 0 001.427-1.643zm-14.92 1.133c-5.863-4.564-7.5-12.768-3.805-19.073 1.506-2.57 5.503-6.09 6.164-5.428.146.146-.096.718-.613 1.444a19.995 19.995 0 00-1.495 2.572c-.583 1.246-.72 1.369-1.521 1.369-.607 0-.881.123-.881.397 0 .218.23.396.513.396.765 0 .89.416.55 1.833-.17.704-.388 2.097-.487 3.097l-.18 1.817-1.124.082c-.742.053-1.124.206-1.124.448 0 .241.382.394 1.124.447l1.125.082.328 1.984c.18 1.091.448 2.33.595 2.752.405 1.162.324 1.67-.29 1.83-.81.212-.469.828.511.925.462.046.84.172.84.281 0 .11.527.984 1.17 1.944.644.96 1.1 1.816 1.015 1.901-.343.343-.869.103-2.415-1.1zm.964-.265c-.223-.254-.602-.85-.841-1.323-.335-.66-.603-.857-1.157-.848-.69.012-.661.066.72 1.323 1.448 1.32 2.03 1.706 1.278.848zm-2.596-4.22c.434-.113.444-.223.123-1.29-.193-.64-.432-1.886-.532-2.766-.141-1.25-.275-1.592-.609-1.56-.235.023-.755.028-1.155.01-.645-.026-.728-.132-.728-.927 0-.968.325-1.22 1.571-1.22.72 0 .738-.038.904-1.917.093-1.055.243-2.246.333-2.646.137-.607.076-.728-.367-.728-.341 0-.589-.229-.692-.64-.257-1.025.061-1.477 1.04-1.477.62 0 .925-.142 1.034-.484.084-.267.561-1.162 1.059-1.988l.905-1.504-1.156.948c-2.213 1.813-3.56 3.781-4.496 6.568-1.263 3.762-.711 8.642 1.334 11.806.7 1.082.779 1.134.864.565.051-.344.307-.682.568-.75zm16.943 5.377c0-.2.192-.524.427-.719.235-.195.782-.983 1.216-1.752.785-1.39.796-1.398 2.087-1.398 1.656 0 1.664.33.04 1.888-2.164 2.077-3.77 2.92-3.77 1.981zm4.116-3.099c.082-.132-.146-.24-.506-.24-.503 0-.848.316-1.497 1.369l-.842 1.37 1.348-1.13c.742-.62 1.415-1.237 1.497-1.369zm-18.652-1.828c-.408-.276-1.096-2.852-1.253-4.696l-.163-1.919h3.968l.304 2.992c.167 1.646.303 3.123.303 3.283 0 .293-2.785.592-3.159.34zm2.547-.893c-.077-.2-.225-1.36-.33-2.58-.104-1.218-.322-2.303-.484-2.41-.161-.107-.816-.196-1.454-.198l-1.16-.004.17 1.25c.095.688.365 1.938.6 2.778l.43 1.528h1.184c.895 0 1.15-.089 1.044-.364zm1.563.298c-.093-.328-.244-1.822-.336-3.32l-.167-2.724 1.959.078 1.959.079.074 3.24.074 3.242h-1.697c-1.533 0-1.713-.057-1.866-.595zm2.961-2.646l-.075-2.712-1.427-.056-1.426-.055.181 2.172c.28 3.353.284 3.363 1.651 3.363h1.171zm1.51 2.973c-.181-.293-.119-5.483.073-6.016.08-.225.757-.33 2.114-.33h1.995l-.17 2.314c-.095 1.274-.247 2.762-.34 3.308l-.167.992h-1.67c-.918 0-1.744-.12-1.835-.268zm3.16-1.783c.097-.836.245-2.087.33-2.778l.152-1.256h-1.07c-1.896 0-1.908.019-1.908 2.938v2.618h2.32zm1.304 1.468c.091-.334.232-1.441.313-2.46.081-1.018.206-2.239.278-2.712l.13-.86h4.021l-.157 1.654a19.8 19.8 0 01-.643 3.241l-.486 1.588-1.81.079c-1.776.077-1.808.067-1.646-.53zm3.42-1.6c.222-.91.486-2.166.586-2.793l.183-1.139-1.405.081c-1.373.08-1.408.101-1.581 1.007-.098.51-.247 1.73-.332 2.712l-.154 1.786H118.204zm.982 1.952c0-.128.161-.693.359-1.257.197-.564.44-1.62.54-2.349.407-2.996.215-2.778 2.429-2.778 1.862 0 1.963.031 1.957.596-.011 1.035-.53 2.923-1.236 4.498l-.682 1.52h-1.684c-.926 0-1.683-.103-1.683-.23zm3.552-1.687c.66-1.497 1.23-3.794 1-4.025-.079-.078-.71-.142-1.405-.142h-1.263l-.174 1.256a43.04 43.04 0 01-.51 2.778l-.336 1.522h1.038c.997 0 1.06-.054 1.65-1.39zm-22.47-5.756c-.394-.636.541-5.823 1.131-6.283.498-.387 2.75-.445 3.116-.08.158.16.153 1.402-.014 3.374l-.264 3.122-1.896.078c-1.163.047-1.965-.035-2.074-.211zm3.469-.62c.016-.022.103-1.208.192-2.634l.163-2.594-1.25.08-1.25.08-.306 1.323c-.357 1.544-.443 3.663-.16 3.945.154.155 2.487-.024 2.61-.199zm1.628.566c-.165-.442.23-5.924.453-6.285.2-.323 2.763-.364 3.256-.051.253.16.32 1.024.265 3.37l-.075 3.153-1.886.077c-1.356.056-1.921-.018-2.013-.264zm3.502-3.12v-2.646h-2.574l-.168 1.228a23.673 23.673 0 00-.169 2.646v1.418h2.911zm1.473 2.856c-.072-.334-.046-1.857.058-3.385l.189-2.778 1.455-.069c.8-.038 1.618.038 1.817.167.27.176.371 1.041.397 3.376l.035 3.14-1.91.078c-1.807.073-1.918.045-2.041-.53zm3.446-.279c.088-.088.075-1.299-.03-2.691l-.19-2.532h-2.582v2.602c0 1.43.07 2.672.155 2.757.196.196 2.43.081 2.647-.136zm1.558-1.441c-.103-1.28-.203-2.803-.223-3.385l-.036-1.058 1.665.003c1.175.002 1.736.117 1.905.39.386.625.852 3.737.754 5.03l-.091 1.191-1.894.077-1.893.078-.187-2.327zm3.477-.078c-.09-.946-.288-2.166-.44-2.712-.27-.96-.316-.992-1.488-.992h-1.21l.192 2.58c.105 1.419.227 2.64.27 2.712.044.073.7.132 1.46.132h1.38zm1.869 2.183c-.064-.109-.195-.913-.293-1.786a37.519 37.519 0 00-.476-2.998c-.343-1.61-.154-1.886 1.298-1.892 1.535-.007 2.113.39 2.562 1.765.503 1.538.949 4.304.77 4.771-.142.37-3.655.497-3.861.14zm3.143-1.976a14.22 14.22 0 00-.63-2.54c-.447-1.205-.492-1.24-1.67-1.318l-1.21-.079.347 1.8c.192.989.353 2.178.358 2.643.009.802.066.849 1.134.927 1.773.13 1.868.049 1.671-1.433zm-22.11-5.76c0-1.036 2.282-4.259 3.876-5.474 1.131-.864 1.575-.481.929.802-.23.458-.678 1.726-.994 2.817l-.575 1.984-1.618.08c-1.037.05-1.618-.025-1.618-.21zm3.036-1.26c.102-.545.41-1.635.685-2.422l.501-1.43-.693.637c-.722.662-2.735 3.594-2.735 3.984 0 .123.463.224 1.029.224.98 0 1.037-.048 1.213-.993zm1.355 1.298c-.076-.122-.018-.688.128-1.256.722-2.813 2.044-5.4 2.76-5.4.329 0 .394.572.394 3.44v3.44h-1.572c-.864 0-1.634-.1-1.71-.224zm2.744-3.017c-.008-2.442-.047-2.661-.396-2.2-.445.59-1.295 2.784-1.568 4.052l-.186.86h2.159zm1.543 2.91c-.233-.7-.017-6.393.246-6.48.782-.261 2.561 3.215 2.896 5.657l.158 1.154h-1.595c-1.04 0-1.633-.115-1.705-.331zm2.535-.926c-.285-1.19-1.209-3.6-1.594-4.16-.312-.455-.358-.173-.358 2.183v2.705h1.063c1.026 0 1.057-.026.889-.728zm1.48-.132c-.18-.764-.608-2.096-.954-2.96-.778-1.942-.452-2.327.998-1.178 1.607 1.272 3.74 4.46 3.477 5.196-.076.213-.666.33-1.657.33h-1.54zm2.245-.436c-.388-.713-1.15-1.73-1.694-2.262l-.988-.965.619 1.899c.34 1.044.619 2.062.619 2.261 0 .247.341.363 1.075.363h1.075zm1.977.591c-.29-.678-.941-1.796-1.446-2.483-1.604-2.185-1.032-2.466 1.39-.683 1.732 1.275 3.514 3.285 3.514 3.964 0 .352-.28.436-1.465.436h-1.464zm2.664.492c0-.272-2.972-3.253-3.108-3.118-.056.056.265.828.714 1.716.723 1.434.903 1.615 1.604 1.615.435 0 .79-.096.79-.213z" fill="#c70000"/></svg>