<svg xmlns="http://www.w3.org/2000/svg" width="707.681" height="506.773" viewBox="0 0 187.241 134.084"><path d="M8.121 133.09c-.469-.469-.853-5.784-.853-11.812 0-10.65.082-10.959 2.892-10.959 2.026 0 4.16 1.763 7.133 5.893l4.243 5.894.38-5.97c.342-5.344.668-5.93 3.103-5.583 2.527.36 2.745 1.147 3.076 11.092.303 9.093.042 10.826-1.73 11.506-2.547.977-5.527-1.579-10.373-8.894l-3.63-5.481-.376 7.15c-.347 6.606-1.775 9.254-3.865 7.164zm17.527-11.915c-.198-7.781-.29-8.116-.685-2.481-.586 8.377-2.555 8.447-8.63.31-4.993-6.687-6.583-7.596-6.583-3.761 0 1.535.619 2.205 1.667 1.802 1.003-.384 3.74 2.106 6.864 6.243 2.858 3.785 5.736 6.882 6.396 6.882.685 0 1.102-3.868.971-8.995zm9.057 11.027c-.96-1.156-1.362-5.268-1.127-11.53l.364-9.732 9.097-.367c8.187-.33 9.054-.144 8.673 1.861-.323 1.702-1.812 2.317-6.305 2.606-7.747.498-8.212 3.652-.62 4.203 3.839.278 5.374.969 5.674 2.552.344 1.812-.529 2.171-5.262 2.171-4.12 0-5.674.491-5.674 1.793 0 1.26 1.756 1.906 5.893 2.172 4.94.317 5.893.78 5.893 2.859 0 2.17-.948 2.527-7.557 2.846-5.439.262-7.976-.14-9.05-1.434zm9.162-1.917l-6.203-.736v-8.375c0-4.606-.419-8.374-.93-8.374-1.15 0-1.247 16.64-.104 17.783.455.455 3.665.74 7.134.632l6.307-.194zm18.86 2.822c-.479-.478-.87-4.685-.87-9.347 0-8.216-.096-8.478-3.102-8.478-2.296 0-3.102-.658-3.102-2.534 0-2.364.643-2.509 9.615-2.17 7.559.284 9.615.76 9.615 2.223 0 1.1-1.372 2.019-3.359 2.248-3.264.377-3.369.639-3.721 9.292-.28 6.86-.805 8.988-2.285 9.27-1.057.202-2.313-.025-2.791-.504zm3.114-13.794c.206-3.753-.168-6.515-.883-6.516-.762 0-1.034 3.466-.704 8.996.556 9.325.973 8.673 1.587-2.48zm18.966 13.336c-1.291-2.09-6.822-18.93-6.822-20.772 0-1.079 1.036-1.581 2.752-1.334 2.13.307 3.198 1.879 4.724 6.951l1.97 6.555 2.188-6.94c1.83-5.809 2.611-6.877 4.79-6.554 1.893.28 3.17 2.08 4.673 6.588l2.07 6.203 2.163-6.513c1.61-4.844 2.774-6.514 4.545-6.514 3.306 0 3.017 3.708-1.112 14.268-4.296 10.987-7.055 11.657-10.214 2.481-1.771-5.145-2.297-5.78-3.082-3.722-3.313 8.691-4.373 10.546-6.026 10.546-1.018 0-2.196-.56-2.619-1.243zm5.061-8.379c-.394-.394-.717-.066-.717.73s-.838 1.448-1.861 1.448c-1.024 0-1.861-.652-1.861-1.448 0-.796-.3-1.147-.667-.78-.367.366.018 2.17.855 4.006l1.522 3.34 1.723-3.289c.948-1.81 1.4-3.612 1.006-4.007zm13.243 3.595c.473-1.808.082-2.204-1.711-1.736-2.619.685-2.598.642-1.574 3.312.907 2.363 2.449 1.624 3.285-1.576zm-21.41-13.467c-1.352-2.108-1.387-2.105-.708.055.393 1.25.758 2.925.812 3.722.07 1.046.268 1.03.708-.055.336-.827-.03-2.502-.812-3.722zm14.894 2.77c0-.244-.34-1.326-.753-2.405-1.003-2.614-2.543-2.487-3.263.269-.398 1.52.148 2.286 1.716 2.404 1.265.095 2.3-.026 2.3-.269zm21.227 15.06c-6.662-3.845-8.138-12.137-3.204-18 8.447-10.04 23.6-2.763 21.175 10.168-.433 2.306-1.85 5.154-3.147 6.329-3.149 2.85-11.094 3.655-14.824 1.503zm12.947-3.863c1.795-1.795 3.045-4.483 3.045-6.547 0-3.812-3.03-9.017-5.25-9.017-.762 0-.172 1.292 1.312 2.871 1.484 1.58 2.697 4.37 2.697 6.203 0 7.402-9.732 11.061-14.839 5.58-1.391-1.494-2.53-2.084-2.53-1.312 0 2.234 5.193 5.267 9.017 5.267 2.065 0 4.753-1.25 6.548-3.045zm-1.55-3.276c3.66-5.85-4.011-12.508-9.102-7.9-2.746 2.484-3.03 4.581-1.108 8.172 1.599 2.988 8.282 2.81 10.21-.272zm-14.434-5.155c-.344-.853-.625-.155-.625 1.551s.281 2.404.625 1.551c.345-.853.345-2.249 0-3.102zm3.57-4.705c1.884-2.083 1.935-2.398.288-1.765-1.104.423-2.31 1.563-2.683 2.534-.927 2.416-.308 2.217 2.394-.77zm7.68-3.178c-.413-.412-1.483-.456-2.379-.098-.99.396-.695.69.75.75 1.308.054 2.04-.24 1.628-.652zm14.852 21.056c-.478-.478-.87-5.801-.87-11.829V110.32h7.872c6.05 0 8.347.525 9.925 2.27 2.585 2.856 2.615 6.302.085 9.914-1.8 2.571-1.796 3.074.052 5.894 3.989 6.088-1.061 7.59-5.957 1.773-3.887-4.62-5.495-4.706-6.001-.321-.375 3.251-3.267 5.097-5.106 3.258zm6.3-9.14c1.844 0 4.39 1.234 5.81 2.817 1.39 1.55 2.11 2.275 1.598 1.613-1.511-1.957-1.068-5.254.93-6.912 2.455-2.037 2.364-5.484-.199-7.602-1.886-1.559-1.913-1.466-.32 1.093 2.612 4.192.24 7.04-6.258 7.518l-5.284.388.48-5.04c.265-2.773.048-5.041-.482-5.041s-.88 4.047-.777 8.994c.102 4.947.418 7.46.702 5.583.414-2.732 1.171-3.412 3.8-3.412zm5.857-6.204c0-1.108-1.38-2.02-3.412-2.253-2.778-.32-3.411.099-3.411 2.253 0 2.155.633 2.573 3.411 2.254 2.031-.234 3.412-1.146 3.412-2.254zm13.584 14.785c-.501-.81-.914-6.004-.918-11.541-.007-9.35.184-10.096 2.659-10.464 2.327-.346 2.665.2 2.665 4.315v4.711l3.812-4.625c2.49-3.022 4.856-4.625 6.823-4.625 3.917 0 3.815 2.128-.31 6.433l-3.32 3.467 4.016 5.593c6.201 8.635 2.249 11.597-4.786 3.585-4.093-4.663-5.727-4.491-6.44.676-.464 3.356-2.805 4.735-4.201 2.475zm11.792-7.414l-3.989-5.036 2.954-3.396c1.624-1.868 1.131-1.556-1.095.694-5.163 5.214-7.439 5.23-8.08.057-.276-2.218-.555-.403-.621 4.032-.086 5.778.19 7.296.972 5.354.6-1.49 2.131-3.267 3.401-3.946 1.891-1.012 2.925-.465 5.706 3.02 1.868 2.341 3.699 4.257 4.068 4.257.37 0-1.123-2.266-3.316-5.036zm-72.98-26.012c-5.314-1.216-8.566-4.467-9.59-9.588-.707-3.532-.482-4.028 1.83-4.028 1.517 0 2.637.791 2.637 1.861 0 3.576 4.724 6.824 9.925 6.824 4.757 0 9.925-3.184 9.925-6.115 0-2.54-4.062-4.945-9.63-5.702-11.664-1.584-13.942-3.326-13.942-10.66 0-3.607.834-5.764 3.108-8.038 2.89-2.89 3.825-3.082 13.337-2.735l10.229.373.37 7.77c.294 6.195-.031 7.924-1.607 8.528-1.705.654-1.627 1.004.56 2.536 2.78 1.947 3.54 9.85 1.344 13.954-2.118 3.958-11.732 6.567-18.496 5.02zm6.947-1.959c-.412-.412-1.482-.456-2.378-.098-.99.396-.696.69.75.75 1.308.054 2.04-.24 1.628-.652zm5.553-23.133c-.306-2.217-1.412-5.009-2.459-6.203-2.557-2.919-8.385-2.747-11.47.339-3.859 3.858-1.452 6.957 6.533 8.413 3.587.654 6.843 1.255 7.237 1.336.394.081.465-1.667.159-3.885zM16.149 96.982c-.622-1.194-2.038-5.38-3.145-9.304-6.116-21.666-5.56-20.436-9.597-21.243-2.731-.547-3.654-1.356-3.352-2.938.351-1.84 2.042-2.24 10.732-2.545 10.13-.355 10.307-.31 9.911 2.481-.291 2.054-1.35 2.952-3.815 3.236-1.876.216-3.403.495-3.392.62.01.126 1.292 4.857 2.847 10.514l2.828 10.285 3.713-12.767c3.394-11.668 3.973-12.767 6.725-12.767 2.727 0 3.377 1.169 6.903 12.407l3.892 12.406 1.484-5.582c.817-3.071 2.016-7.202 2.665-9.18 1.733-5.282 1.543-5.708-2.542-5.708-3.143 0-3.722-.483-3.722-3.102 0-3.048.17-3.101 9.852-3.101 5.419 0 10.166.507 10.55 1.128 1.298 2.101-.8 5.075-3.582 5.075-2.338 0-3.095 1.198-4.896 7.754-6.374 23.203-6.969 24.676-9.795 24.269-2.25-.324-3.311-2.478-6.556-13.297-2.13-7.1-4.178-12.404-4.552-11.786-.374.618-1.935 5.87-3.47 11.67-1.534 5.8-3.337 11.243-4.006 12.096-1.731 2.205-4.357 1.918-5.68-.62zm4.018-2.584c.352-.569-.15-1.034-1.113-1.034s-1.464.465-1.113 1.034c.352.568.853 1.034 1.113 1.034.261 0 .762-.466 1.113-1.034zm41.582 3.165c-5.408-4.152-6.27-11.513-1.94-16.549 2.308-2.682 4.683-3.678 11.375-4.774 10.166-1.663 12.872-4.358 8.214-8.18-5.636-4.626-13.82-2.35-13.82 3.843 0 2.84-.56 3.678-2.457 3.678-3.476 0-4.592-5.346-1.957-9.369 2.518-3.843 6.625-5.518 13.524-5.518 10.166 0 13.203 5.339 13.215 23.23l.007 10.205 3.832-.766c3.499-.7 3.795-.509 3.411 2.202-.357 2.526-1.207 3.025-5.703 3.35-3.858.28-5.481-.131-6.014-1.52-.649-1.69-1.125-1.698-4.27-.072-4.255 2.201-14.676 2.345-17.417.24zm16.746-7.19c1.767-2.099 3.212-5.194 3.212-6.879 0-3.275-.028-3.277-12.796-.89-4.9.916-6.997 5.741-3.957 9.1 3.52 3.891 9.655 3.289 13.541-1.33zm57.062 6.173c-1.951-2.154-2.436-4.952-2.781-16.057-.395-12.689-.57-13.47-3.102-13.83-1.687-.24-2.83-1.42-3.08-3.174-.32-2.257.198-2.791 2.71-2.791 2.465 0 3.186-.704 3.497-3.412.281-2.443 1.186-3.525 3.184-3.808 2.364-.336 2.792.174 2.792 3.336 0 3.419.392 3.766 4.652 4.119 3.697.306 4.653.894 4.653 2.866 0 1.976-.957 2.56-4.695 2.869l-4.695.388.352 12.507c.296 10.496.714 12.728 2.597 13.88 1.795 1.098 2.601.89 4.032-1.036.983-1.325 1.788-3.75 1.788-5.389 0-1.875.866-3.207 2.336-3.591 1.73-.453 2.545-2.194 3.145-6.714 1.536-11.58 11.706-18.82 22.321-15.888 6.153 1.699 10.278 5.888 11.333 11.51 1.485 7.917.97 8.213-14.283 8.213-15.061 0-15.523.292-11.812 7.469 4.556 8.81 16.147 8.378 19.959-.745 1.845-4.417 5.014-5.61 6.262-2.36 1.174 3.06-2.172 9.398-6.285 11.906-4.68 2.854-14.296 3.081-19.37.458-3.692-1.91-7.283-7.33-7.548-11.394-.08-1.228-.61.546-1.178 3.942-.579 3.458-1.983 6.869-3.193 7.754-3.458 2.528-10.877 1.966-13.59-1.028zm45.402-22.882c0-3.358-5.786-8.008-9.965-8.008-3.858 0-11.126 5.61-11.126 8.59 0 .849 3.84 1.335 10.545 1.335 8.685 0 10.546-.338 10.546-1.917zm-45.057-16.925c-.396-.99-.69-.696-.75.75-.053 1.307.24 2.04.652 1.628.413-.412.457-1.482.098-2.378zM65.58 48.633c-8.59-3.228-13.593-11.803-13.593-23.298 0-11.655 5.32-20.827 13.984-24.11 9.118-3.455 21.6.706 25.842 8.614 2.899 5.405 3.095 14.306.339 15.363-1.08.415-9.175.753-17.99.753-15.999 0-16.026.005-16.026 2.919 0 4.297 4.99 11.041 9.983 13.494 7.49 3.678 16.354-.502 19.679-9.279 1.827-4.823 6.316-4.733 6.316.127 0 4.712-4.57 11.18-9.905 14.015-4.176 2.218-14.407 2.988-18.63 1.402zM83.9 22.588c-1.864-.283-5.214-.29-7.444-.013-2.23.276-.704.508 3.39.515 4.094.007 5.919-.22 4.054-.502zm4.01-5.441c0-1.433-1.898-4.504-4.218-6.824-3.256-3.256-5.25-4.218-8.746-4.218-6.469 0-11.44 3.019-14.343 8.71l-2.519 4.937h14.913c14.323 0 14.913-.103 14.913-2.605zM62.015 7.656c1.543-1.968 1.5-2.012-.469-.469-1.194.937-2.17 1.914-2.17 2.172 0 1.02 1.018.363 2.639-1.703zm93.51 40.113c-4.623-2.063-9.963-7.665-11.707-12.28-1.865-4.935-1.638-17.536.404-22.422 2.302-5.51 7.816-10.465 13.298-11.952 5.958-1.616 15.236-.228 20.11 3.01 9.236 6.13 12.553 23.17 6.675 34.286-5.032 9.515-18.567 13.917-28.78 9.358zm16.45-5.678c8.771-5.348 11.608-17.293 6.49-27.325-4.258-8.346-15.061-11.348-22.297-6.196-3.96 2.82-7.466 10.58-7.466 16.527 0 6.26 4.888 14.779 9.925 17.295 5.594 2.794 8.374 2.732 13.348-.301zm-18.31.765c0-.258-.978-1.235-2.172-2.171-1.967-1.543-2.011-1.5-.468.468 1.62 2.067 2.64 2.724 2.64 1.703zm-7.81-20.933c-.295-1.535-.537-.279-.537 2.792 0 3.07.242 4.327.537 2.791.296-1.535.296-4.047 0-5.583zm5.948-13.337c1.236-1.364 1.967-2.48 1.626-2.48-.341 0-1.631 1.116-2.866 2.48-1.235 1.365-1.967 2.482-1.625 2.482.34 0 1.63-1.117 2.865-2.482zM5.644 47.49c-1.808-1.808-.583-4.975 3.848-9.942 2.53-2.836 9.825-10.791 16.212-17.68L37.317 7.347h-12.04c-10.994 0-12.094.215-12.687 2.481-.367 1.406-1.692 2.481-3.057 2.481-2.065 0-2.353-.75-2.026-5.272l.382-5.273 19.54-.342 19.54-.342v3.156c0 2.34-4.148 7.562-16.033 20.184-8.818 9.366-15.931 17.13-15.807 17.255.125.124 5.735.373 12.467.553 10.303.274 12.482-.005 13.772-1.77 2.665-3.645 4.542-2.481 4.125 2.557l-.385 4.653-19.303.34c-10.617.187-19.69-.045-20.16-.517zm7.207-7.887c1.235-1.365 1.967-2.482 1.625-2.482-.34 0-1.63 1.117-2.866 2.482-1.235 1.364-1.966 2.48-1.625 2.48.341 0 1.631-1.116 2.866-2.48zm15.508-16.75c2.315-2.387 3.93-4.341 3.589-4.341-.342 0-2.515 1.954-4.83 4.342-2.314 2.388-3.929 4.342-3.588 4.342.341 0 2.514-1.954 4.83-4.342zM42.854 4.633c-.396-.99-.69-.696-.75.75-.054 1.307.24 2.04.652 1.628.412-.413.456-1.483.098-2.378zm54.981 41.306c0-2.556 2.297-3.854 6.82-3.854 2.697 0 2.953-.634 3.765-9.299.48-5.114.486-12.899.015-17.3l-.857-8-4.561-.38c-3.644-.303-4.641-.94-4.958-3.171-.376-2.649.015-2.792 7.65-2.792 5.334 0 8.224.524 8.569 1.551.402 1.2 1.312 1.13 4.014-.31 4.86-2.589 13.675-2.178 17.697.825 8.217 6.135 4.69 20.588-4.44 18.2-3.984-1.04-3.408-8.066.742-9.05 2.661-.633 2.71-.826.86-3.461-3.093-4.409-10.602-3.886-14.735 1.025-3.041 3.615-3.212 4.563-3.212 17.857 0 15.09.203 15.545 6.925 15.545 2.174 0 3 .685 3 2.482 0 2.33-.826 2.481-13.647 2.481-12.562 0-13.647-.187-13.647-2.349zm15.325-2.025c-.56-1.46-1.12-1.567-2.443-.468-2.304 1.912-2.166 2.36.727 2.36 1.679 0 2.215-.59 1.716-1.892zm22.515-26.642c.422-.682-.416-1.24-1.86-1.24-1.446 0-2.284.558-1.862 1.24.422.682 1.26 1.24 1.861 1.24.602 0 1.44-.558 1.861-1.24zm-22.655-4.305c.322-1.685.108-2.769-.476-2.408-1.028.635-1.546 5.472-.586 5.472.262 0 .74-1.379 1.062-3.064z"/></svg>